<?xml version="1.0" encoding="UTF-8" standalone="no"?>
<svg
   version="1.1"
   viewBox="0 0 1262.7344 272.20193"
   width="1262.7344"
   height="272.20193"
   id="svg139"
   xml:space="preserve"
   xmlns="http://www.w3.org/2000/svg"
   xmlns:svg="http://www.w3.org/2000/svg"
   xmlns:rdf="http://www.w3.org/1999/02/22-rdf-syntax-ns#"
   xmlns:cc="http://creativecommons.org/ns#"><metadata
     id="metadata1"><rdf:RDF><cc:Work
         rdf:about=""><cc:license
           rdf:resource="http://creativecommons.org/licenses/by-sa/4.0/" /></cc:Work><cc:License
         rdf:about="http://creativecommons.org/licenses/by-sa/4.0/"><cc:permits
           rdf:resource="http://creativecommons.org/ns#Reproduction" /><cc:permits
           rdf:resource="http://creativecommons.org/ns#Distribution" /><cc:requires
           rdf:resource="http://creativecommons.org/ns#Notice" /><cc:requires
           rdf:resource="http://creativecommons.org/ns#Attribution" /><cc:permits
           rdf:resource="http://creativecommons.org/ns#DerivativeWorks" /><cc:requires
           rdf:resource="http://creativecommons.org/ns#ShareAlike" /></cc:License></rdf:RDF></metadata><defs
     id="defs27" /><g
     stroke-linecap="round"
     id="dashboards-to-alerts"
     style="opacity:0.5;fill:currentColor;fill-opacity:1"
     class="arrow"
     transform="translate(-613.17694,-14.518897)"><g
       stroke-opacity="0.4"
       fill-opacity="0.4"
       transform="translate(1216.0665,150.36361)"
       id="g40"
       style="fill:currentColor;fill-opacity:1"><path
         d="m 0.06,-0.05 c 14.76,0 74.14,0.91 88.91,1.15 M -1.37,-1.13 c 14.54,0.16 74.38,0.26 89.21,0.36"
         stroke="currentColor"
         stroke-width="4"
         fill="none"
         id="path39"
         style="fill:currentColor;fill-opacity:1" /></g><g
       stroke-opacity="0.4"
       fill-opacity="0.4"
       transform="translate(1216.0665,150.36361)"
       id="g41"
       style="fill:currentColor;fill-opacity:1"><path
         d="M 64.31,7.69 C 71.98,4.27 80.69,0.98 87.84,-0.77 M 64.31,7.69 C 72.78,4.41 81.96,2.03 87.84,-0.77"
         stroke="currentColor"
         stroke-width="4"
         fill="none"
         id="path40"
         style="fill:currentColor;fill-opacity:1" /></g><g
       stroke-opacity="0.4"
       fill-opacity="0.4"
       transform="translate(1216.0665,150.36361)"
       id="g42"
       style="fill:currentColor;fill-opacity:1"><path
         d="m 64.38,-9.42 c 7.8,2.28 16.49,4.69 23.46,8.65 M 64.38,-9.42 c 8.46,2.98 17.62,6.85 23.46,8.65"
         stroke="currentColor"
         stroke-width="4"
         fill="none"
         id="path41"
         style="fill:currentColor;fill-opacity:1" /></g></g><g
     stroke-linecap="round"
     id="dashboards-to-cdviz-db"
     class="arrow"
     transform="translate(-639.94395,-12.606967)"><g
       transform="translate(929.49679,285.49219)"
       id="g49"><path
         d="M 0.79,0.5 C 1.14,23.59 3.13,115.81 3.25,138.78 M -0.26,-0.28 c 0.18,23.24 2.37,117.19 3.07,140.45"
         stroke="currentColor"
         stroke-width="4"
         fill="none"
         id="path48" /></g><g
       transform="translate(929.49679,285.49219)"
       id="g50"><path
         d="m -6.34,116.91 c 4.49,10.72 6.8,16.9 9.15,23.26 m -9.15,-23.26 c 3.03,4.73 5.12,11.9 9.15,23.26"
         stroke="currentColor"
         stroke-width="4"
         fill="none"
         id="path49" /></g><g
       transform="translate(929.49679,285.49219)"
       id="g51"><path
         d="m 10.75,116.47 c -2.22,11 -6.63,17.36 -7.94,23.7 m 7.94,-23.7 c -1.07,4.68 -3.08,11.95 -7.94,23.7"
         stroke="currentColor"
         stroke-width="4"
         fill="none"
         id="path50" /></g></g><g
     id="alerts"
     transform="translate(-622.73659,-10.695038)"><g
       stroke-opacity="0.4"
       fill-opacity="0.4"
       transform="translate(1443.1136,47.035156)"
       id="g35"
       style="opacity:0.5;fill:currentColor;fill-opacity:1"><text
         x="151.34062"
         y="24.667999"
         font-family="Excalifont, Xiaolai, 'Comic Sans MS', sans-serif"
         font-size="28px"
         fill="currentColor"
         text-anchor="middle"
         style="white-space:pre;fill:currentColor;fill-opacity:1"
         direction="ltr"
         dominant-baseline="alphabetic"
         id="text34">Alerts &amp; Notifications</text></g><g
       stroke-opacity="0.4"
       fill-opacity="0.4"
       transform="translate(1782.3675,113.76102)"
       id="g39"
       style="opacity:0.5;fill:currentColor;fill-opacity:1"><text
         x="31.159279"
         y="66.791557"
         font-family="Excalifont, Xiaolai, 'Comic Sans MS', sans-serif"
         font-size="75.8133px"
         fill="currentColor"
         text-anchor="middle"
         style="white-space:pre;fill:currentColor;fill-opacity:1"
         direction="ltr"
         dominant-baseline="alphabetic"
         id="text38">...</text></g><path
       fill="currentColor"
       d="m 1419.9148,141.89908 c -6.1563,-3.32701 -10.4657,-3.86405 -20.5711,-3.86405 h -22.7685 v 47.64571 h 22.68 c 8.9823,0 15.7182,-0.53703 21.6453,-4.48623 6.4674,-4.26682 9.8369,-11.40877 9.8369,-19.67063 0,-8.89387 -4.1325,-16.03254 -10.8226,-19.62807 z m -18.0104,33.81372 h -13.7861 v -27.48388 l 13.0231,-0.0884 c 11.8542,-0.0917 17.7812,4.04088 17.7812,13.51762 0,10.1939 -7.3613,14.05467 -17.0182,14.05467 m -25.3292,19.98828 h 11.5431 v 20.92482 h -11.5431 z"
       id="path1-62"
       style="opacity:0.5;stroke-width:3.27462" /><path
       fill="currentColor"
       d="m 1746.4138,146.28074 a 80.572411,80.572411 0 0 0 -19.8786,-6.16501 0.30112921,0.30112921 0 0 0 -0.3214,0.15057 c -0.8546,1.52599 -1.8068,3.51589 -2.4742,5.08664 a 74.468441,74.468441 0 0 0 -22.3283,0 52.901078,52.901078 0 0 0 -2.5108,-5.08664 0.3255451,0.3255451 0 0 0 -0.3215,-0.15057 80.16548,80.16548 0 0 0 -19.8786,6.16501 0.40693137,0.40693137 0 0 0 -0.1302,0.10988 c -12.6637,18.91823 -16.1348,37.3685 -14.4298,55.58682 a 0.3255451,0.3255451 0 0 0 0.1262,0.23195 80.979343,80.979343 0 0 0 24.3874,12.33002 0.3255451,0.3255451 0 0 0 0.3418,-0.11394 56.970392,56.970392 0 0 0 4.989,-8.11421 0.30926784,0.30926784 0 0 0 -0.1669,-0.43135 52.901078,52.901078 0 0 1 -7.6177,-3.62983 0.31333716,0.31333716 0 0 1 -0.033,-0.52087 40.693137,40.693137 0 0 0 1.5138,-1.18824 0.28485196,0.28485196 0 0 1 0.3133,-0.0407 c 15.9843,7.29628 33.287,7.29628 49.0841,0 a 0.28485196,0.28485196 0 0 1 0.3174,0.0407 q 0.7365,0.60633 1.5178,1.18824 a 0.31333716,0.31333716 0 0 1 -0.024,0.51681 50.052559,50.052559 0 0 1 -7.6218,3.62982 0.31333716,0.31333716 0 0 0 -0.1668,0.43542 c 1.4649,2.84038 3.1415,5.54241 4.9849,8.11014 a 0.3255451,0.3255451 0 0 0 0.3418,0.11394 80.572411,80.572411 0 0 0 24.424,-12.33002 0.3255451,0.3255451 0 0 0 0.1302,-0.21974 c 2.0347,-21.06684 -3.41,-39.36654 -14.4419,-55.58683 a 0.24415882,0.24415882 0 0 0 -0.1262,-0.12208 m -50.0403,44.60375 c -4.81,0 -8.7776,-4.4152 -8.7776,-9.84367 0,-5.42439 3.8903,-9.84367 8.7776,-9.84367 4.9238,0 8.8548,4.45997 8.7775,9.84774 0,5.4244 -3.8903,9.8396 -8.7775,9.8396 m 32.4527,0 c -4.814,0 -8.7775,-4.4152 -8.7775,-9.84367 0,-5.42439 3.8862,-9.84367 8.7775,-9.84367 4.9239,0 8.8549,4.45997 8.7775,9.84774 0,5.4244 -3.8495,9.8396 -8.7775,9.8396"
       id="path1-2"
       style="opacity:0.5;stroke-width:4.06931" /><path
       fill="currentColor"
       d="m 1579.0875,187.11029 a 7.8238585,7.8238585 0 0 1 -7.8239,7.82386 7.8238585,7.8238585 0 0 1 -7.8238,-7.82386 7.8238585,7.8238585 0 0 1 7.8238,-7.82386 h 7.8239 z m 3.9119,0 a 7.8238585,7.8238585 0 0 1 7.8239,-7.82386 7.8238585,7.8238585 0 0 1 7.8238,7.82386 v 19.55965 a 7.8238585,7.8238585 0 0 1 -7.8238,7.82386 7.8238585,7.8238585 0 0 1 -7.8239,-7.82386 z m 7.8239,-31.29543 a 7.8238585,7.8238585 0 0 1 -7.8239,-7.82386 7.8238585,7.8238585 0 0 1 7.8239,-7.82386 7.8238585,7.8238585 0 0 1 7.8238,7.82386 v 7.82386 z m 0,3.91193 a 7.8238585,7.8238585 0 0 1 7.8238,7.82385 7.8238585,7.8238585 0 0 1 -7.8238,7.82386 h -19.5597 a 7.8238585,7.8238585 0 0 1 -7.8238,-7.82386 7.8238585,7.8238585 0 0 1 7.8238,-7.82385 z m 31.2954,7.82385 a 7.8238585,7.8238585 0 0 1 7.8239,-7.82385 7.8238585,7.8238585 0 0 1 7.8238,7.82385 7.8238585,7.8238585 0 0 1 -7.8238,7.82386 h -7.8239 z m -3.9119,0 a 7.8238585,7.8238585 0 0 1 -7.8239,7.82386 7.8238585,7.8238585 0 0 1 -7.8238,-7.82386 V 147.991 a 7.8238585,7.8238585 0 0 1 7.8238,-7.82386 7.8238585,7.8238585 0 0 1 7.8239,7.82386 z m -7.8239,31.29544 a 7.8238585,7.8238585 0 0 1 7.8239,7.82386 7.8238585,7.8238585 0 0 1 -7.8239,7.82386 7.8238585,7.8238585 0 0 1 -7.8238,-7.82386 v -7.82386 z m 0,-3.91193 a 7.8238585,7.8238585 0 0 1 -7.8238,-7.82386 7.8238585,7.8238585 0 0 1 7.8238,-7.82386 h 19.5597 a 7.8238585,7.8238585 0 0 1 7.8238,7.82386 7.8238585,7.8238585 0 0 1 -7.8238,7.82386 z"
       id="path1-93"
       style="opacity:0.5;stroke-width:3.91193" /><path
       fill="currentColor"
       d="m 1497.1675,137.27032 c 22.1495,0.005 40.3314,18.06018 40.303,40.02922 -0.029,22.29966 -18.1354,40.10684 -40.7656,40.09107 -22.1261,-0.0151 -40.0141,-18.09111 -39.9983,-40.41727 0.017,-21.83149 18.2336,-39.70744 40.4609,-39.70302 m -12.244,14.05985 c 0.5066,2.49863 0.017,4.83006 -0.7363,7.123 -0.5194,1.58688 -1.2381,3.11698 -1.6671,4.72721 -0.7079,2.65195 -1.5086,5.31906 -1.8039,8.0297 -0.4233,3.9 1.1092,7.33499 3.7315,10.75169 l -12.0552,-2.53775 c 0.02,0.37984 0,0.5237 0.04,0.64611 1.1426,3.35675 3.1535,6.18475 5.4073,8.85248 0.2379,0.28141 0.7805,0.42527 1.1843,0.42527 12.0199,0.0241 24.0406,0.0214 36.0611,0.005 0.3722,0 0.8714,-0.0693 1.0986,-0.30918 2.5768,-2.70937 4.546,-5.79544 5.7796,-9.68031 l -12.7632,2.4999 c 0.843,-1.65187 1.8014,-3.10184 2.3553,-4.6963 1.8892,-5.45345 1.1054,-10.72519 -1.6057,-15.69848 -2.1762,-3.99024 -4.1841,-7.96282 -3.0981,-12.77267 -2.2979,2.27148 -3.182,5.16067 -3.7429,8.13822 -0.5502,2.934 -0.8765,5.90838 -1.303,8.88591 -0.062,-0.0902 -0.138,-0.15766 -0.1531,-0.23534 a 8.8335493,8.8335493 0 0 1 -0.1111,-0.94015 c -0.2606,-4.87485 -1.2114,-9.57178 -3.2218,-14.05796 -1.1817,-2.63871 -2.4865,-5.33925 -1.267,-8.4903 -0.8246,0.43725 -1.571,0.86883 -2.1061,1.48656 -1.5944,1.84243 -2.2545,4.05586 -2.4242,6.4794 -0.1464,2.07084 -0.3444,4.15115 -0.7294,6.18727 -0.4038,2.14024 -1.041,4.23632 -2.481,6.20305 -0.5791,-4.19972 -0.6436,-8.35653 -4.389,-11.023 z m 30.9943,41.69878 h -37.7028 v 6.54944 h 37.7028 z m -30.2259,9.93521 c -0.03,5.45283 5.5229,9.51562 12.3879,9.22097 5.6913,-0.24546 10.7257,-4.72216 10.2942,-9.22097 z m 0,0"
       id="path1-0"
       style="opacity:0.5;stroke-width:0.630968" /><rect
       style="opacity:0.5;fill:#000000;fill-opacity:0;fill-rule:evenodd;stroke:currentColor;stroke-width:1.73858;stroke-linejoin:round;stroke-dasharray:13.9086, 6.95432;stroke-dashoffset:0;stroke-opacity:1"
       id="rect150"
       width="565.11011"
       height="264.97986"
       x="1319.4916"
       y="13.519382"
       ry="51.37365" /></g><g
     id="g1"
     transform="translate(-639.94395,-12.606967)"><g
       transform="translate(822.28909,55.070312)"
       id="g28"><text
         x="80.59832"
         y="24.667999"
         font-family="Excalifont, Xiaolai, 'Comic Sans MS', sans-serif"
         font-size="28px"
         fill="currentColor"
         text-anchor="middle"
         style="white-space:pre"
         direction="ltr"
         dominant-baseline="alphabetic"
         id="text27">Dashboards</text></g><g
       transform="translate(806.30619,96.738281)"
       id="g29"><text
         x="101.31991"
         y="17.620001"
         font-family="Excalifont, Xiaolai, 'Comic Sans MS', sans-serif"
         font-size="20px"
         fill="currentColor"
         text-anchor="middle"
         style="font-size:24px;white-space:pre"
         direction="ltr"
         dominant-baseline="alphabetic"
         id="text28">(idp, monitor, analytics, alerts, ...)</text></g><path
       fill="currentColor"
       d="m 858.89144,172.11982 c 0,2.83549 -2.26277,5.13339 -5.05257,5.13339 -2.78981,0 -5.05258,-2.2979 -5.05258,-5.13339 0,-2.83548 2.26277,-5.13338 5.05258,-5.13338 2.7898,0 5.05257,2.2979 5.05257,5.13338 m -5.05257,9.2408 c -2.78981,0 -5.05258,2.2979 -5.05258,5.13339 0,2.83548 2.26277,5.13338 5.05258,5.13338 2.7898,0 5.05257,-2.2979 5.05257,-5.13338 0,-2.83549 -2.26277,-5.13339 -5.05257,-5.13339 m 19.20187,-9.2408 c 0,2.83549 -2.2628,5.13339 -5.0526,5.13339 -2.7898,0 -5.0525,-2.2979 -5.0525,-5.13339 0,-2.83548 2.2627,-5.13338 5.0525,-5.13338 2.7898,0 5.0526,2.2979 5.0526,5.13338 m -1.2298,0 c 0,-2.15384 -1.7146,-3.90362 -3.8228,-3.90362 -2.1081,0 -3.8228,1.7533 -3.8228,3.90362 0,2.15033 1.7147,3.90363 3.8228,3.90363 2.1082,0 3.8228,-1.74978 3.8228,-3.90363 m -3.8228,19.64812 c 2.7898,0 5.0526,-2.29791 5.0526,-5.13339 0,-2.83548 -2.2628,-5.13338 -5.0526,-5.13338 -2.7898,0 -5.0525,2.2979 -5.0525,5.13338 0,2.83548 2.2592,5.13339 5.0525,5.13339 m 19.1984,-19.64812 c 0,2.83549 -2.2628,5.13339 -5.0526,5.13339 -2.7898,0 -5.0525,-2.2979 -5.0525,-5.13339 0,-2.83548 2.2627,-5.13338 5.0525,-5.13338 2.7898,0 5.0526,2.2979 5.0526,5.13338 m -1.2298,0 c 0,-2.15384 -1.7146,-3.90362 -3.8228,-3.90362 -2.1081,0 -3.8228,1.74978 -3.8228,3.90362 0,2.15385 1.7147,3.90363 3.8228,3.90363 2.1082,0 3.8228,-1.74978 3.8228,-3.90363 m 1.2298,-16.42612 c 0,2.83548 -2.2628,5.13338 -5.0526,5.13338 -2.7898,0 -5.0525,-2.2979 -5.0525,-5.13338 0,-2.83549 2.2627,-5.13339 5.0525,-5.13339 2.7898,0 5.0526,2.2979 5.0526,5.13339 m -1.2298,0 c 0,-2.15385 -1.7146,-3.90363 -3.8228,-3.90363 -2.1081,0 -3.8228,1.74978 -3.8228,3.90363 0,2.15384 1.7147,3.90362 3.8228,3.90362 2.1082,0 3.8228,-1.74978 3.8228,-3.90362 m 1.2298,30.94085 c 0,2.83548 -2.2628,5.13339 -5.0526,5.13339 -2.7898,0 -5.0525,-2.29791 -5.0525,-5.13339 0,-2.83548 2.2627,-5.13338 5.0525,-5.13338 2.7898,0 5.0526,2.2979 5.0526,5.13338 m -1.2298,0 c 0,-2.15384 -1.7146,-3.90362 -3.8228,-3.90362 -2.1081,0 -3.8228,1.74978 -3.8228,3.90362 0,2.15384 1.7147,3.90362 3.8228,3.90362 2.1082,0 3.8228,-1.75329 3.8228,-3.90362 m 15.37561,-14.51473 c 0,2.83549 -2.2628,5.13339 -5.0526,5.13339 -2.7898,0 -5.0525,-2.2979 -5.0525,-5.13339 0,-2.83548 2.2627,-5.13338 5.0525,-5.13338 2.7898,0 5.0526,2.2979 5.0526,5.13338 m -1.2298,0 c 0,-2.15384 -1.7146,-3.90362 -3.8228,-3.90362 -2.1081,0 -3.8228,1.74978 -3.8228,3.90362 0,2.15385 1.7147,3.90363 3.8228,3.90363 2.1082,0 3.8228,-1.74978 3.8228,-3.90363 m 10.32653,5.13339 c 2.7899,0 5.0526,-2.2979 5.0526,-5.13339 0,-2.83548 -2.2627,-5.13338 -5.0526,-5.13338 -2.78983,0 -5.05253,2.2979 -5.05253,5.13338 0,2.83549 2.2627,5.13339 5.05253,5.13339 m -14.14933,4.24796 c -2.7898,0 -5.0525,2.2979 -5.0525,5.13338 0,2.83548 2.2627,5.13339 5.0525,5.13339 2.7898,0 5.0526,-2.29791 5.0526,-5.13339 0,-2.83548 -2.2592,-5.13338 -5.0526,-5.13338 m 14.14933,0 c -2.78983,0 -5.05253,2.2979 -5.05253,5.13338 0,2.83548 2.2627,5.13339 5.05253,5.13339 2.7899,0 5.0526,-2.29791 5.0526,-5.13339 0,-2.83548 -2.2627,-5.13338 -5.0526,-5.13338 m -56.59021,14.23363 a 5.0947354,5.0947354 0 0 0 -5.05258,5.13339 c 0,2.83548 2.26277,5.13338 5.05258,5.13338 2.7898,0 5.05257,-2.2979 5.05257,-5.13338 a 5.0947354,5.0947354 0 0 0 -5.05257,-5.13339 m 19.20187,5.27042 c 0,2.83548 -2.2628,5.13338 -5.0526,5.13338 -2.7898,0 -5.0525,-2.2979 -5.0525,-5.13338 0,-2.83549 2.2627,-5.13339 5.0525,-5.13339 2.7898,0 5.0526,2.30143 5.0526,5.13339 m -1.2298,0 c 0,-2.15385 -1.7146,-3.90362 -3.8228,-3.90362 -2.1081,0 -3.8228,1.74978 -3.8228,3.90362 0,2.15384 1.7147,3.90362 3.8228,3.90362 2.1082,0 3.8228,-1.74978 3.8228,-3.90362 m 10.323,-5.13339 c -2.7898,0 -5.0525,2.2979 -5.0525,5.13339 0,2.83548 2.2627,5.13338 5.0525,5.13338 2.7898,0 5.0526,-2.2979 5.0526,-5.13338 0,-2.83549 -2.2628,-5.13339 -5.0526,-5.13339 m 19.19841,5.13339 c 0,2.83548 -2.2628,5.13338 -5.0526,5.13338 -2.7898,0 -5.0525,-2.2979 -5.0525,-5.13338 0,-2.83549 2.2627,-5.13339 5.0525,-5.13339 2.7898,0 5.0526,2.30143 5.0526,5.13339 m -1.2298,0 c 0,-2.15385 -1.7146,-3.90362 -3.8228,-3.90362 -2.1081,0 -3.8228,1.74978 -3.8228,3.90362 0,2.15384 1.7147,3.90362 3.8228,3.90362 2.1082,0 3.8228,-1.74978 3.8228,-3.90362 m 10.32653,-5.13339 c -2.78983,0 -5.05253,2.2979 -5.05253,5.13339 0,2.83548 2.2627,5.13338 5.05253,5.13338 2.7899,0 5.0526,-2.2979 5.0526,-5.13338 0,-2.83549 -2.2627,-5.13339 -5.0526,-5.13339 m -56.59021,14.23716 c -2.78981,0 -5.05258,2.2979 -5.05258,5.13339 0,2.83547 2.26277,5.13337 5.05258,5.13337 2.7898,0 5.05257,-2.2979 5.05257,-5.13337 0,-2.83549 -2.26277,-5.13339 -5.05257,-5.13339 m 19.20187,5.27042 c 0,2.83548 -2.2628,5.13338 -5.0526,5.13338 -2.7898,0 -5.0525,-2.2979 -5.0525,-5.13338 0,-2.83548 2.2627,-5.13339 5.0525,-5.13339 2.7898,0 5.0526,2.29791 5.0526,5.13339 m -1.2298,0 c 0,-2.15384 -1.7146,-3.90362 -3.8228,-3.90362 -2.1081,0 -3.8228,1.74978 -3.8228,3.90362 0,2.15384 1.7147,3.90362 3.8228,3.90362 2.1082,0 3.8228,-1.74978 3.8228,-3.90362 m 15.3756,0 c 0,2.83548 -2.2628,5.13338 -5.0526,5.13338 -2.7898,0 -5.0525,-2.2979 -5.0525,-5.13338 0,-2.83548 2.2627,-5.13339 5.0525,-5.13339 2.7898,0 5.0526,2.29791 5.0526,5.13339 m -1.2298,0 c 0,-2.15384 -1.7146,-3.90362 -3.8228,-3.90362 -2.1081,0 -3.8228,1.74978 -3.8228,3.90362 0,2.15384 1.7147,3.90362 3.8228,3.90362 2.1082,0 3.8228,-1.74978 3.8228,-3.90362 m 1.2298,14.37418 c 0,2.83547 -2.2628,5.13338 -5.0526,5.13338 -2.7898,0 -5.0525,-2.29791 -5.0525,-5.13338 0,-2.83548 2.2627,-5.13338 5.0525,-5.13338 2.7898,0 5.0526,2.2979 5.0526,5.13338 m -1.2298,0 c 0,-2.15384 -1.7146,-3.90362 -3.8228,-3.90362 -2.1081,0 -3.8228,1.74978 -3.8228,3.90362 0,2.15384 1.7147,3.90361 3.8228,3.90361 2.1082,0 3.8228,-1.74977 3.8228,-3.90361 m 15.37561,-14.37418 c 0,2.83548 -2.2628,5.13338 -5.0526,5.13338 -2.7898,0 -5.0525,-2.2979 -5.0525,-5.13338 0,-2.83548 2.2627,-5.13339 5.0525,-5.13339 2.7898,0 5.0526,2.29791 5.0526,5.13339 m -1.2298,0 c 0,-2.15384 -1.7146,-3.90362 -3.8228,-3.90362 -2.1081,0 -3.8228,1.74978 -3.8228,3.90362 0,2.15384 1.7147,3.90362 3.8228,3.90362 2.1082,0 3.8228,-1.74978 3.8228,-3.90362 m 10.32653,-5.13339 c -2.78983,0 -5.05253,2.29791 -5.05253,5.13339 0,2.83548 2.2627,5.13338 5.05253,5.13338 2.7899,0 5.0526,-2.2979 5.0526,-5.13338 0,-2.83548 -2.2627,-5.13339 -5.0526,-5.13339"
       id="path1-7"
       style="opacity:0.5;stroke-width:3.51361" /><path
       fill="currentColor"
       d="m 998.15399,183.45198 a 15.452761,15.452761 0 0 0 2.58581,-1.99169 l 0.443,-0.44642 a 17.169735,17.169735 0 0 0 1.5247,-1.80282 12.362209,12.362209 0 0 0 1.2156,-2.07067 9.2716567,9.2716567 0 0 0 0.8379,-3.15236 c 0.285,-3.72927 -1.9231,-7.43793 -6.85081,-10.4289 l -19.8448,-12.04285 -23.1276,22.16269 -15.0613,14.42945 20.8887,12.6747 a 21.462168,21.462168 0 0 0 11.1088,3.15923 c 4.7938,0 9.385,-1.69294 12.7743,-4.94489 3.6847,-3.53009 4.9106,-8.09724 2.6339,-11.89861 a 9.6150514,9.6150514 0 0 0 -1.3049,-1.70324 17.169735,17.169735 0 0 0 3.7121,0.41207 h 0.031 a 16.482945,16.482945 0 0 0 5.9613,-1.1126 15.452761,15.452761 0 0 0 2.4724,-1.24309 m -19.34,11.50372 c -3.7155,3.561 -9.694,4.0864 -14.5599,1.1332 l -14.4466,-8.76687 12.97,-12.43088 14.6973,8.91796 c 5.2951,3.21074 5.0033,7.64053 1.3427,11.15002 m 1.7169,-15.81332 -13.5915,-8.25178 12.3897,-11.87802 13.3408,8.09725 c 4.9896,3.02187 5.6386,7.11857 2.0295,10.57655 a 11.67542,11.67542 0 0 1 -14.1719,1.45256 m 5.745,36.54407 c -3.7636,3.60564 -8.8802,5.59733 -14.402,5.59733 a 23.797252,23.797252 0 0 1 -12.3278,-3.50263 l -19.6697,-11.92609 v 4.74571 l 20.8887,12.6747 a 21.462168,21.462168 0 0 0 11.1088,3.15923 c 4.7938,0 9.385,-1.69637 12.7743,-4.94488 2.4759,-2.36943 3.846,-5.21617 3.7842,-7.97706 v -0.3434 a 17.169735,17.169735 0 0 1 -2.1565,2.52396 z m 0,-7.49974 c -3.7636,3.60564 -8.8802,5.59046 -14.402,5.59046 a 23.831592,23.831592 0 0 1 -12.3278,-3.49919 l -19.6697,-11.92266 v 4.74571 l 20.8887,12.67813 a 21.462168,21.462168 0 0 0 11.1088,3.15924 c 4.7938,0 9.385,-1.69637 12.7743,-4.94489 2.4759,-2.36941 3.846,-5.21617 3.7842,-7.98049 v -0.3434 a 17.169735,17.169735 0 0 1 -2.1565,2.52739 z m 0,-7.50318 c -3.7636,3.60909 -8.8802,5.59734 -14.402,5.59734 a 23.831592,23.831592 0 0 1 -12.3278,-3.50263 L 939.87659,190.859 v 4.74571 l 20.8887,12.67815 a 21.462168,21.462168 0 0 0 11.1088,3.15579 c 4.7938,0 9.385,-1.69293 12.7743,-4.94146 2.4759,-2.37285 3.846,-5.2196 3.7842,-7.98049 v -0.35025 a 17.169735,17.169735 0 0 1 -2.1565,2.53082 z m 16.09831,4.95175 a 18.0969,18.0969 0 0 1 -11.57921,4.97237 v 5.15092 a 15.693137,15.693137 0 0 0 9.95161,-4.30617 c 2.6922,-2.57546 4.0658,-5.40503 4.0383,-8.20027 v -0.42237 a 18.199919,18.199919 0 0 1 -2.4107,2.81584 z m -16.09831,17.54061 c -3.7636,3.60908 -8.8802,5.59734 -14.402,5.59734 a 23.797252,23.797252 0 0 1 -12.3278,-3.50263 l -19.6698,-11.91923 v 4.74572 l 20.8887,12.67469 a 21.462168,21.462168 0 0 0 11.1088,3.15924 c 4.7938,0 9.385,-1.69294 12.7743,-4.94145 2.4759,-2.37286 3.846,-5.2196 3.7842,-7.9805 v -0.34339 a 17.169735,17.169735 0 0 1 -2.1565,2.52395 z m 16.49331,-40.41755 q -0.1958,0.20604 -0.395,0.39833 a 17.169735,17.169735 0 0 1 -2.0466,1.66546 17.169735,17.169735 0 0 1 -2.23201,1.34612 18.199919,18.199919 0 0 1 -5.048,1.67232 18.886708,18.886708 0 0 1 -2.7196,0.30219 10.301841,10.301841 0 0 1 0.2403,0.94433 10.301841,10.301841 0 0 1 0.2198,2.30763 v 1.85776 h 0.017 a 16.139551,16.139551 0 0 0 4.8762,-1.06452 15.452761,15.452761 0 0 0 5.07541,-3.23821 c 0.1545,-0.14766 0.2884,-0.29876 0.4327,-0.44642 a 15.796156,15.796156 0 0 0 1.5246,-1.80625 12.362209,12.362209 0 0 0 1.2157,-2.06724 9.2716567,9.2716567 0 0 0 0.831,-3.16266 c 0.017,-0.24038 0.041,-0.47732 0.038,-0.71427 v -0.38803 q -0.2061,0.29875 -0.4327,0.59407 a 17.169735,17.169735 0 0 1 -1.5899,1.80282 z m 0,14.98918 c -0.134,0.13736 -0.2507,0.27128 -0.3846,0.4052 a 18.13124,18.13124 0 0 1 -11.57931,4.97236 v 5.13031 a 15.693137,15.693137 0 0 0 9.95161,-4.30273 14.079182,14.079182 0 0 0 3.1661,-4.32677 9.2716567,9.2716567 0 0 0 0.831,-3.16267 q 0.034,-0.36056 0.034,-0.71426 v -0.42238 q -0.2061,0.30906 -0.4327,0.61812 a 17.169735,17.169735 0 0 1 -1.5865,1.80282 m 0,-7.49974 c -0.1339,0.13392 -0.2507,0.27128 -0.3846,0.40177 a 17.169735,17.169735 0 0 1 -2.0432,1.66546 17.169735,17.169735 0 0 1 -2.23891,1.34611 18.371616,18.371616 0 0 1 -7.2972,1.95735 v 5.13375 a 15.693137,15.693137 0 0 0 9.95161,-4.30273 c 0.1545,-0.14766 0.2885,-0.29876 0.4361,-0.44642 a 15.796156,15.796156 0 0 0 1.5247,-1.80625 12.362209,12.362209 0 0 0 1.2053,-2.07067 9.2716567,9.2716567 0 0 0 0.831,-3.15923 q 0.034,-0.364 0.034,-0.71427 v -0.42237 q -0.2026,0.30905 -0.4361,0.61811 a 17.169735,17.169735 0 0 1 -1.583,1.80282 z"
       id="path1-70"
       style="opacity:0.5;stroke-width:3.43395" /><path
       fill="currentColor"
       d="m 714.02722,151.51653 c -6.38079,4.12074 -7.57838,9.57106 -7.57838,9.57106 0,0 10e-4,0.13255 -0.0652,0.26528 -0.3992,0.067 -0.66516,0.19959 -0.9974,0.2659 -0.46495,0.13273 -0.93042,0.26593 -1.39589,0.53184 l -1.3959,0.59879 c -0.93043,0.46487 -1.86086,0.86342 -2.7918,1.39525 -0.86416,0.53183 -1.72762,0.99672 -2.5916,1.59486 a 0.83702471,0.83702471 0 0 1 -0.199,-0.13203 c -8.57371,-3.32298 -16.15071,0.66383 -16.15071,0.66383 -0.66447,9.17187 3.45558,14.82178 4.25345,15.88544 -0.19968,0.59816 -0.39919,1.12934 -0.59888,1.66117 a 34.124853,34.124853 0 0 0 -1.39452,6.38071 c -0.067,0.2659 -0.067,0.6651 -0.13393,0.93039 -7.90924,3.92112 -10.23419,11.96302 -10.23419,11.96302 6.57962,7.577 14.28934,8.04186 14.28934,8.04186 0.93043,1.72877 2.12596,3.4569 3.38931,4.98545 0.53123,0.66446 1.13063,1.26197 1.66237,1.92644 -2.3926,6.84558 0.39868,12.62814 0.39868,12.62814 7.37733,0.26591 12.22829,-3.19036 13.22499,-4.05443 0.73144,0.1996 1.46287,0.46616 2.19361,0.66576 a 30.454822,30.454822 0 0 0 6.84626,0.99734 h 2.99011 c 3.45627,4.98482 9.57093,5.64864 9.57093,5.64864 4.32042,-4.58625 4.58638,-9.03858 4.58638,-10.10225 v -0.39919 c 0.86398,-0.66513 1.72745,-1.32894 2.65839,-2.06037 1.72813,-1.52854 3.19048,-3.38931 4.51993,-5.25008 0.13221,-0.13324 0.199,-0.3992 0.398,-0.53183 4.91844,0.26592 8.30775,-3.05707 8.30775,-3.05707 -0.7984,-5.11808 -3.72154,-7.57701 -4.32025,-8.04188 l -0.067,-0.067 -0.067,-0.067 -0.067,-0.0663 c 0,-0.26591 0.067,-0.59879 0.067,-0.93039 0.067,-0.5988 0.067,-1.12997 0.067,-1.66116 v -2.19364 c 0,-0.13273 0,-0.26593 -0.067,-0.46488 l -0.067,-0.4655 -0.067,-0.46552 c -0.067,-0.59815 -0.19969,-1.12934 -0.26596,-1.66118 -0.53123,-2.193 -1.39453,-4.32033 -2.45819,-6.11543 -1.19639,-1.92709 -2.59229,-3.52259 -4.1877,-4.9848 -1.5949,-1.3959 -3.38931,-2.59157 -5.25016,-3.38931 -1.92765,-0.86407 -3.78851,-1.39526 -5.78191,-1.59421 -0.93095,-0.13324 -1.99461,-0.13324 -2.92573,-0.13324 h -1.52845 c -0.53123,0.0663 -0.9955,0.13204 -1.46166,0.19831 -1.9934,0.3992 -3.78781,1.13063 -5.38271,2.06101 -1.59541,0.93103 -2.99131,2.19366 -4.1877,3.58956 -1.19621,1.39524 -2.06037,2.85747 -2.65907,4.45297 a 15.002058,15.002058 0 0 0 -0.99671,4.78455 v 1.72815 c 0,0.19958 0,0.39918 0.067,0.5988 0.067,0.7971 0.19952,1.52852 0.46479,2.25995 0.46547,1.46159 1.13063,2.79052 1.99478,3.92115 a 12.877303,12.877303 0 0 0 2.92315,2.79115 c 1.13062,0.73143 2.19429,1.26197 3.3905,1.59484 1.19639,0.33289 2.25937,0.53185 3.32235,0.46489 h 1.52982 c 0.13221,0 0.26528,-0.0651 0.39851,-0.0651 0.13221,0 0.19969,-0.067 0.39868,-0.067 0.19952,-0.0663 0.53106,-0.13324 0.73075,-0.19962 0.46478,-0.13324 0.86398,-0.39918 1.32894,-0.53184 0.46547,-0.1996 0.79839,-0.46486 1.13062,-0.66446 0.067,-0.0663 0.199,-0.13324 0.26527,-0.19958 0.3992,-0.26593 0.46548,-0.79711 0.13393,-1.19632 -0.26596,-0.26591 -0.73143,-0.3992 -1.13063,-0.19958 -0.067,0.0663 -0.13221,0.067 -0.26527,0.13324 -0.26596,0.13255 -0.66447,0.2659 -0.93043,0.39854 -0.3992,0.0663 -0.73074,0.1996 -1.12925,0.26656 -0.19969,0 -0.3992,0.0656 -0.59888,0.0656 h -1.66118 c -0.067,0 -0.19951,6.3e-4 -0.26647,-0.0656 -0.79771,-0.13272 -1.66117,-0.3992 -2.45836,-0.73207 -0.79771,-0.39856 -1.59541,-0.86279 -2.25988,-1.5279 a 10.237456,10.237456 0 0 1 -1.86086,-2.25996 c -0.53175,-0.86343 -0.79839,-1.86077 -0.93094,-2.79117 -0.067,-0.53183 -0.13393,-0.99797 -0.067,-1.52917 v -0.79774 c 0,-0.26592 0.067,-0.5312 0.13392,-0.7971 0.39851,-2.19303 1.46149,-4.32034 3.12335,-5.9152 0.46547,-0.46552 0.86415,-0.79711 1.3959,-1.12934 0.53191,-0.3992 0.99601,-0.66447 1.52793,-0.86407 0.53175,-0.1996 1.13063,-0.4655 1.66237,-0.59879 0.59889,-0.13272 1.19639,-0.26656 1.72814,-0.26656 0.26596,0 0.59819,-0.0651 0.86415,-0.0651 h 0.79702 c 0.66447,0.0663 1.32963,0.13204 1.92782,0.26528 1.26266,0.26589 2.45956,0.73077 3.65578,1.3959 2.32633,1.32893 4.31905,3.32234 5.51543,5.71558 0.59871,1.1963 0.99671,2.45958 1.26267,3.85546 0.067,0.3992 0.067,0.66319 0.13392,0.99607 v 1.79444 c 0,0.39922 -0.067,0.73144 -0.067,1.13063 -0.067,0.39922 -0.0652,0.73014 -0.13221,1.12936 -0.067,0.39854 -0.13392,0.73141 -0.2002,1.12996 -0.1322,0.73143 -0.46495,1.39591 -0.66395,2.1267 -0.53175,1.39588 -1.26387,2.72482 -2.12785,3.85416 -1.72813,2.39325 -4.18649,4.38795 -6.84437,5.65058 -1.39659,0.59814 -2.79248,1.12997 -4.25466,1.32894 a 12.233438,12.233438 0 0 1 -2.19361,0.19894 h -1.12994 c -0.39919,0 -0.79719,0.001 -1.19638,-0.0656 -1.5949,-0.13272 -3.12266,-0.4662 -4.65129,-0.86475 -1.52913,-0.46553 -2.99199,-0.99671 -4.38789,-1.72814 -2.79112,-1.46157 -5.24948,-3.58827 -7.24357,-5.98087 -0.93026,-1.26261 -1.86206,-2.59284 -2.5928,-3.92243 -0.73075,-1.32957 -1.26267,-2.85745 -1.66118,-4.31968 -0.46547,-1.46157 -0.66447,-2.99076 -0.73074,-4.51993 v -2.3263 c 0,-0.73077 0.0652,-1.52724 0.199,-2.32435 0.067,-0.79839 0.19882,-1.5298 0.39851,-2.32691 0.1322,-0.79776 0.39919,-1.52919 0.59871,-2.32695 0.46495,-1.52853 0.92974,-2.99011 1.59421,-4.38601 1.32893,-2.79115 2.99079,-5.25071 4.98489,-7.24477 a 16.096629,16.096629 0 0 1 1.59609,-1.3959 c 0.19969,-0.19959 0.73075,-0.6651 1.32894,-0.99733 0.5982,-0.33225 1.19639,-0.73143 1.86086,-0.99736 0.26647,-0.13272 0.59871,-0.26591 0.93094,-0.46487 0.13221,-0.0663 0.26459,-0.13255 0.53055,-0.19895 0.13392,-0.0663 0.26664,-0.13323 0.53191,-0.19959 0.66499,-0.26591 1.33014,-0.5312 1.99461,-0.73078 0.13393,-0.0663 0.3992,-0.067 0.53192,-0.13324 0.13393,-0.0663 0.39782,-0.0656 0.53055,-0.13204 0.39919,-0.0663 0.66498,-0.13392 0.9979,-0.26656 0.13221,-0.067 0.39851,-0.067 0.53123,-0.13323 0.13393,0 0.3992,-0.0656 0.53244,-0.0656 0.13392,0 0.39919,-0.0663 0.53192,-0.0663 l 0.26527,-0.067 0.26527,-0.0663 c 0.13221,0 0.3992,-0.067 0.53175,-0.067 0.19968,0 0.39919,-0.067 0.59888,-0.067 0.1322,0 0.4641,-0.0651 0.5975,-0.0651 0.13221,0 0.2002,0 0.3992,-0.067 h 0.46547 c 0.19951,0 0.39782,0 0.59751,-0.0663 h 2.992 c 1.32894,0.0663 2.65787,0.1996 3.85426,0.46553 2.45957,0.46487 4.91776,1.26261 7.0444,2.32627 2.12733,0.9967 4.12074,2.32501 5.71563,3.72154 0.067,0.0658 0.2002,0.13324 0.26665,0.26593 0.067,0.0663 0.19951,0.13255 0.26527,0.26527 0.19951,0.13324 0.3992,0.3992 0.59871,0.53183 0.19969,0.13324 0.3992,0.3992 0.59888,0.53247 0.13221,0.19962 0.39782,0.39793 0.53055,0.59687 0.73143,0.73143 1.39641,1.52917 1.99461,2.25997 a 26.656018,26.656018 0 0 1 2.85876,4.51993 c 0.0652,0.0663 0.0652,0.13324 0.1322,0.26656 0.067,0.0663 0.067,0.13204 0.13393,0.26527 0.067,0.13255 0.1322,0.3992 0.26527,0.53184 0.067,0.13255 0.13392,0.39919 0.19951,0.53183 0.067,0.13324 0.13393,0.3992 0.2002,0.53183 0.26596,0.66511 0.53192,1.32894 0.73092,1.99341 0.39919,0.9967 0.59802,1.9271 0.7977,2.65916 0.067,0.26527 0.3992,0.53118 0.66516,0.53118 0.39851,0 0.59682,-0.26654 0.59682,-0.6651 -0.19969,-1.13003 -0.19831,-2.05913 -0.26527,-3.18911 q -0.19969,-2.0945 -0.79719,-4.78649 c -0.3992,-1.79446 -1.19759,-3.65523 -2.12802,-5.7156 -0.99671,-1.99341 -2.2592,-4.12074 -3.92105,-6.04847 -0.66447,-0.79774 -1.39522,-1.52789 -2.12613,-2.32564 1.19638,-4.58561 -1.3959,-8.64066 -1.3959,-8.64066 -4.45297,-0.26526 -7.24529,1.39591 -8.24199,2.12668 -0.13221,-0.0663 -0.398,-0.13203 -0.53055,-0.19831 -0.73143,-0.26591 -1.52931,-0.59879 -2.32633,-0.86407 -0.79839,-0.19959 -1.59558,-0.53245 -2.39328,-0.66512 -0.79771,-0.19959 -1.66118,-0.39918 -2.59212,-0.53245 -0.13221,0 -0.26596,-0.0663 -0.46496,-0.0663 -1.86051,-6.11498 -7.44342,-8.77286 -7.44342,-8.77286"
       id="path1-931"
       style="stroke-width:0.643865" /><path
       fill="currentColor"
       d="m 813.34583,186.1987 c -1.43176,0 -2.5954,-1.1611 -2.5954,-2.58907 0,-1.42795 1.16364,-2.59077 2.5954,-2.59077 1.43049,0 2.59414,1.16282 2.59414,2.59077 0,1.42754 -1.16365,2.58907 -2.59414,2.58907 m -6.57403,15.74556 c -1.4305,0 -2.59372,-1.1611 -2.59372,-2.58908 0,-1.42794 1.16322,-2.58907 2.59372,-2.58907 1.43049,0 2.59542,1.16113 2.59542,2.58907 0,1.42798 -1.16493,2.58908 -2.59542,2.58908 m -15.77722,-2.62369 c -1.42923,0 -2.59245,-1.16112 -2.59245,-2.58907 0,-1.42797 1.16322,-2.59076 2.59245,-2.59076 1.43218,0 2.5954,1.16279 2.5954,2.59076 0,1.42752 -1.16322,2.58907 -2.5954,2.58907 m -6.57232,14.4337 c -1.42923,0 -2.59414,-1.16111 -2.59414,-2.58908 0,-1.42795 1.16491,-2.58907 2.59414,-2.58907 1.43175,0 2.59497,1.16112 2.59497,2.58907 0,1.42797 -1.16322,2.58908 -2.59497,2.58908 m 28.92357,-35.42919 c -2.91927,0 -5.29469,2.37078 -5.29469,5.28455 0,1.78601 0.89764,3.3609 2.26227,4.3185 l -2.47,6.25314 a 5.3200155,5.3200155 0 0 0 -1.07161,-0.10899 c -2.32138,0 -4.27712,1.50861 -4.98814,3.58975 l -5.52692,-1.25401 c -0.17136,-2.76008 -2.45227,-4.96111 -5.26216,-4.96111 -2.91755,0 -5.29173,2.37077 -5.29173,5.28454 0,1.36166 0.532,2.59286 1.3832,3.53063 l -2.41174,5.64513 c -0.0863,-0.005 -0.16596,-0.0254 -0.25205,-0.0254 -2.918,0 -5.29342,2.36952 -5.29342,5.28326 0,2.91251 2.37542,5.28329 5.29342,5.28329 2.91924,0 5.29468,-2.37078 5.29468,-5.28329 0,-1.8696 -0.98293,-3.50528 -2.45524,-4.44517 l 2.128,-4.98012 c 0.5109,0.16304 1.04205,0.27446 1.60488,0.27446 2.08283,0 3.87094,-1.216 4.73313,-2.9636 l 5.85497,1.32832 c 0.47879,2.42483 2.622,4.25939 5.18912,4.25939 2.91926,0 5.29468,-2.36951 5.29468,-5.28328 0,-1.57489 -0.70848,-2.97415 -1.80712,-3.944 l 2.59543,-6.56851 c 0.16461,0.0158 0.32258,0.0498 0.49104,0.0498 2.91755,0 5.29342,-2.37077 5.29342,-5.28286 0,-2.91376 -2.37544,-5.28454 -5.29342,-5.28454 m -14.62582,49.53568 c -13.14804,0 -22.97191,-3.94695 -22.97191,-7.47631 v -50.42489 c 4.4726,3.6345 13.94013,5.5552 23.00019,5.5552 9.01955,0 18.44695,-1.90465 22.94362,-5.50791 v 50.3776 c 0,3.52979 -9.82513,7.47631 -22.9719,7.47631 m 0.0284,-70.27404 c 13.52045,0 22.94362,4.0141 22.94362,7.61777 0,3.60155 -9.42317,7.61605 -22.94362,7.61605 -13.52171,0 -22.94362,-4.01407 -22.94362,-7.61605 0,-3.60367 9.42191,-7.61777 22.94362,-7.61777 m 25.6429,7.61777 c 0,-6.69773 -13.21138,-10.31196 -25.6429,-10.31196 -12.43152,0 -25.6429,3.61423 -25.6429,10.31196 0,0.0113 0.002,0.0227 0.002,0.0338 h -0.0594 v 55.14659 c 0,6.60569 13.22616,10.17011 25.67119,10.17011 12.44503,0 25.67118,-3.56442 25.67118,-10.17052 v -55.14661 h -0.002 c 0,-0.0113 0.002,-0.0227 0.002,-0.0338"
       id="path3-4"
       style="opacity:0.5;stroke-width:0.422223" /><path
       fill="currentColor"
       d="m 1158.9464,155.77585 a 7.476235,7.476235 0 0 1 7.4762,7.4762 c 0,2.7662 -1.4952,5.196 -3.7381,6.467 v 4.7474 h 3.7381 a 26.166822,26.166822 0 0 1 26.1669,26.1668 h 3.7381 a 3.7381175,3.7381175 0 0 1 3.7381,3.7381 v 11.2144 a 3.7381175,3.7381175 0 0 1 -3.7381,3.7381 h -3.7381 v 3.7381 a 7.476235,7.476235 0 0 1 -7.4763,7.4762 h -52.3336 a 7.476235,7.476235 0 0 1 -7.4763,-7.4762 v -3.7381 h -3.7381 a 3.7381175,3.7381175 0 0 1 -3.7381,-3.7381 v -11.2144 a 3.7381175,3.7381175 0 0 1 3.7381,-3.7381 h 3.7381 a 26.166822,26.166822 0 0 1 26.1669,-26.1668 h 3.7381 v -4.7474 c -2.2429,-1.271 -3.7381,-3.7008 -3.7381,-6.467 a 7.476235,7.476235 0 0 1 7.4762,-7.4762 m -16.8215,41.1193 a 9.3452937,9.3452937 0 0 0 -9.3453,9.3453 9.3452937,9.3452937 0 0 0 9.3453,9.3453 9.3452937,9.3452937 0 0 0 9.3453,-9.3453 9.3452937,9.3452937 0 0 0 -9.3453,-9.3453 m 33.643,0 a 9.3452937,9.3452937 0 0 0 -9.3453,9.3453 9.3452937,9.3452937 0 0 0 9.3453,9.3453 9.3452937,9.3452937 0 0 0 9.3453,-9.3453 9.3452937,9.3452937 0 0 0 -9.3453,-9.3453"
       id="path1-56"
       style="opacity:0.5;fill:currentColor;fill-opacity:1;stroke-width:3.73812" /><g
       fill="none"
       id="g2"
       transform="matrix(3.3925888,0,0,3.3925888,1019.6717,153.30209)"
       style="opacity:0.5;fill:currentColor;fill-opacity:1"><path
         d="m 12.594,23.258 -0.012,0.002 -0.071,0.035 -0.02,0.004 -0.014,-0.004 -0.071,-0.036 q -0.016,-0.004 -0.024,0.006 l -0.004,0.01 -0.017,0.428 0.005,0.02 0.01,0.013 0.104,0.074 0.015,0.004 0.012,-0.004 0.104,-0.074 0.012,-0.016 0.004,-0.017 -0.017,-0.427 Q 12.606,23.26 12.594,23.258 m 0.264,-0.113 -0.014,0.002 -0.184,0.093 -0.01,0.01 -0.003,0.011 0.018,0.43 0.005,0.012 0.008,0.008 0.201,0.092 q 0.019,0.005 0.029,-0.008 l 0.004,-0.014 -0.034,-0.614 q -0.005,-0.019 -0.02,-0.022 m -0.715,0.002 a 0.02,0.02 0 0 0 -0.027,0.006 l -0.006,0.014 -0.034,0.614 q 10e-4,0.018 0.017,0.024 l 0.015,-0.002 0.201,-0.093 0.01,-0.008 0.003,-0.011 0.018,-0.43 -0.003,-0.012 -0.01,-0.01 z"
         id="path1-29"
         style="fill:currentColor;fill-opacity:1" /><path
         fill="currentColor"
         d="m 9.112,3.161 a 4.498,4.498 0 0 1 7.65,3.658 4.5,4.5 0 0 1 3.662,7.656 l -5.303,5.304 0.707,0.707 A 1,1 0 1 1 14.414,21.9 l -0.707,-0.707 a 2,2 0 0 1 0,-2.83 l 5.304,-5.302 A 2.5003296,2.5003296 0 0 0 15.475,9.525 l -3.889,3.89 a 1,1 0 0 1 -1.173,0.178 l -0.004,-0.002 a 1,1 0 0 1 -0.242,-1.593 l 3.89,-3.89 A 2.498,2.498 0 0 0 10.527,4.575 L 4.514,10.588 A 1.0002026,1.0002026 0 0 1 3.1,9.173 Z m 2.474,2.475 A 1,1 0 0 1 13,7.05 l -3.89,3.89 a 2.5003297,2.5003297 0 0 0 3.537,3.535 l 3.888,-3.889 A 1.0002026,1.0002026 0 1 1 17.95,12 l -3.888,3.889 A 4.5003811,4.5003811 0 0 1 7.697,9.525 Z"
         id="path2"
         style="fill:currentColor;fill-opacity:1" /></g><rect
       style="fill:#000000;fill-opacity:0;fill-rule:evenodd;stroke:currentColor;stroke-width:1.80308;stroke-linejoin:round;stroke-dasharray:none;stroke-dashoffset:0;stroke-opacity:1"
       id="rect150-6"
       width="595.63654"
       height="270.3989"
       x="640.84552"
       y="13.508507"
       ry="52.424274" /></g></svg>
