<?xml version="1.0" encoding="UTF-8" standalone="no"?>
<svg
   version="1.1"
   viewBox="0 0 1262.7344 733.6951"
   width="1262.7344"
   height="733.69513"
   id="svg139"
   xml:space="preserve"
   xmlns="http://www.w3.org/2000/svg"
   xmlns:svg="http://www.w3.org/2000/svg"
   xmlns:rdf="http://www.w3.org/1999/02/22-rdf-syntax-ns#"
   xmlns:cc="http://creativecommons.org/ns#"><metadata
     id="metadata1"><rdf:RDF><cc:Work
         rdf:about=""><cc:license
           rdf:resource="http://creativecommons.org/licenses/by-sa/4.0/" /></cc:Work><cc:License
         rdf:about="http://creativecommons.org/licenses/by-sa/4.0/"><cc:permits
           rdf:resource="http://creativecommons.org/ns#Reproduction" /><cc:permits
           rdf:resource="http://creativecommons.org/ns#Distribution" /><cc:requires
           rdf:resource="http://creativecommons.org/ns#Notice" /><cc:requires
           rdf:resource="http://creativecommons.org/ns#Attribution" /><cc:permits
           rdf:resource="http://creativecommons.org/ns#DerivativeWorks" /><cc:requires
           rdf:resource="http://creativecommons.org/ns#ShareAlike" /></cc:License></rdf:RDF></metadata><defs
     id="defs27" /><g
     stroke-linecap="round"
     id="dashboards-to-alerts"
     style="opacity:0.5;fill:currentColor;fill-opacity:1"
     class="arrow"
     transform="translate(-613.17694,-14.518897)"><g
       stroke-opacity="0.4"
       fill-opacity="0.4"
       transform="translate(1216.0665,150.36361)"
       id="g40"
       style="fill:currentColor;fill-opacity:1"><path
         d="m 0.06,-0.05 c 14.76,0 74.14,0.91 88.91,1.15 M -1.37,-1.13 c 14.54,0.16 74.38,0.26 89.21,0.36"
         stroke="currentColor"
         stroke-width="4"
         fill="none"
         id="path39"
         style="fill:currentColor;fill-opacity:1" /></g><g
       stroke-opacity="0.4"
       fill-opacity="0.4"
       transform="translate(1216.0665,150.36361)"
       id="g41"
       style="fill:currentColor;fill-opacity:1"><path
         d="M 64.31,7.69 C 71.98,4.27 80.69,0.98 87.84,-0.77 M 64.31,7.69 C 72.78,4.41 81.96,2.03 87.84,-0.77"
         stroke="currentColor"
         stroke-width="4"
         fill="none"
         id="path40"
         style="fill:currentColor;fill-opacity:1" /></g><g
       stroke-opacity="0.4"
       fill-opacity="0.4"
       transform="translate(1216.0665,150.36361)"
       id="g42"
       style="fill:currentColor;fill-opacity:1"><path
         d="m 64.38,-9.42 c 7.8,2.28 16.49,4.69 23.46,8.65 M 64.38,-9.42 c 8.46,2.98 17.62,6.85 23.46,8.65"
         stroke="currentColor"
         stroke-width="4"
         fill="none"
         id="path41"
         style="fill:currentColor;fill-opacity:1" /></g></g><g
     stroke-linecap="round"
     id="dashboards-to-cdviz-db"
     class="arrow"
     transform="translate(-639.94395,-12.606967)"><g
       transform="translate(929.49679,285.49219)"
       id="g49"><path
         d="M 0.79,0.5 C 1.14,23.59 3.13,115.81 3.25,138.78 M -0.26,-0.28 c 0.18,23.24 2.37,117.19 3.07,140.45"
         stroke="currentColor"
         stroke-width="4"
         fill="none"
         id="path48" /></g><g
       transform="translate(929.49679,285.49219)"
       id="g50"><path
         d="m -6.34,116.91 c 4.49,10.72 6.8,16.9 9.15,23.26 m -9.15,-23.26 c 3.03,4.73 5.12,11.9 9.15,23.26"
         stroke="currentColor"
         stroke-width="4"
         fill="none"
         id="path49" /></g><g
       transform="translate(929.49679,285.49219)"
       id="g51"><path
         d="m 10.75,116.47 c -2.22,11 -6.63,17.36 -7.94,23.7 m 7.94,-23.7 c -1.07,4.68 -3.08,11.95 -7.94,23.7"
         stroke="currentColor"
         stroke-width="4"
         fill="none"
         id="path50" /></g></g><g
     id="cdviz-db"
     transform="translate(-639.94395,-12.606967)"><g
       stroke-linecap="round"
       id="g45"><g
         transform="translate(790.00441,451.183)"
         id="g44"><path
           d="m -1.17,0.8 c -0.12,36.65 -0.79,176.52 0.38,220.24 1.16,43.71 0.3,32.76 6.61,42.04 6.32,9.29 17.69,9.45 31.29,13.67 13.6,4.23 33.08,9.05 50.32,11.71 17.24,2.66 36.48,4.14 53.13,4.25 16.65,0.11 32.12,-1.87 46.79,-3.6 14.68,-1.73 27.33,-2.21 41.25,-6.79 13.91,-4.57 34.44,-10.64 42.21,-20.65 7.78,-10.02 3.19,-1.06 4.44,-39.44 1.26,-38.37 3.19,-153.5 3.1,-190.81 -0.09,-37.31 2.96,-24.96 -3.64,-33.05 -6.59,-8.08 -23.46,-11.06 -35.92,-15.44 -12.46,-4.39 -23.89,-8.8 -38.83,-10.87 -14.95,-2.07 -37.23,-1.4 -50.85,-1.55 -13.62,-0.15 -14.56,-0.21 -30.86,0.65 -16.29,0.87 -47.19,-0.42 -66.93,4.53 C 31.57,-19.36 8.15,-3.29 -0.21,0.85 M 0.41,0.17 c 0.27,37.28 0.23,178.39 1.09,221.9 0.86,43.51 -1.82,29.87 4.07,39.16 5.88,9.29 17.27,11.96 31.22,16.55 13.95,4.6 35.01,8.6 52.47,11.01 17.46,2.42 35.79,3.6 52.3,3.48 16.5,-0.12 31.85,-2.61 46.72,-4.22 14.88,-1.61 28.52,-0.92 42.51,-5.45 13.99,-4.53 33.84,-11.62 41.41,-21.74 7.58,-10.11 3.46,-0.37 4.03,-38.96 0.57,-38.58 -0.21,-155.15 -0.6,-192.54 -0.4,-37.38 4.36,-23.93 -1.78,-31.76 -6.14,-7.83 -22.57,-10.85 -35.06,-15.21 -12.49,-4.37 -24.86,-8.95 -39.85,-10.99 -15,-2.05 -36.83,-0.92 -50.12,-1.28 -13.28,-0.37 -13.21,-1.9 -29.6,-0.9 -16.38,1.01 -48.56,1.51 -68.7,6.92 C 30.39,-18.46 6.75,-2.49 -1.6,1.67"
           stroke="currentColor"
           stroke-width="1"
           fill="none"
           id="path43" /></g></g><g
       stroke-linecap="round"
       transform="translate(788.98393,417.50528)"
       id="g46"><path
         d="m 192.47,2.45 c 15.26,1.19 30.23,4.24 42.34,7.57 12.11,3.33 23.29,8.31 30.3,12.42 7.01,4.11 10.79,7.97 11.77,12.26 0.99,4.28 -0.83,8.98 -5.85,13.46 -5.01,4.48 -13.62,9.6 -24.23,13.44 -10.6,3.84 -24.98,7.27 -39.42,9.62 -14.43,2.35 -30.61,3.99 -47.2,4.45 -16.59,0.46 -35.99,-0.48 -52.34,-1.69 C 91.49,72.77 75.97,71.03 62.07,68.42 48.18,65.8 34.09,61.93 24.47,58.29 14.85,54.65 8.13,50.7 4.36,46.59 0.59,42.48 -0.13,38.13 1.84,33.62 3.81,29.12 8.24,23.5 16.15,19.56 24.07,15.61 36.49,12.83 49.32,9.96 62.15,7.08 77.44,4.03 93.14,2.3 c 15.71,-1.73 33.37,-2.89 50.39,-2.71 17.01,0.19 42.76,2.84 51.71,3.81 8.95,0.98 2.87,1.6 1.99,2.06 m -0.08,-1.45 c 15.7,1.2 30.45,3.24 42.08,6.37 11.62,3.13 21.35,8.09 27.67,12.41 6.33,4.33 10.09,8.72 10.26,13.53 0.17,4.8 -3.7,11.14 -9.26,15.3 -5.55,4.16 -13.16,6.5 -24.06,9.68 -10.91,3.18 -26.45,7.08 -41.35,9.41 -14.91,2.33 -31.94,3.82 -48.07,4.56 -16.14,0.75 -32.94,1.2 -48.75,-0.09 C 89.86,73.9 73.35,70.43 59.56,67.59 45.76,64.75 32.51,61.58 22.9,58.15 13.28,54.71 5.27,51.49 1.87,46.98 -1.54,42.47 -0.2,36.06 2.5,31.1 5.19,26.14 9.94,20.89 18.02,17.24 26.11,13.58 38.12,11.61 51,9.16 63.87,6.71 79.31,4.18 95.29,2.53 c 15.97,-1.64 34.9,-3.25 51.56,-3.24 16.66,0.02 40.34,2.69 48.37,3.32 8.03,0.64 0.8,-0.15 -0.19,0.5"
         stroke="currentColor"
         stroke-width="1"
         fill="none"
         id="path45" /></g><g
       stroke-opacity="0.4"
       fill-opacity="0.4"
       stroke-linecap="round"
       transform="translate(799.13341,429.63633)"
       id="g47"><path
         d="m 32,0 c 47.66,-3.39 91.97,-2.72 197.11,0 M 32,0 c 57.84,-1.42 114.07,-0.89 197.11,0 m 0,0 c 19.43,1.84 32.65,11.05 32,32 m -32,-32 c 23.59,2.26 34.01,9.4 32,32 m 0,0 c -0.29,65.08 1.35,133.16 0,252.21 m 0,-252.21 c 1.35,95.07 2.28,189.35 0,252.21 m 0,0 c 0.38,22.47 -11.52,30.79 -32,32 m 32,-32 c -0.01,19.92 -8.45,31.75 -32,32 m 0,0 c -47.22,-0.63 -92.05,0.23 -197.11,0 m 197.11,0 c -44.19,-0.46 -89.64,0.64 -197.11,0 m 0,0 c -20.47,-1.13 -33.36,-10.77 -32,-32 m 32,32 c -22.27,0.5 -29.89,-8.96 -32,-32 m 0,0 C 0.73,183.63 2.44,86.69 0,32 M 0,284.21 C 0.45,220.13 0.15,155.5 0,32 m 0,0 C -0.42,9.62 9.05,-1.16 32,0 M 0,32 C -0.38,9.06 8.56,-0.58 32,0"
         stroke="currentColor"
         stroke-width="0.5"
         fill="none"
         id="path46" /></g><g
       transform="translate(1173.4584,495.25072)"
       id="g56"><text
         x="-65.005592"
         y="25.267717"
         font-family="Excalifont, Xiaolai, 'Comic Sans MS', sans-serif"
         font-size="20px"
         fill="currentColor"
         text-anchor="start"
         style="font-size:21.3333px;white-space:pre"
         direction="ltr"
         dominant-baseline="alphabetic"
         id="text52"><tspan
           id="tspan1"
           x="-65.005592"
           y="25.267717">events &amp; information on</tspan><tspan
           id="tspan2"
           x="-65.005592"
           y="51.934341">- artifacts</tspan><tspan
           x="-65.005592"
           y="78.600967"
           id="tspan3">- deployments</tspan><tspan
           x="-65.005592"
           y="105.26759"
           id="tspan4">- pipelines</tspan><tspan
           x="-65.005592"
           y="131.93422"
           id="tspan5">- ...</tspan></text></g><path
       fill="currentColor"
       fill-rule="evenodd"
       d="m 980.20739,608.91884 c -0.50283,-3.26155 -3.24232,-5.39756 -6.42919,-5.54173 -1.15351,-0.0524 -2.32489,0.0683 -3.47482,0.21461 -1.38956,0.17675 -2.76214,0.48956 -4.14813,0.69633 -0.95767,0.14308 -1.92905,0.20894 -2.88584,0.3074 l -0.0298,-0.124 c 1.78599,-3.37332 3.64708,-6.70977 5.3371,-10.13113 1.29538,-2.62444 2.40417,-5.3439 3.54991,-8.04097 1.89569,-4.4687 3.41013,-9.076 4.66438,-13.7582 1.20149,-4.4832 2.22981,-9.01563 2.5529,-13.6665 0.12818,-1.85768 0.22057,-3.72319 0.20865,-5.5831 0,-1.48321 -0.1699,-2.9687 -0.31744,-4.44744 -0.16691,-1.6945 -0.67958,-3.30068 -1.38807,-4.84652 -0.93443,-2.03651 -2.38301,-3.7075 -3.90759,-5.29469 -1.22057,-1.27087 -2.56305,-2.42885 -3.89418,-3.58568 -1.89807,-1.65091 -4.0316,-2.96869 -6.24829,-4.13898 a 35.991004,35.991004 0 0 0 -7.92457,-3.07377 c -1.66885,-0.42584 -3.37555,-0.74217 -5.06557,-1.07973 -0.60805,-0.1228 -1.21729,-0.37666 -1.82533,-0.37666 h -11.44678 c -0.41342,0 -0.82354,0.21342 -1.24053,0.26051 -2.74069,0.30516 -5.44888,0.82154 -8.07898,1.63635 -0.9836,0.30517 -1.88226,0.11297 -2.81668,0.0269 -0.71655,-0.0658 -1.42057,-0.25812 -2.13711,-0.29388 -2.72966,-0.13622 -5.4623,-0.33647 -8.19075,-0.30741 -2.6143,0.0269 -5.20208,0.45718 -7.73263,1.17587 -2.11802,0.60133 -4.19015,1.3357 -6.08822,2.44896 -0.81251,0.47616 -1.45633,0.38674 -2.29686,0.14426 -2.82444,-0.8148 -5.66914,-1.58046 -8.53829,-2.22316 -1.78837,-0.40014 -3.62712,-0.59909 -5.45364,-0.79025 a 63.710783,63.710783 0 0 0 -5.27332,-0.32861 c -1.71922,-0.037 -3.45037,-0.0358 -5.16184,0.11625 a 33.755538,33.755538 0 0 0 -8.00058,1.69114 26.602047,26.602047 0 0 0 -7.92041,4.32003 c -2.42205,1.91692 -4.36452,4.25746 -5.92726,6.92994 -1.6465,2.82006 -2.77526,5.83904 -3.47719,9.01007 -0.38003,1.71793 -0.62027,3.48395 -0.88078,5.22875 -0.0805,0.54321 0.81819,1.08643 -0.29955,1.62741 v 7.59388 c 1.11774,0.50522 0.23249,1.00931 0.29806,1.51565 0.15499,1.2172 0.2921,2.44447 0.49866,3.65275 0.32518,1.91243 0.71088,3.81928 1.10432,5.71942 a 363.26324,363.26324 0 0 0 1.72787,7.94822 c 0.44262,1.9225 0.94693,3.83383 1.47451,5.73508 0.80566,2.90386 1.59939,5.81333 2.51028,8.68478 0.84619,2.66804 1.8152,5.29806 2.77645,7.9281 1.33114,3.6382 2.92519,7.15906 4.83635,10.53351 1.65336,2.92176 3.54217,5.65797 6.076,7.90908 1.67004,1.48322 3.52876,2.62331 5.69269,3.19335 1.70015,0.44709 3.42801,0.50074 5.1684,0.14426 a 12.295064,12.295064 0 0 0 5.39194,-2.58306 c 0.18182,-0.14993 0.38241,-0.26379 0.59792,0.0119 0.82175,1.04061 1.9216,1.73472 3.07153,2.33493 3.10401,1.61848 6.48642,2.10358 9.92219,2.30144 0.83159,0.0479 1.67213,-0.0716 2.51057,-0.0951 1.63279,-0.0447 3.21997,-0.36328 4.78151,-0.81485 0.81818,-0.23695 1.61729,-0.5376 2.45008,-0.81817 0.0447,0.88637 0.0984,1.74032 0.12518,2.59427 l 0.11624,4.65647 c 0.0298,0.70865 0.0478,1.41953 0.11625,2.12479 0.1699,1.81858 0.33442,3.63825 0.55112,5.45121 0.15201,1.24963 0.30729,2.50929 0.60149,3.72876 a 42.473856,42.473856 0 0 0 2.41192,7.18479 15.424716,15.424716 0 0 0 4.35916,5.79542 c 2.48136,2.05216 5.38986,2.92736 8.53054,3.08942 1.29894,0.0683 2.63456,0.006 3.91325,-0.22802 a 54.768918,54.768918 0 0 0 6.02115,-1.42498 c 4.01371,-1.21161 7.48316,-3.30401 10.0754,-6.68518 1.47541,-1.92696 2.68703,-4.01152 3.46498,-6.31295 0.64143,-1.90125 1.24619,-3.82151 1.72667,-5.7675 0.38002,-1.53352 0.56781,-3.11511 0.7994,-4.68106 0.15202,-1.03613 0.24441,-2.08233 0.34069,-3.12628 0.15797,-1.69562 0.31654,-3.3901 0.42921,-5.08906 0.0775,-1.18256 0.0745,-2.3707 0.12219,-3.55549 0,-0.36105 0.0716,-0.71983 0.10732,-1.07974 0.0328,-0.33308 0.19969,-0.44822 0.53889,-0.44262 1.19702,0.0179 2.39642,0.0491 3.59016,-0.006 1.338,-0.0602 2.68822,-0.11744 4.00476,-0.33869 a 63.710783,63.710783 0 0 0 5.57763,-1.1926 c 2.17169,-0.56781 4.16333,-1.58494 6.08048,-2.74406 2.23307,-1.34907 4.26854,-2.93179 5.9204,-4.97053 1.43636,-1.77833 2.11713,-3.83382 1.77049,-6.07823 m -3.81371,1.09761 c -0.0745,1.02271 -0.54187,1.89901 -1.22145,2.64789 -3.20685,3.5354 -7.22951,5.68032 -11.83129,6.7366 -1.74813,0.40014 -3.55229,0.60804 -5.34156,0.77347 a 35.767458,35.767458 0 0 1 -4.5985,0.10849 c -1.1243,-0.0423 -2.23994,-0.29955 -3.38897,-0.46497 -0.11624,1.05066 -0.22355,2.14491 -0.35767,3.23694 l -0.53533,4.18594 c -0.16095,1.32673 -0.28912,2.65796 -0.45484,3.98359 -0.16393,1.2865 -0.36662,2.56856 -0.5377,3.85505 -0.16096,1.19821 -0.27721,2.40202 -0.45484,3.598 -0.27423,1.83308 -0.53562,3.67063 -0.8933,5.48917 -0.4292,2.17401 -1.08733,4.27982 -2.16154,6.24032 -1.30999,2.39305 -3.16781,4.21609 -5.53175,5.56631 -2.43665,1.3927 -5.10013,2.11698 -7.80058,2.7228 -1.91147,0.42921 -3.88077,0.49961 -5.81667,0.32524 -3.35768,-0.30402 -6.22354,-1.7403 -8.38986,-4.34351 -2.06766,-2.4847 -3.46706,-5.33269 -3.96781,-8.55623 a 70.417181,70.417181 0 0 1 -0.54873,-4.62295 120.71517,120.71517 0 0 1 -0.33442,-5.16393 279.43325,279.43325 0 0 1 -0.22056,-6.56222 c -0.0597,-2.68926 -0.0775,-5.37852 -0.11625,-8.06779 v -0.10284 c -1.36811,0.82042 -2.71297,1.71909 -4.13919,2.45902 a 13.859889,13.859889 0 0 1 -5.36273,1.5123 c -1.47303,0.11178 -2.96513,0.21342 -4.4316,0.096 -2.40446,-0.19344 -4.80625,-0.57004 -6.95915,-1.75373 -0.87302,-0.48063 -1.78389,-1.06519 -2.38509,-1.83309 -1.44203,-1.83978 -0.75111,-4.16467 1.42265,-5.28351 1.50223,-0.7746 3.14218,-1.09762 4.77048,-1.4743 a 49.180254,49.180254 0 0 0 4.20387,-1.15013 c 1.36603,-0.44709 2.22772,-1.55479 3.07839,-2.64122 l 1.34783,-1.73359 c -0.56214,-0.0593 -1.0921,-0.11952 -1.62175,-0.16871 -1.60834,-0.152 -3.14307,-0.59463 -4.61072,-1.24515 -1.25633,-0.5555 -1.27541,-0.61586 -2.19642,0.3834 -1.538,1.6699 -3.03338,3.37889 -4.54009,5.07674 -1.10879,1.2485 -2.21102,2.50482 -3.31415,3.75669 -1.093,1.23845 -2.11684,2.54733 -3.29388,3.6997 -1.74814,1.71126 -3.85514,2.74067 -6.36899,2.62444 -1.61283,-0.0739 -3.08942,-0.63935 -4.41729,-1.56371 -2.74067,-1.90909 -4.58717,-4.57936 -6.26824,-7.38374 -2.1538,-3.59352 -3.80685,-7.42174 -5.22205,-11.35506 -0.97913,-2.71832 -1.96274,-5.43888 -2.81758,-8.19632 -0.92907,-2.99666 -1.74366,-6.03129 -2.54516,-9.06482 a 175.48409,175.48409 0 0 1 -1.65662,-6.90983 241.43033,241.43033 0 0 1 -1.63636,-7.91243 c -0.33294,-1.78725 -0.52639,-3.60021 -0.79584,-5.39976 -0.36303,-2.42548 -0.43009,-4.87332 -0.29836,-7.30888 0.11625,-2.19409 0.43249,-4.38261 0.74546,-6.56219 0.43368,-3.01564 1.42742,-5.8614 2.85693,-8.54842 0.8754,-1.64644 1.96184,-3.14307 3.21817,-4.53353 2.062,-2.2824 4.55796,-3.93219 7.33441,-5.17063 1.94039,-0.86513 3.99046,-1.386 6.07929,-1.79285 3.10073,-0.60357 6.22919,-0.58011 9.35885,-0.51528 1.3681,0.0269 2.73054,0.2772 4.09776,0.41245 2.94277,0.293 5.82771,0.91207 8.67568,1.6766 2.07571,0.55663 4.10879,1.27755 6.16781,1.90349 0.20565,0.0626 0.50969,0.0569 0.67839,-0.0537 2.78985,-1.82077 5.83903,-3.02235 9.08165,-3.70974 1.2304,-0.26051 2.50015,-0.37445 3.75886,-0.45493 1.53026,-0.0972 3.07273,-0.18659 4.5994,-0.0984 1.83547,0.10522 3.6617,0.37556 5.48584,0.62593 0.88524,0.12072 1.74932,0.42811 2.63665,0.51193 0.42475,0.0402 0.87542,-0.27035 1.3246,-0.37443 2.29029,-0.5287 4.57047,-1.11774 6.88076,-1.53577 1.72011,-0.31073 3.47719,-0.45716 5.22652,-0.55776 1.95052,-0.11178 3.91534,-0.19344 5.86467,-0.0996 a 41.020802,41.020802 0 0 1 7.32697,1.03166 c 2.99194,0.69636 5.86228,1.7079 8.59074,3.11176 2.03875,1.04844 3.97704,2.26453 5.7216,3.76006 1.14366,0.98136 2.31386,1.95046 3.34664,3.04361 1.27421,1.34798 2.57406,2.69706 3.37317,4.42398 0.60149,1.30214 1.03069,2.65013 1.14903,4.07636 0.14903,1.77272 0.32638,3.55216 0.30969,5.32711 -0.0298,1.69785 -0.24739,3.39457 -0.41133,5.08793 -0.37318,3.86064 -1.21281,7.63748 -2.23218,11.364 a 130.77476,130.77476 0 0 1 -2.8936,9.13188 c -0.9827,2.77308 -2.11594,5.49587 -3.26169,8.2075 a 89.418642,89.418642 0 0 1 -2.74724,5.92735 c -1.8745,3.67287 -3.82384,7.30774 -6.07838,10.7671 -0.38897,0.59801 -0.75767,1.21053 -1.1377,1.8208 0.9836,0.66395 2.09777,0.89754 3.21996,1.01825 1.06767,0.11624 2.15619,0.1854 3.22265,0.10611 1.7067,-0.12637 3.40774,-0.36995 5.10461,-0.60805 1.68107,-0.23487 3.32846,-0.71311 5.05424,-0.58679 1.7237,0.12518 2.95648,1.43516 2.83905,3.05028 m -24.60444,-3.74775 c -0.73233,-0.9456 -1.47899,-1.88002 -2.19523,-2.83681 -1.12459,-1.50223 -1.93263,-3.17995 -2.74426,-4.8655 -0.76899,-1.59723 -1.71236,-3.10953 -2.52249,-4.68888 -1.41401,-2.75522 -2.85366,-5.5015 -4.15589,-8.31035 -1.63755,-3.5287 -2.92845,-7.18255 -3.33531,-11.09129 -0.17288,-1.65424 -0.2146,-3.30625 0.11923,-4.94485 0.53531,-2.61659 1.90222,-4.66318 4.20029,-6.06705 2.13144,-1.30214 4.5067,-1.72241 6.94008,-1.8543 1.50998,-0.0816 3.02682,-0.0149 4.59373,-0.0149 l -0.0537,-0.26468 c -0.97466,-2.03764 -1.88555,-4.10991 -2.95201,-6.09948 -1.50431,-2.80775 -3.4292,-5.33939 -5.57287,-7.68664 -1.58837,-1.73809 -3.30848,-3.35096 -5.19313,-4.77608 -1.85306,-1.40274 -3.80566,-2.65573 -5.88912,-3.68069 -2.48494,-1.22169 -5.07242,-2.16616 -7.78747,-2.76864 -2.60863,-0.57898 -5.23426,-0.93328 -7.90997,-0.96234 -2.28256,-0.0238 -4.55051,0.0784 -6.77347,0.5935 -3.35558,0.77683 -6.42472,2.15836 -9.09506,4.39606 a 23.472393,23.472393 0 0 0 -3.93114,4.21385 c -1.33681,1.83642 -2.41549,3.81928 -3.3374,5.89826 -1.26527,2.85246 -2.13382,5.82115 -2.72727,8.87257 -0.29806,1.52125 -0.52996,3.05588 -0.76691,4.58941 -0.0835,0.53651 -0.0895,1.08533 -0.13712,1.70008 0.41252,-0.2146 0.70969,-0.38002 1.01371,-0.52757 l 0.98928,-0.44375 c 3.34544,-1.53017 6.81132,-2.5149 10.53679,-2.40199 1.58271,0.048 3.09717,0.36101 4.50461,1.054 2.69925,1.33124 4.27869,3.59463 4.96483,6.4594 0.47391,1.97725 0.7982,3.99365 1.11326,6.00446 0.24738,1.57041 0.49955,3.15758 0.52876,4.74142 0.0418,2.31482 -0.0775,4.63413 -0.20269,6.94783 a 19.448556,19.448556 0 0 1 -1.20715,5.75186 c -1.25186,3.34535 -2.64679,6.63597 -3.94992,9.96234 -0.43039,1.09874 -0.76125,2.2366 -1.1681,3.44485 0.62801,0 1.1377,-0.006 1.64739,0.003 0.1997,0.003 0.40238,0.009 0.59463,0.0548 1.49776,0.35321 2.79672,1.03169 3.86199,2.18406 1.42057,1.53353 2.16602,3.32303 2.20417,5.39417 0.0298,1.14793 -0.0984,2.2992 -0.0954,3.44709 0.0298,5.34947 0.0626,10.69894 0.1073,16.04731 0,0.87407 0.0507,1.74924 0.11327,2.6222 0.13114,1.82748 0.26229,3.6561 0.44143,5.47913 0.12518,1.2932 0.29955,2.5842 0.50402,3.86846 0.28912,1.81967 1.11774,3.43928 2.05782,4.98733 0.80924,1.33123 1.8611,2.46237 3.24709,3.24255 2.35499,1.32563 4.8912,1.43628 7.44738,0.94784 1.72697,-0.32975 3.42265,-0.85955 5.09925,-1.4061 a 11.289103,11.289103 0 0 0 4.4003,-2.63115 c 1.17495,-1.13899 2.00863,-2.52721 2.57077,-4.05961 1.09092,-2.97206 1.43071,-6.10172 1.88227,-9.20678 0.1699,-1.16244 0.31535,-2.32822 0.46945,-3.49289 0.17585,-1.32565 0.3532,-2.65017 0.5231,-3.97467 0.12518,-0.98697 0.23845,-1.97615 0.36006,-2.96312 0.17288,-1.41728 0.35439,-2.83344 0.51862,-4.25186 0.12519,-1.09649 0.23249,-2.19747 0.34546,-3.29618 0.14306,-1.40387 0.29955,-2.80775 0.42354,-4.21385 0.0954,-1.06745 0.0566,-2.15389 0.24442,-3.20119 0.34754,-1.92027 1.25513,-3.55439 2.95737,-4.61066 0.71207,-0.4415 1.51564,-0.73211 2.3061,-1.10543 z m -64.37815,-7.88228 a 19.560327,19.560327 0 0 1 -1.51355,-6.28389 c -0.14307,-2.03985 0.0984,-4.07189 0.30849,-6.10282 0.20269,-1.96721 0.37228,-3.94336 0.43159,-5.91952 0.0984,-3.24814 -0.11922,-6.4918 -0.27719,-9.7377 -0.0954,-1.93253 0.13115,-3.88857 0.30283,-5.82562 0.15499,-1.74476 0.34873,-3.49403 0.67839,-5.2131 0.5532,-2.88486 1.28763,-5.72837 2.33173,-8.4847 0.99137,-2.61326 2.13026,-5.15835 3.73861,-7.44971 1.10223,-1.57153 2.35289,-3.04023 3.55438,-4.576 l -0.35648,-0.12637 c -3.90968,-1.24182 -7.88345,-2.21201 -11.96988,-2.63562 -1.93233,-0.2 -3.87182,-0.31743 -5.80983,-0.43258 -0.59462,-0.0358 -1.1982,0.0447 -1.79522,0.10164 -1.47749,0.14068 -2.97318,0.19672 -4.42712,0.47393 -2.47481,0.47055 -4.84887,1.2619 -7.04739,2.55066 -1.97406,1.15684 -3.63158,2.65236 -5.01965,4.44634 -1.53353,1.98062 -2.56542,4.22057 -3.3064,6.60914 -0.87512,2.81783 -1.29211,5.71722 -1.40507,8.64345 -0.0984,2.56518 -0.14904,5.1449 0.29508,7.70004 0.32995,1.90238 0.54993,3.82489 0.91326,5.71945 0.49508,2.58307 1.02623,5.16057 1.63964,7.71684 0.87749,3.65945 1.7538,7.32449 2.79344,10.93923 0.99463,3.46387 2.11683,6.89642 3.33293,10.28762 0.99494,2.76751 2.14486,5.4836 3.35647,8.16392 0.78928,1.7459 1.74487,3.42587 2.74636,5.0611 1.06526,1.73585 2.27689,3.38339 3.921,4.64306 2.07452,1.59055 3.68076,1.83756 5.78867,0.0927 0.90313,-0.74775 1.66676,-1.671 2.45245,-2.55067 1.24858,-1.39716 2.45334,-2.83233 3.69626,-4.23397 1.58272,-1.78613 3.18569,-3.55325 4.77616,-5.33046 0.33651,-0.37555 0.65931,-0.76229 0.98688,-1.14232 l -0.54098,-0.47501 a 19.783875,19.783875 0 0 1 -4.57705,-6.6293 m 60.00886,-53.16942 a 69.299448,69.299448 0 0 1 3.69866,4.69894 c 2.23545,3.1397 4.02144,6.5298 5.33709,10.15682 0.58241,1.59836 1.04739,3.21237 0.83935,4.96163 -0.14308,1.22505 -0.13115,2.46796 -0.24144,3.6997 -0.0895,1.02496 -0.25336,2.04433 -0.38569,3.06593 -0.19969,1.54024 -0.48733,3.076 -0.57347,4.62294 -0.0805,1.47208 0,2.95976 0.0954,4.43517 0.0954,1.4989 0.29508,2.99105 0.43368,4.48771 0.15499,1.69672 0.36423,3.39344 0.41252,5.09349 0.0388,1.39608 -0.0835,2.80104 -0.20566,4.19488 -0.14606,1.67883 -0.57109,3.30402 -1.20596,4.86324 -0.44621,1.09761 -0.97914,2.1617 -1.48347,3.26044 l 0.20269,0.2146 0.3073,0.23816 0.3097,-0.55439 a 105.0669,105.0669 0 0 0 6.95467,-12.84612 207.89834,207.89834 0 0 0 3.67392,-8.68032 c 1.8152,-4.54247 3.25155,-9.21236 4.36243,-13.97504 0.49867,-2.1382 0.87959,-4.30884 1.21849,-6.47948 0.26229,-1.69672 0.48375,-3.41356 0.53293,-5.12593 0.0537,-1.81633 -0.0477,-3.64717 -0.21461,-5.459 -0.12518,-1.36811 -0.46288,-2.74515 -1.32012,-3.85732 -1.37823,-1.7906 -2.86586,-3.50296 -4.69566,-4.85765 -1.54009,-1.1412 -3.07481,-2.31149 -4.72787,-3.2716 -2.62115,-1.52012 -5.45811,-2.53278 -8.42233,-3.22244 -2.8927,-0.67398 -5.82324,-0.96459 -8.77287,-1.02608 -1.73919,-0.037 -3.48643,0.14993 -5.22205,0.31297 -1.57287,0.14754 -3.13532,0.39904 -4.71922,0.60694 1.69895,0.95565 3.37436,1.80513 4.95499,2.80661 3.32309,2.10471 6.30073,4.6375 8.85692,7.63525 m -43.17252,58.92913 c 1.07422,-3.43482 2.5374,-6.71424 3.95469,-10.01379 1.14903,-2.67586 1.77705,-5.49478 1.98599,-8.38971 0.10432,-1.42733 0.0745,-2.87257 0,-4.30437 a 50.297987,50.297987 0 0 0 -0.43816,-4.76043 c -0.29805,-2.01303 -0.63575,-4.02719 -1.11206,-6.00334 -0.51624,-2.13823 -1.81848,-3.62705 -4.04947,-4.17585 -1.35917,-0.33422 -2.70939,-0.32081 -4.08315,-0.10402 -3.35529,0.52867 -6.42682,1.76488 -9.28822,3.57562 -0.57586,0.36437 -0.8921,0.65834 -0.79256,1.48434 0.20866,1.74927 0.25635,3.52646 0.2474,5.29247 0,2.49927 -0.11624,4.99851 -0.21162,7.49663 -0.0328,0.81371 -0.14904,1.62295 -0.23547,2.43332 -0.13413,1.24068 -0.39255,2.48023 -0.3845,3.71869 0,1.27644 0.13711,2.58309 0.44799,3.8193 0.9836,3.91987 3.06706,7.12777 6.48196,9.39119 2.10014,1.39157 4.42383,2.0935 6.97465,2.22653 0.17288,-0.58569 0.32727,-1.13899 0.49836,-1.68667 m -4.00804,-33.62923 c -0.44948,-0.94336 -0.19076,-1.72467 0.84948,-2.08682 0.25335,-0.0895 0.51505,-0.18449 0.77883,-0.21013 0.36214,-0.0358 0.73115,-0.009 1.09776,-0.009 1.32101,0.006 2.59196,0.19105 3.68286,1.03167 0.69985,0.53875 0.88763,1.2541 0.43487,1.98844 -0.64262,1.04173 -1.62295,1.56482 -2.82682,1.66542 -1.89687,0.15767 -3.22801,-0.72653 -4.01698,-2.37964 m 52.57817,-0.34426 c 0.15201,-1.25632 0.2742,-2.51603 0.4292,-3.77236 0.0626,-0.50521 -0.20268,-0.64158 -0.62712,-0.65386 -1.33234,-0.037 -2.66468,-0.0837 -3.99702,-0.10849 -1.50223,-0.0269 -2.96423,0.2146 -4.35469,0.78575 -1.54247,0.63487 -2.71713,1.65201 -3.19671,3.33085 a 10.059597,10.059597 0 0 0 -0.32757,3.81146 22.35466,22.35466 0 0 0 1.33353,5.78539 c 0.93204,2.4825 1.90789,4.96386 3.07361,7.3424 1.57944,3.22017 3.36662,6.33754 5.04441,9.50854 0.44829,0.84614 0.82503,1.72914 1.2921,2.71722 a 15.424716,15.424716 0 0 0 1.50998,-6.28392 c 0.0447,-1.79955 -0.0984,-3.60694 -0.20268,-5.40759 -0.0656,-1.10209 -0.22056,-2.19747 -0.32877,-3.29731 -0.14902,-1.53244 -0.37645,-3.06373 -0.41132,-4.59949 -0.0358,-1.56146 0.0745,-3.13189 0.21162,-4.69111 0.12519,-1.49553 0.37348,-2.97878 0.55351,-4.4676 m -3.00566,-1.20939 c -0.49509,1.36701 -1.5538,2.13824 -2.92638,2.36513 -1.27958,0.21013 -2.40089,-0.2626 -3.23456,-1.28316 -0.59345,-0.72652 -0.36662,-1.58718 0.52309,-2.07785 1.02146,-0.56557 2.14485,-0.70865 3.46944,-0.79473 0.35977,0.0658 0.90194,0.12072 1.41729,0.26826 0.74784,0.21133 1.02385,0.77347 0.75112,1.52235 m -39.5925,42.09383 c -0.73203,-0.59797 -1.69984,-0.63263 -2.39641,0.0238 -0.86379,0.81594 -1.62384,1.74927 -2.3839,2.66914 -0.8775,1.06298 -1.70015,2.16841 -2.83249,2.99218 -1.64738,1.19709 -3.5678,1.69336 -5.49805,2.16281 -1.53473,0.37332 -3.076,0.71982 -4.61519,1.07862 l -0.0298,0.19881 c 0.45723,0.21134 0.89984,0.47503 1.37586,0.62593 2.34724,0.74328 4.73471,1.11327 7.21518,0.90313 1.79046,-0.15201 3.49627,-0.54211 5.11237,-1.30888 2.22444,-1.054 3.93561,-2.7239 5.39075,-4.66652 0.24441,-0.32414 0.35439,-0.80366 0.38361,-1.2217 0.0984,-1.4765 -0.65068,-2.57412 -1.73264,-3.45713 m 57.84372,0.58792 c -1.88882,0.20239 -3.78002,0.4169 -5.6745,0.52534 -0.91446,0.0524 -1.84202,-0.12191 -2.76542,-0.19672 -1.54814,-0.12518 -3.05931,-0.46945 -4.3681,-1.29657 -0.75767,-0.47734 -1.38689,-0.53099 -2.19165,-0.26051 -1.14903,0.38674 -2.08703,0.97466 -2.36424,2.21982 -0.18777,0.84164 -0.25632,1.71348 -0.33292,2.57526 0,0.15201 0.17586,0.43145 0.32071,0.46944 0.88644,0.23369 1.77735,0.50969 2.68375,0.59128 1.11326,0.10073 2.24649,0.0683 3.36781,0.0119 1.21043,-0.0602 2.42861,-0.13859 3.62145,-0.33978 2.81103,-0.47169 5.53054,-1.24068 7.94574,-2.83457 0.87094,-0.57562 1.73383,-1.16355 2.5988,-1.7459 l -0.0716,-0.1228 c -0.9231,0.13741 -1.84202,0.30516 -2.7696,0.40351"
       clip-rule="evenodd"
       id="path1-28"
       style="stroke-width:1.11774" /><path
       fill="currentColor"
       d="m 982.36384,641.45138 c -3.72386,2.23368 -7.05212,5.04811 -9.82826,8.32843 l 4.25364,4.66839 a 33.186076,33.186076 0 0 1 11.57364,-9.19318 z m 41.57196,0.27123 -6.3532,3.57389 a 33.186076,33.186076 0 0 1 12.0044,9.79627 l 3.7653,-5.27786 a 39.568014,39.568014 0 0 0 -9.4133,-8.0923 z m -20.9455,2.39961 a 31.271495,31.271495 0 0 0 -13.18193,2.90378 l 1.88267,3.22607 a 27.123236,27.123236 0 0 1 11.29926,-2.43152 c 4.0238,0 7.8402,0.87433 11.2768,2.42514 l 1.8827,-3.22926 a 31.271495,31.271495 0 0 0 -13.1595,-2.89421 m -1.9178,6.17453 -1.75504,21.14336 h 0.0159 v 0.12764 q 0.016,0.5297 0.10531,1.01472 0.0479,0.53928 0.30952,1.09131 c 0.36371,0.92219 0.95081,1.61144 1.64651,1.93692 q 0.2457,0.18508 0.5042,0.3542 l 0.1053,0.0638 v 0.0128 l 21.3156,11.47473 1.1105,-1.5189 -19.3309,-14.67846 q -0.032,-0.006 -0.045,-0.0255 l -2.055,-20.99657 z m 4.5407,0.16593 c 0.6063,0.74668 1.152,1.66887 1.6019,2.72828 10.0675,1.92734 17.678,10.60997 17.678,21.04763 0,2.79848 -0.5616,5.46293 -1.5445,7.9136 a 11.806585,11.806585 0 0 1 1.6593,2.42514 23.294073,23.294073 0 0 0 2.406,-10.33874 c 0,-12.34267 -9.541,-22.49633 -21.8007,-23.77272 z m -7.28813,0.30314 c -11.25455,2.12838 -19.7521,11.83211 -19.7521,23.47277 0,8.24546 4.25994,15.51768 10.74399,19.81591 a 31.909689,31.909689 0 0 1 0.94134,-2.37089 c -5.55229,-3.88979 -9.17085,-10.25577 -9.17085,-17.44502 0,-9.74522 6.6436,-17.97154 15.73786,-20.58175 a 11.806585,11.806585 0 0 1 1.49976,-2.89102 m 29.19733,5.34487 -2.5559,2.84954 a 25.846848,25.846848 0 0 1 4.9492,15.24326 c 0,9.30486 -4.9205,17.4897 -12.3555,22.18361 q 0.4978,1.86034 0.801,3.85788 c 9.158,-5.20766 15.323,-14.92416 15.323,-26.0383 a 29.420733,29.420733 0 0 0 -6.1586,-18.0928 z m -49.07707,0.0223 a 29.516462,29.516462 0 0 0 -6.15865,18.07684 c 0,11.19073 6.23523,20.95509 15.50181,26.13403 q 0.29676,-2.00712 0.79136,-3.84831 c -7.53069,-4.68434 -12.51817,-12.90747 -12.51817,-22.28572 0,-5.67035 1.82842,-10.9195 4.94281,-15.22731 z m 29.72067,0.13721 q 0.2106,0.97005 0.3414,2.04222 a 17.007864,17.007864 0 0 1 10.2526,9.2921 l 1.8412,-0.47226 A 18.954355,18.954355 0 0 0 1008.166,656.2702 m -12.17672,0.59671 a 18.954355,18.954355 0 0 0 -10.59083,10.20472 l 1.85076,0.47226 a 16.975954,16.975954 0 0 1 8.49436,-8.56137 q 0.0734,-1.09131 0.24571,-2.11561 m -9.80904,13.01277 -1.9784,2.01031 1.00515,1.95926 5.51081,1.97202 3.00589,-1.97202 -0.99558,-2.94527 z m 33.87216,0 -6.5351,1.0243 -1.0052,2.94527 3.0059,1.97202 5.5204,-1.97202 1.0051,-1.95926 z m -35.89204,7.01056 a 18.571439,18.571439 0 0 0 7.40304,12.2246 q 0.47865,-0.81689 1.00516,-1.57314 a 16.752587,16.752587 0 0 1 -6.50319,-10.65784 z m 35.75804,0 q -0.1468,0.85837 -0.3766,1.68802 0.8297,0.65415 1.5732,1.3083 c 0.3095,-0.96367 0.5552,-1.96883 0.702,-2.99951 z m -50.03133,0.69244 -5.1917,6.61169 c 3.08247,11.68214 11.60882,21.21994 22.75807,25.88195 a 28.71872,28.71872 0 0 1 -0.15955,-3.28989 q 0,-1.79971 0.15955,-3.54517 c -9.64949,-4.98748 -16.48463,-14.49976 -17.56637,-25.65858 m 66.07543,0.1755 c -1.1232,11.00885 -7.8625,20.40306 -17.362,25.39054 q 0.1563,1.79652 0.1691,3.62494 0,1.79971 -0.1595,3.20693 c 11.1875,-4.74816 19.7042,-14.42956 22.6686,-26.23934 z m -20.8817,8.35077 a 15.954844,15.954844 0 0 1 -1.5508,1.34021 q 0.5329,0.75626 1.0148,1.57314 1.2732,-0.95729 2.3613,-2.10603 a 35.100658,35.100658 0 0 1 -1.8253,-0.80732 m 4.7929,1.78375 a 22.336782,22.336782 0 0 1 -3.9887,3.68876 c 0.3382,0.75307 0.6605,1.54762 0.9381,2.36451 a 24.57046,24.57046 0 0 0 5.9256,-5.6544 11.487488,11.487488 0 0 1 -2.8718,-0.39887 z m -9.5346,2.01031 -7.3488,2.91336 -7.3616,-2.90378 -1.8731,4.57904 7.8115,3.01865 c -0.4276,1.46785 -1.81248,2.5464 -3.44625,2.5464 q -0.16593,-0.003 -0.33186,-0.0223 l -1.59549,2.189 q 0.90624,0.30315 1.91458,0.30634 a 6.1266603,6.1266603 0 0 0 4.85032,-2.35494 6.1266603,6.1266603 0 0 0 6.9658,1.9784 l -1.5635,-2.13795 a 3.5738852,3.5738852 0 0 1 -4.0207,-2.56873 l 7.8817,-2.95483 z m 3.6887,15.23688 c -3.4781,1.20299 -7.1988,1.85076 -11.0918,1.85076 -3.73342,0 -7.3073,-0.59352 -10.65782,-1.70398 0.73712,2.80806 1.88267,5.27787 3.35052,7.21797 a 40.525305,40.525305 0 0 0 15.0965,-0.0925 c 1.4455,-1.94649 2.5751,-4.43545 3.3026,-7.27541 z"
       id="path1-37"
       style="fill:currentColor;fill-opacity:1;stroke-width:3.19097" /></g><g
     id="alerts"
     transform="translate(-622.73659,-10.695038)"><g
       stroke-opacity="0.4"
       fill-opacity="0.4"
       transform="translate(1443.1136,47.035156)"
       id="g35"
       style="opacity:0.5;fill:currentColor;fill-opacity:1"><text
         x="151.34062"
         y="24.667999"
         font-family="Excalifont, Xiaolai, 'Comic Sans MS', sans-serif"
         font-size="28px"
         fill="currentColor"
         text-anchor="middle"
         style="white-space:pre;fill:currentColor;fill-opacity:1"
         direction="ltr"
         dominant-baseline="alphabetic"
         id="text34">Alerts &amp; Notifications</text></g><g
       stroke-opacity="0.4"
       fill-opacity="0.4"
       transform="translate(1782.3675,113.76102)"
       id="g39"
       style="opacity:0.5;fill:currentColor;fill-opacity:1"><text
         x="31.159279"
         y="66.791557"
         font-family="Excalifont, Xiaolai, 'Comic Sans MS', sans-serif"
         font-size="75.8133px"
         fill="currentColor"
         text-anchor="middle"
         style="white-space:pre;fill:currentColor;fill-opacity:1"
         direction="ltr"
         dominant-baseline="alphabetic"
         id="text38">...</text></g><path
       fill="currentColor"
       d="m 1419.9148,141.89908 c -6.1563,-3.32701 -10.4657,-3.86405 -20.5711,-3.86405 h -22.7685 v 47.64571 h 22.68 c 8.9823,0 15.7182,-0.53703 21.6453,-4.48623 6.4674,-4.26682 9.8369,-11.40877 9.8369,-19.67063 0,-8.89387 -4.1325,-16.03254 -10.8226,-19.62807 z m -18.0104,33.81372 h -13.7861 v -27.48388 l 13.0231,-0.0884 c 11.8542,-0.0917 17.7812,4.04088 17.7812,13.51762 0,10.1939 -7.3613,14.05467 -17.0182,14.05467 m -25.3292,19.98828 h 11.5431 v 20.92482 h -11.5431 z"
       id="path1-62"
       style="opacity:0.5;stroke-width:3.27462" /><path
       fill="currentColor"
       d="m 1746.4138,146.28074 a 80.572411,80.572411 0 0 0 -19.8786,-6.16501 0.30112921,0.30112921 0 0 0 -0.3214,0.15057 c -0.8546,1.52599 -1.8068,3.51589 -2.4742,5.08664 a 74.468441,74.468441 0 0 0 -22.3283,0 52.901078,52.901078 0 0 0 -2.5108,-5.08664 0.3255451,0.3255451 0 0 0 -0.3215,-0.15057 80.16548,80.16548 0 0 0 -19.8786,6.16501 0.40693137,0.40693137 0 0 0 -0.1302,0.10988 c -12.6637,18.91823 -16.1348,37.3685 -14.4298,55.58682 a 0.3255451,0.3255451 0 0 0 0.1262,0.23195 80.979343,80.979343 0 0 0 24.3874,12.33002 0.3255451,0.3255451 0 0 0 0.3418,-0.11394 56.970392,56.970392 0 0 0 4.989,-8.11421 0.30926784,0.30926784 0 0 0 -0.1669,-0.43135 52.901078,52.901078 0 0 1 -7.6177,-3.62983 0.31333716,0.31333716 0 0 1 -0.033,-0.52087 40.693137,40.693137 0 0 0 1.5138,-1.18824 0.28485196,0.28485196 0 0 1 0.3133,-0.0407 c 15.9843,7.29628 33.287,7.29628 49.0841,0 a 0.28485196,0.28485196 0 0 1 0.3174,0.0407 q 0.7365,0.60633 1.5178,1.18824 a 0.31333716,0.31333716 0 0 1 -0.024,0.51681 50.052559,50.052559 0 0 1 -7.6218,3.62982 0.31333716,0.31333716 0 0 0 -0.1668,0.43542 c 1.4649,2.84038 3.1415,5.54241 4.9849,8.11014 a 0.3255451,0.3255451 0 0 0 0.3418,0.11394 80.572411,80.572411 0 0 0 24.424,-12.33002 0.3255451,0.3255451 0 0 0 0.1302,-0.21974 c 2.0347,-21.06684 -3.41,-39.36654 -14.4419,-55.58683 a 0.24415882,0.24415882 0 0 0 -0.1262,-0.12208 m -50.0403,44.60375 c -4.81,0 -8.7776,-4.4152 -8.7776,-9.84367 0,-5.42439 3.8903,-9.84367 8.7776,-9.84367 4.9238,0 8.8548,4.45997 8.7775,9.84774 0,5.4244 -3.8903,9.8396 -8.7775,9.8396 m 32.4527,0 c -4.814,0 -8.7775,-4.4152 -8.7775,-9.84367 0,-5.42439 3.8862,-9.84367 8.7775,-9.84367 4.9239,0 8.8549,4.45997 8.7775,9.84774 0,5.4244 -3.8495,9.8396 -8.7775,9.8396"
       id="path1-2"
       style="opacity:0.5;stroke-width:4.06931" /><path
       fill="currentColor"
       d="m 1579.0875,187.11029 a 7.8238585,7.8238585 0 0 1 -7.8239,7.82386 7.8238585,7.8238585 0 0 1 -7.8238,-7.82386 7.8238585,7.8238585 0 0 1 7.8238,-7.82386 h 7.8239 z m 3.9119,0 a 7.8238585,7.8238585 0 0 1 7.8239,-7.82386 7.8238585,7.8238585 0 0 1 7.8238,7.82386 v 19.55965 a 7.8238585,7.8238585 0 0 1 -7.8238,7.82386 7.8238585,7.8238585 0 0 1 -7.8239,-7.82386 z m 7.8239,-31.29543 a 7.8238585,7.8238585 0 0 1 -7.8239,-7.82386 7.8238585,7.8238585 0 0 1 7.8239,-7.82386 7.8238585,7.8238585 0 0 1 7.8238,7.82386 v 7.82386 z m 0,3.91193 a 7.8238585,7.8238585 0 0 1 7.8238,7.82385 7.8238585,7.8238585 0 0 1 -7.8238,7.82386 h -19.5597 a 7.8238585,7.8238585 0 0 1 -7.8238,-7.82386 7.8238585,7.8238585 0 0 1 7.8238,-7.82385 z m 31.2954,7.82385 a 7.8238585,7.8238585 0 0 1 7.8239,-7.82385 7.8238585,7.8238585 0 0 1 7.8238,7.82385 7.8238585,7.8238585 0 0 1 -7.8238,7.82386 h -7.8239 z m -3.9119,0 a 7.8238585,7.8238585 0 0 1 -7.8239,7.82386 7.8238585,7.8238585 0 0 1 -7.8238,-7.82386 V 147.991 a 7.8238585,7.8238585 0 0 1 7.8238,-7.82386 7.8238585,7.8238585 0 0 1 7.8239,7.82386 z m -7.8239,31.29544 a 7.8238585,7.8238585 0 0 1 7.8239,7.82386 7.8238585,7.8238585 0 0 1 -7.8239,7.82386 7.8238585,7.8238585 0 0 1 -7.8238,-7.82386 v -7.82386 z m 0,-3.91193 a 7.8238585,7.8238585 0 0 1 -7.8238,-7.82386 7.8238585,7.8238585 0 0 1 7.8238,-7.82386 h 19.5597 a 7.8238585,7.8238585 0 0 1 7.8238,7.82386 7.8238585,7.8238585 0 0 1 -7.8238,7.82386 z"
       id="path1-93"
       style="opacity:0.5;stroke-width:3.91193" /><path
       fill="currentColor"
       d="m 1497.1675,137.27032 c 22.1495,0.005 40.3314,18.06018 40.303,40.02922 -0.029,22.29966 -18.1354,40.10684 -40.7656,40.09107 -22.1261,-0.0151 -40.0141,-18.09111 -39.9983,-40.41727 0.017,-21.83149 18.2336,-39.70744 40.4609,-39.70302 m -12.244,14.05985 c 0.5066,2.49863 0.017,4.83006 -0.7363,7.123 -0.5194,1.58688 -1.2381,3.11698 -1.6671,4.72721 -0.7079,2.65195 -1.5086,5.31906 -1.8039,8.0297 -0.4233,3.9 1.1092,7.33499 3.7315,10.75169 l -12.0552,-2.53775 c 0.02,0.37984 0,0.5237 0.04,0.64611 1.1426,3.35675 3.1535,6.18475 5.4073,8.85248 0.2379,0.28141 0.7805,0.42527 1.1843,0.42527 12.0199,0.0241 24.0406,0.0214 36.0611,0.005 0.3722,0 0.8714,-0.0693 1.0986,-0.30918 2.5768,-2.70937 4.546,-5.79544 5.7796,-9.68031 l -12.7632,2.4999 c 0.843,-1.65187 1.8014,-3.10184 2.3553,-4.6963 1.8892,-5.45345 1.1054,-10.72519 -1.6057,-15.69848 -2.1762,-3.99024 -4.1841,-7.96282 -3.0981,-12.77267 -2.2979,2.27148 -3.182,5.16067 -3.7429,8.13822 -0.5502,2.934 -0.8765,5.90838 -1.303,8.88591 -0.062,-0.0902 -0.138,-0.15766 -0.1531,-0.23534 a 8.8335493,8.8335493 0 0 1 -0.1111,-0.94015 c -0.2606,-4.87485 -1.2114,-9.57178 -3.2218,-14.05796 -1.1817,-2.63871 -2.4865,-5.33925 -1.267,-8.4903 -0.8246,0.43725 -1.571,0.86883 -2.1061,1.48656 -1.5944,1.84243 -2.2545,4.05586 -2.4242,6.4794 -0.1464,2.07084 -0.3444,4.15115 -0.7294,6.18727 -0.4038,2.14024 -1.041,4.23632 -2.481,6.20305 -0.5791,-4.19972 -0.6436,-8.35653 -4.389,-11.023 z m 30.9943,41.69878 h -37.7028 v 6.54944 h 37.7028 z m -30.2259,9.93521 c -0.03,5.45283 5.5229,9.51562 12.3879,9.22097 5.6913,-0.24546 10.7257,-4.72216 10.2942,-9.22097 z m 0,0"
       id="path1-0"
       style="opacity:0.5;stroke-width:0.630968" /><rect
       style="opacity:0.5;fill:#000000;fill-opacity:0;fill-rule:evenodd;stroke:currentColor;stroke-width:1.73858;stroke-linejoin:round;stroke-dasharray:13.9086, 6.95432;stroke-dashoffset:0;stroke-opacity:1"
       id="rect150"
       width="565.11011"
       height="264.97986"
       x="1319.4916"
       y="13.519382"
       ry="51.37365" /></g><g
     id="g1"
     transform="translate(-639.94395,-12.606967)"><g
       transform="translate(822.28909,55.070312)"
       id="g28"><text
         x="80.59832"
         y="24.667999"
         font-family="Excalifont, Xiaolai, 'Comic Sans MS', sans-serif"
         font-size="28px"
         fill="currentColor"
         text-anchor="middle"
         style="white-space:pre"
         direction="ltr"
         dominant-baseline="alphabetic"
         id="text27">Dashboards</text></g><g
       transform="translate(806.30619,96.738281)"
       id="g29"><text
         x="101.31991"
         y="17.620001"
         font-family="Excalifont, Xiaolai, 'Comic Sans MS', sans-serif"
         font-size="20px"
         fill="currentColor"
         text-anchor="middle"
         style="font-size:24px;white-space:pre"
         direction="ltr"
         dominant-baseline="alphabetic"
         id="text28">(idp, monitor, analytics, alerts, ...)</text></g><path
       fill="currentColor"
       d="m 858.89144,172.11982 c 0,2.83549 -2.26277,5.13339 -5.05257,5.13339 -2.78981,0 -5.05258,-2.2979 -5.05258,-5.13339 0,-2.83548 2.26277,-5.13338 5.05258,-5.13338 2.7898,0 5.05257,2.2979 5.05257,5.13338 m -5.05257,9.2408 c -2.78981,0 -5.05258,2.2979 -5.05258,5.13339 0,2.83548 2.26277,5.13338 5.05258,5.13338 2.7898,0 5.05257,-2.2979 5.05257,-5.13338 0,-2.83549 -2.26277,-5.13339 -5.05257,-5.13339 m 19.20187,-9.2408 c 0,2.83549 -2.2628,5.13339 -5.0526,5.13339 -2.7898,0 -5.0525,-2.2979 -5.0525,-5.13339 0,-2.83548 2.2627,-5.13338 5.0525,-5.13338 2.7898,0 5.0526,2.2979 5.0526,5.13338 m -1.2298,0 c 0,-2.15384 -1.7146,-3.90362 -3.8228,-3.90362 -2.1081,0 -3.8228,1.7533 -3.8228,3.90362 0,2.15033 1.7147,3.90363 3.8228,3.90363 2.1082,0 3.8228,-1.74978 3.8228,-3.90363 m -3.8228,19.64812 c 2.7898,0 5.0526,-2.29791 5.0526,-5.13339 0,-2.83548 -2.2628,-5.13338 -5.0526,-5.13338 -2.7898,0 -5.0525,2.2979 -5.0525,5.13338 0,2.83548 2.2592,5.13339 5.0525,5.13339 m 19.1984,-19.64812 c 0,2.83549 -2.2628,5.13339 -5.0526,5.13339 -2.7898,0 -5.0525,-2.2979 -5.0525,-5.13339 0,-2.83548 2.2627,-5.13338 5.0525,-5.13338 2.7898,0 5.0526,2.2979 5.0526,5.13338 m -1.2298,0 c 0,-2.15384 -1.7146,-3.90362 -3.8228,-3.90362 -2.1081,0 -3.8228,1.74978 -3.8228,3.90362 0,2.15385 1.7147,3.90363 3.8228,3.90363 2.1082,0 3.8228,-1.74978 3.8228,-3.90363 m 1.2298,-16.42612 c 0,2.83548 -2.2628,5.13338 -5.0526,5.13338 -2.7898,0 -5.0525,-2.2979 -5.0525,-5.13338 0,-2.83549 2.2627,-5.13339 5.0525,-5.13339 2.7898,0 5.0526,2.2979 5.0526,5.13339 m -1.2298,0 c 0,-2.15385 -1.7146,-3.90363 -3.8228,-3.90363 -2.1081,0 -3.8228,1.74978 -3.8228,3.90363 0,2.15384 1.7147,3.90362 3.8228,3.90362 2.1082,0 3.8228,-1.74978 3.8228,-3.90362 m 1.2298,30.94085 c 0,2.83548 -2.2628,5.13339 -5.0526,5.13339 -2.7898,0 -5.0525,-2.29791 -5.0525,-5.13339 0,-2.83548 2.2627,-5.13338 5.0525,-5.13338 2.7898,0 5.0526,2.2979 5.0526,5.13338 m -1.2298,0 c 0,-2.15384 -1.7146,-3.90362 -3.8228,-3.90362 -2.1081,0 -3.8228,1.74978 -3.8228,3.90362 0,2.15384 1.7147,3.90362 3.8228,3.90362 2.1082,0 3.8228,-1.75329 3.8228,-3.90362 m 15.37561,-14.51473 c 0,2.83549 -2.2628,5.13339 -5.0526,5.13339 -2.7898,0 -5.0525,-2.2979 -5.0525,-5.13339 0,-2.83548 2.2627,-5.13338 5.0525,-5.13338 2.7898,0 5.0526,2.2979 5.0526,5.13338 m -1.2298,0 c 0,-2.15384 -1.7146,-3.90362 -3.8228,-3.90362 -2.1081,0 -3.8228,1.74978 -3.8228,3.90362 0,2.15385 1.7147,3.90363 3.8228,3.90363 2.1082,0 3.8228,-1.74978 3.8228,-3.90363 m 10.32653,5.13339 c 2.7899,0 5.0526,-2.2979 5.0526,-5.13339 0,-2.83548 -2.2627,-5.13338 -5.0526,-5.13338 -2.78983,0 -5.05253,2.2979 -5.05253,5.13338 0,2.83549 2.2627,5.13339 5.05253,5.13339 m -14.14933,4.24796 c -2.7898,0 -5.0525,2.2979 -5.0525,5.13338 0,2.83548 2.2627,5.13339 5.0525,5.13339 2.7898,0 5.0526,-2.29791 5.0526,-5.13339 0,-2.83548 -2.2592,-5.13338 -5.0526,-5.13338 m 14.14933,0 c -2.78983,0 -5.05253,2.2979 -5.05253,5.13338 0,2.83548 2.2627,5.13339 5.05253,5.13339 2.7899,0 5.0526,-2.29791 5.0526,-5.13339 0,-2.83548 -2.2627,-5.13338 -5.0526,-5.13338 m -56.59021,14.23363 a 5.0947354,5.0947354 0 0 0 -5.05258,5.13339 c 0,2.83548 2.26277,5.13338 5.05258,5.13338 2.7898,0 5.05257,-2.2979 5.05257,-5.13338 a 5.0947354,5.0947354 0 0 0 -5.05257,-5.13339 m 19.20187,5.27042 c 0,2.83548 -2.2628,5.13338 -5.0526,5.13338 -2.7898,0 -5.0525,-2.2979 -5.0525,-5.13338 0,-2.83549 2.2627,-5.13339 5.0525,-5.13339 2.7898,0 5.0526,2.30143 5.0526,5.13339 m -1.2298,0 c 0,-2.15385 -1.7146,-3.90362 -3.8228,-3.90362 -2.1081,0 -3.8228,1.74978 -3.8228,3.90362 0,2.15384 1.7147,3.90362 3.8228,3.90362 2.1082,0 3.8228,-1.74978 3.8228,-3.90362 m 10.323,-5.13339 c -2.7898,0 -5.0525,2.2979 -5.0525,5.13339 0,2.83548 2.2627,5.13338 5.0525,5.13338 2.7898,0 5.0526,-2.2979 5.0526,-5.13338 0,-2.83549 -2.2628,-5.13339 -5.0526,-5.13339 m 19.19841,5.13339 c 0,2.83548 -2.2628,5.13338 -5.0526,5.13338 -2.7898,0 -5.0525,-2.2979 -5.0525,-5.13338 0,-2.83549 2.2627,-5.13339 5.0525,-5.13339 2.7898,0 5.0526,2.30143 5.0526,5.13339 m -1.2298,0 c 0,-2.15385 -1.7146,-3.90362 -3.8228,-3.90362 -2.1081,0 -3.8228,1.74978 -3.8228,3.90362 0,2.15384 1.7147,3.90362 3.8228,3.90362 2.1082,0 3.8228,-1.74978 3.8228,-3.90362 m 10.32653,-5.13339 c -2.78983,0 -5.05253,2.2979 -5.05253,5.13339 0,2.83548 2.2627,5.13338 5.05253,5.13338 2.7899,0 5.0526,-2.2979 5.0526,-5.13338 0,-2.83549 -2.2627,-5.13339 -5.0526,-5.13339 m -56.59021,14.23716 c -2.78981,0 -5.05258,2.2979 -5.05258,5.13339 0,2.83547 2.26277,5.13337 5.05258,5.13337 2.7898,0 5.05257,-2.2979 5.05257,-5.13337 0,-2.83549 -2.26277,-5.13339 -5.05257,-5.13339 m 19.20187,5.27042 c 0,2.83548 -2.2628,5.13338 -5.0526,5.13338 -2.7898,0 -5.0525,-2.2979 -5.0525,-5.13338 0,-2.83548 2.2627,-5.13339 5.0525,-5.13339 2.7898,0 5.0526,2.29791 5.0526,5.13339 m -1.2298,0 c 0,-2.15384 -1.7146,-3.90362 -3.8228,-3.90362 -2.1081,0 -3.8228,1.74978 -3.8228,3.90362 0,2.15384 1.7147,3.90362 3.8228,3.90362 2.1082,0 3.8228,-1.74978 3.8228,-3.90362 m 15.3756,0 c 0,2.83548 -2.2628,5.13338 -5.0526,5.13338 -2.7898,0 -5.0525,-2.2979 -5.0525,-5.13338 0,-2.83548 2.2627,-5.13339 5.0525,-5.13339 2.7898,0 5.0526,2.29791 5.0526,5.13339 m -1.2298,0 c 0,-2.15384 -1.7146,-3.90362 -3.8228,-3.90362 -2.1081,0 -3.8228,1.74978 -3.8228,3.90362 0,2.15384 1.7147,3.90362 3.8228,3.90362 2.1082,0 3.8228,-1.74978 3.8228,-3.90362 m 1.2298,14.37418 c 0,2.83547 -2.2628,5.13338 -5.0526,5.13338 -2.7898,0 -5.0525,-2.29791 -5.0525,-5.13338 0,-2.83548 2.2627,-5.13338 5.0525,-5.13338 2.7898,0 5.0526,2.2979 5.0526,5.13338 m -1.2298,0 c 0,-2.15384 -1.7146,-3.90362 -3.8228,-3.90362 -2.1081,0 -3.8228,1.74978 -3.8228,3.90362 0,2.15384 1.7147,3.90361 3.8228,3.90361 2.1082,0 3.8228,-1.74977 3.8228,-3.90361 m 15.37561,-14.37418 c 0,2.83548 -2.2628,5.13338 -5.0526,5.13338 -2.7898,0 -5.0525,-2.2979 -5.0525,-5.13338 0,-2.83548 2.2627,-5.13339 5.0525,-5.13339 2.7898,0 5.0526,2.29791 5.0526,5.13339 m -1.2298,0 c 0,-2.15384 -1.7146,-3.90362 -3.8228,-3.90362 -2.1081,0 -3.8228,1.74978 -3.8228,3.90362 0,2.15384 1.7147,3.90362 3.8228,3.90362 2.1082,0 3.8228,-1.74978 3.8228,-3.90362 m 10.32653,-5.13339 c -2.78983,0 -5.05253,2.29791 -5.05253,5.13339 0,2.83548 2.2627,5.13338 5.05253,5.13338 2.7899,0 5.0526,-2.2979 5.0526,-5.13338 0,-2.83548 -2.2627,-5.13339 -5.0526,-5.13339"
       id="path1-7"
       style="opacity:0.5;stroke-width:3.51361" /><path
       fill="currentColor"
       d="m 998.15399,183.45198 a 15.452761,15.452761 0 0 0 2.58581,-1.99169 l 0.443,-0.44642 a 17.169735,17.169735 0 0 0 1.5247,-1.80282 12.362209,12.362209 0 0 0 1.2156,-2.07067 9.2716567,9.2716567 0 0 0 0.8379,-3.15236 c 0.285,-3.72927 -1.9231,-7.43793 -6.85081,-10.4289 l -19.8448,-12.04285 -23.1276,22.16269 -15.0613,14.42945 20.8887,12.6747 a 21.462168,21.462168 0 0 0 11.1088,3.15923 c 4.7938,0 9.385,-1.69294 12.7743,-4.94489 3.6847,-3.53009 4.9106,-8.09724 2.6339,-11.89861 a 9.6150514,9.6150514 0 0 0 -1.3049,-1.70324 17.169735,17.169735 0 0 0 3.7121,0.41207 h 0.031 a 16.482945,16.482945 0 0 0 5.9613,-1.1126 15.452761,15.452761 0 0 0 2.4724,-1.24309 m -19.34,11.50372 c -3.7155,3.561 -9.694,4.0864 -14.5599,1.1332 l -14.4466,-8.76687 12.97,-12.43088 14.6973,8.91796 c 5.2951,3.21074 5.0033,7.64053 1.3427,11.15002 m 1.7169,-15.81332 -13.5915,-8.25178 12.3897,-11.87802 13.3408,8.09725 c 4.9896,3.02187 5.6386,7.11857 2.0295,10.57655 a 11.67542,11.67542 0 0 1 -14.1719,1.45256 m 5.745,36.54407 c -3.7636,3.60564 -8.8802,5.59733 -14.402,5.59733 a 23.797252,23.797252 0 0 1 -12.3278,-3.50263 l -19.6697,-11.92609 v 4.74571 l 20.8887,12.6747 a 21.462168,21.462168 0 0 0 11.1088,3.15923 c 4.7938,0 9.385,-1.69637 12.7743,-4.94488 2.4759,-2.36943 3.846,-5.21617 3.7842,-7.97706 v -0.3434 a 17.169735,17.169735 0 0 1 -2.1565,2.52396 z m 0,-7.49974 c -3.7636,3.60564 -8.8802,5.59046 -14.402,5.59046 a 23.831592,23.831592 0 0 1 -12.3278,-3.49919 l -19.6697,-11.92266 v 4.74571 l 20.8887,12.67813 a 21.462168,21.462168 0 0 0 11.1088,3.15924 c 4.7938,0 9.385,-1.69637 12.7743,-4.94489 2.4759,-2.36941 3.846,-5.21617 3.7842,-7.98049 v -0.3434 a 17.169735,17.169735 0 0 1 -2.1565,2.52739 z m 0,-7.50318 c -3.7636,3.60909 -8.8802,5.59734 -14.402,5.59734 a 23.831592,23.831592 0 0 1 -12.3278,-3.50263 L 939.87659,190.859 v 4.74571 l 20.8887,12.67815 a 21.462168,21.462168 0 0 0 11.1088,3.15579 c 4.7938,0 9.385,-1.69293 12.7743,-4.94146 2.4759,-2.37285 3.846,-5.2196 3.7842,-7.98049 v -0.35025 a 17.169735,17.169735 0 0 1 -2.1565,2.53082 z m 16.09831,4.95175 a 18.0969,18.0969 0 0 1 -11.57921,4.97237 v 5.15092 a 15.693137,15.693137 0 0 0 9.95161,-4.30617 c 2.6922,-2.57546 4.0658,-5.40503 4.0383,-8.20027 v -0.42237 a 18.199919,18.199919 0 0 1 -2.4107,2.81584 z m -16.09831,17.54061 c -3.7636,3.60908 -8.8802,5.59734 -14.402,5.59734 a 23.797252,23.797252 0 0 1 -12.3278,-3.50263 l -19.6698,-11.91923 v 4.74572 l 20.8887,12.67469 a 21.462168,21.462168 0 0 0 11.1088,3.15924 c 4.7938,0 9.385,-1.69294 12.7743,-4.94145 2.4759,-2.37286 3.846,-5.2196 3.7842,-7.9805 v -0.34339 a 17.169735,17.169735 0 0 1 -2.1565,2.52395 z m 16.49331,-40.41755 q -0.1958,0.20604 -0.395,0.39833 a 17.169735,17.169735 0 0 1 -2.0466,1.66546 17.169735,17.169735 0 0 1 -2.23201,1.34612 18.199919,18.199919 0 0 1 -5.048,1.67232 18.886708,18.886708 0 0 1 -2.7196,0.30219 10.301841,10.301841 0 0 1 0.2403,0.94433 10.301841,10.301841 0 0 1 0.2198,2.30763 v 1.85776 h 0.017 a 16.139551,16.139551 0 0 0 4.8762,-1.06452 15.452761,15.452761 0 0 0 5.07541,-3.23821 c 0.1545,-0.14766 0.2884,-0.29876 0.4327,-0.44642 a 15.796156,15.796156 0 0 0 1.5246,-1.80625 12.362209,12.362209 0 0 0 1.2157,-2.06724 9.2716567,9.2716567 0 0 0 0.831,-3.16266 c 0.017,-0.24038 0.041,-0.47732 0.038,-0.71427 v -0.38803 q -0.2061,0.29875 -0.4327,0.59407 a 17.169735,17.169735 0 0 1 -1.5899,1.80282 z m 0,14.98918 c -0.134,0.13736 -0.2507,0.27128 -0.3846,0.4052 a 18.13124,18.13124 0 0 1 -11.57931,4.97236 v 5.13031 a 15.693137,15.693137 0 0 0 9.95161,-4.30273 14.079182,14.079182 0 0 0 3.1661,-4.32677 9.2716567,9.2716567 0 0 0 0.831,-3.16267 q 0.034,-0.36056 0.034,-0.71426 v -0.42238 q -0.2061,0.30906 -0.4327,0.61812 a 17.169735,17.169735 0 0 1 -1.5865,1.80282 m 0,-7.49974 c -0.1339,0.13392 -0.2507,0.27128 -0.3846,0.40177 a 17.169735,17.169735 0 0 1 -2.0432,1.66546 17.169735,17.169735 0 0 1 -2.23891,1.34611 18.371616,18.371616 0 0 1 -7.2972,1.95735 v 5.13375 a 15.693137,15.693137 0 0 0 9.95161,-4.30273 c 0.1545,-0.14766 0.2885,-0.29876 0.4361,-0.44642 a 15.796156,15.796156 0 0 0 1.5247,-1.80625 12.362209,12.362209 0 0 0 1.2053,-2.07067 9.2716567,9.2716567 0 0 0 0.831,-3.15923 q 0.034,-0.364 0.034,-0.71427 v -0.42237 q -0.2026,0.30905 -0.4361,0.61811 a 17.169735,17.169735 0 0 1 -1.583,1.80282 z"
       id="path1-70"
       style="opacity:0.5;stroke-width:3.43395" /><path
       fill="currentColor"
       d="m 714.02722,151.51653 c -6.38079,4.12074 -7.57838,9.57106 -7.57838,9.57106 0,0 10e-4,0.13255 -0.0652,0.26528 -0.3992,0.067 -0.66516,0.19959 -0.9974,0.2659 -0.46495,0.13273 -0.93042,0.26593 -1.39589,0.53184 l -1.3959,0.59879 c -0.93043,0.46487 -1.86086,0.86342 -2.7918,1.39525 -0.86416,0.53183 -1.72762,0.99672 -2.5916,1.59486 a 0.83702471,0.83702471 0 0 1 -0.199,-0.13203 c -8.57371,-3.32298 -16.15071,0.66383 -16.15071,0.66383 -0.66447,9.17187 3.45558,14.82178 4.25345,15.88544 -0.19968,0.59816 -0.39919,1.12934 -0.59888,1.66117 a 34.124853,34.124853 0 0 0 -1.39452,6.38071 c -0.067,0.2659 -0.067,0.6651 -0.13393,0.93039 -7.90924,3.92112 -10.23419,11.96302 -10.23419,11.96302 6.57962,7.577 14.28934,8.04186 14.28934,8.04186 0.93043,1.72877 2.12596,3.4569 3.38931,4.98545 0.53123,0.66446 1.13063,1.26197 1.66237,1.92644 -2.3926,6.84558 0.39868,12.62814 0.39868,12.62814 7.37733,0.26591 12.22829,-3.19036 13.22499,-4.05443 0.73144,0.1996 1.46287,0.46616 2.19361,0.66576 a 30.454822,30.454822 0 0 0 6.84626,0.99734 h 2.99011 c 3.45627,4.98482 9.57093,5.64864 9.57093,5.64864 4.32042,-4.58625 4.58638,-9.03858 4.58638,-10.10225 v -0.39919 c 0.86398,-0.66513 1.72745,-1.32894 2.65839,-2.06037 1.72813,-1.52854 3.19048,-3.38931 4.51993,-5.25008 0.13221,-0.13324 0.199,-0.3992 0.398,-0.53183 4.91844,0.26592 8.30775,-3.05707 8.30775,-3.05707 -0.7984,-5.11808 -3.72154,-7.57701 -4.32025,-8.04188 l -0.067,-0.067 -0.067,-0.067 -0.067,-0.0663 c 0,-0.26591 0.067,-0.59879 0.067,-0.93039 0.067,-0.5988 0.067,-1.12997 0.067,-1.66116 v -2.19364 c 0,-0.13273 0,-0.26593 -0.067,-0.46488 l -0.067,-0.4655 -0.067,-0.46552 c -0.067,-0.59815 -0.19969,-1.12934 -0.26596,-1.66118 -0.53123,-2.193 -1.39453,-4.32033 -2.45819,-6.11543 -1.19639,-1.92709 -2.59229,-3.52259 -4.1877,-4.9848 -1.5949,-1.3959 -3.38931,-2.59157 -5.25016,-3.38931 -1.92765,-0.86407 -3.78851,-1.39526 -5.78191,-1.59421 -0.93095,-0.13324 -1.99461,-0.13324 -2.92573,-0.13324 h -1.52845 c -0.53123,0.0663 -0.9955,0.13204 -1.46166,0.19831 -1.9934,0.3992 -3.78781,1.13063 -5.38271,2.06101 -1.59541,0.93103 -2.99131,2.19366 -4.1877,3.58956 -1.19621,1.39524 -2.06037,2.85747 -2.65907,4.45297 a 15.002058,15.002058 0 0 0 -0.99671,4.78455 v 1.72815 c 0,0.19958 0,0.39918 0.067,0.5988 0.067,0.7971 0.19952,1.52852 0.46479,2.25995 0.46547,1.46159 1.13063,2.79052 1.99478,3.92115 a 12.877303,12.877303 0 0 0 2.92315,2.79115 c 1.13062,0.73143 2.19429,1.26197 3.3905,1.59484 1.19639,0.33289 2.25937,0.53185 3.32235,0.46489 h 1.52982 c 0.13221,0 0.26528,-0.0651 0.39851,-0.0651 0.13221,0 0.19969,-0.067 0.39868,-0.067 0.19952,-0.0663 0.53106,-0.13324 0.73075,-0.19962 0.46478,-0.13324 0.86398,-0.39918 1.32894,-0.53184 0.46547,-0.1996 0.79839,-0.46486 1.13062,-0.66446 0.067,-0.0663 0.199,-0.13324 0.26527,-0.19958 0.3992,-0.26593 0.46548,-0.79711 0.13393,-1.19632 -0.26596,-0.26591 -0.73143,-0.3992 -1.13063,-0.19958 -0.067,0.0663 -0.13221,0.067 -0.26527,0.13324 -0.26596,0.13255 -0.66447,0.2659 -0.93043,0.39854 -0.3992,0.0663 -0.73074,0.1996 -1.12925,0.26656 -0.19969,0 -0.3992,0.0656 -0.59888,0.0656 h -1.66118 c -0.067,0 -0.19951,6.3e-4 -0.26647,-0.0656 -0.79771,-0.13272 -1.66117,-0.3992 -2.45836,-0.73207 -0.79771,-0.39856 -1.59541,-0.86279 -2.25988,-1.5279 a 10.237456,10.237456 0 0 1 -1.86086,-2.25996 c -0.53175,-0.86343 -0.79839,-1.86077 -0.93094,-2.79117 -0.067,-0.53183 -0.13393,-0.99797 -0.067,-1.52917 v -0.79774 c 0,-0.26592 0.067,-0.5312 0.13392,-0.7971 0.39851,-2.19303 1.46149,-4.32034 3.12335,-5.9152 0.46547,-0.46552 0.86415,-0.79711 1.3959,-1.12934 0.53191,-0.3992 0.99601,-0.66447 1.52793,-0.86407 0.53175,-0.1996 1.13063,-0.4655 1.66237,-0.59879 0.59889,-0.13272 1.19639,-0.26656 1.72814,-0.26656 0.26596,0 0.59819,-0.0651 0.86415,-0.0651 h 0.79702 c 0.66447,0.0663 1.32963,0.13204 1.92782,0.26528 1.26266,0.26589 2.45956,0.73077 3.65578,1.3959 2.32633,1.32893 4.31905,3.32234 5.51543,5.71558 0.59871,1.1963 0.99671,2.45958 1.26267,3.85546 0.067,0.3992 0.067,0.66319 0.13392,0.99607 v 1.79444 c 0,0.39922 -0.067,0.73144 -0.067,1.13063 -0.067,0.39922 -0.0652,0.73014 -0.13221,1.12936 -0.067,0.39854 -0.13392,0.73141 -0.2002,1.12996 -0.1322,0.73143 -0.46495,1.39591 -0.66395,2.1267 -0.53175,1.39588 -1.26387,2.72482 -2.12785,3.85416 -1.72813,2.39325 -4.18649,4.38795 -6.84437,5.65058 -1.39659,0.59814 -2.79248,1.12997 -4.25466,1.32894 a 12.233438,12.233438 0 0 1 -2.19361,0.19894 h -1.12994 c -0.39919,0 -0.79719,0.001 -1.19638,-0.0656 -1.5949,-0.13272 -3.12266,-0.4662 -4.65129,-0.86475 -1.52913,-0.46553 -2.99199,-0.99671 -4.38789,-1.72814 -2.79112,-1.46157 -5.24948,-3.58827 -7.24357,-5.98087 -0.93026,-1.26261 -1.86206,-2.59284 -2.5928,-3.92243 -0.73075,-1.32957 -1.26267,-2.85745 -1.66118,-4.31968 -0.46547,-1.46157 -0.66447,-2.99076 -0.73074,-4.51993 v -2.3263 c 0,-0.73077 0.0652,-1.52724 0.199,-2.32435 0.067,-0.79839 0.19882,-1.5298 0.39851,-2.32691 0.1322,-0.79776 0.39919,-1.52919 0.59871,-2.32695 0.46495,-1.52853 0.92974,-2.99011 1.59421,-4.38601 1.32893,-2.79115 2.99079,-5.25071 4.98489,-7.24477 a 16.096629,16.096629 0 0 1 1.59609,-1.3959 c 0.19969,-0.19959 0.73075,-0.6651 1.32894,-0.99733 0.5982,-0.33225 1.19639,-0.73143 1.86086,-0.99736 0.26647,-0.13272 0.59871,-0.26591 0.93094,-0.46487 0.13221,-0.0663 0.26459,-0.13255 0.53055,-0.19895 0.13392,-0.0663 0.26664,-0.13323 0.53191,-0.19959 0.66499,-0.26591 1.33014,-0.5312 1.99461,-0.73078 0.13393,-0.0663 0.3992,-0.067 0.53192,-0.13324 0.13393,-0.0663 0.39782,-0.0656 0.53055,-0.13204 0.39919,-0.0663 0.66498,-0.13392 0.9979,-0.26656 0.13221,-0.067 0.39851,-0.067 0.53123,-0.13323 0.13393,0 0.3992,-0.0656 0.53244,-0.0656 0.13392,0 0.39919,-0.0663 0.53192,-0.0663 l 0.26527,-0.067 0.26527,-0.0663 c 0.13221,0 0.3992,-0.067 0.53175,-0.067 0.19968,0 0.39919,-0.067 0.59888,-0.067 0.1322,0 0.4641,-0.0651 0.5975,-0.0651 0.13221,0 0.2002,0 0.3992,-0.067 h 0.46547 c 0.19951,0 0.39782,0 0.59751,-0.0663 h 2.992 c 1.32894,0.0663 2.65787,0.1996 3.85426,0.46553 2.45957,0.46487 4.91776,1.26261 7.0444,2.32627 2.12733,0.9967 4.12074,2.32501 5.71563,3.72154 0.067,0.0658 0.2002,0.13324 0.26665,0.26593 0.067,0.0663 0.19951,0.13255 0.26527,0.26527 0.19951,0.13324 0.3992,0.3992 0.59871,0.53183 0.19969,0.13324 0.3992,0.3992 0.59888,0.53247 0.13221,0.19962 0.39782,0.39793 0.53055,0.59687 0.73143,0.73143 1.39641,1.52917 1.99461,2.25997 a 26.656018,26.656018 0 0 1 2.85876,4.51993 c 0.0652,0.0663 0.0652,0.13324 0.1322,0.26656 0.067,0.0663 0.067,0.13204 0.13393,0.26527 0.067,0.13255 0.1322,0.3992 0.26527,0.53184 0.067,0.13255 0.13392,0.39919 0.19951,0.53183 0.067,0.13324 0.13393,0.3992 0.2002,0.53183 0.26596,0.66511 0.53192,1.32894 0.73092,1.99341 0.39919,0.9967 0.59802,1.9271 0.7977,2.65916 0.067,0.26527 0.3992,0.53118 0.66516,0.53118 0.39851,0 0.59682,-0.26654 0.59682,-0.6651 -0.19969,-1.13003 -0.19831,-2.05913 -0.26527,-3.18911 q -0.19969,-2.0945 -0.79719,-4.78649 c -0.3992,-1.79446 -1.19759,-3.65523 -2.12802,-5.7156 -0.99671,-1.99341 -2.2592,-4.12074 -3.92105,-6.04847 -0.66447,-0.79774 -1.39522,-1.52789 -2.12613,-2.32564 1.19638,-4.58561 -1.3959,-8.64066 -1.3959,-8.64066 -4.45297,-0.26526 -7.24529,1.39591 -8.24199,2.12668 -0.13221,-0.0663 -0.398,-0.13203 -0.53055,-0.19831 -0.73143,-0.26591 -1.52931,-0.59879 -2.32633,-0.86407 -0.79839,-0.19959 -1.59558,-0.53245 -2.39328,-0.66512 -0.79771,-0.19959 -1.66118,-0.39918 -2.59212,-0.53245 -0.13221,0 -0.26596,-0.0663 -0.46496,-0.0663 -1.86051,-6.11498 -7.44342,-8.77286 -7.44342,-8.77286"
       id="path1-931"
       style="stroke-width:0.643865" /><path
       fill="currentColor"
       d="m 813.34583,186.1987 c -1.43176,0 -2.5954,-1.1611 -2.5954,-2.58907 0,-1.42795 1.16364,-2.59077 2.5954,-2.59077 1.43049,0 2.59414,1.16282 2.59414,2.59077 0,1.42754 -1.16365,2.58907 -2.59414,2.58907 m -6.57403,15.74556 c -1.4305,0 -2.59372,-1.1611 -2.59372,-2.58908 0,-1.42794 1.16322,-2.58907 2.59372,-2.58907 1.43049,0 2.59542,1.16113 2.59542,2.58907 0,1.42798 -1.16493,2.58908 -2.59542,2.58908 m -15.77722,-2.62369 c -1.42923,0 -2.59245,-1.16112 -2.59245,-2.58907 0,-1.42797 1.16322,-2.59076 2.59245,-2.59076 1.43218,0 2.5954,1.16279 2.5954,2.59076 0,1.42752 -1.16322,2.58907 -2.5954,2.58907 m -6.57232,14.4337 c -1.42923,0 -2.59414,-1.16111 -2.59414,-2.58908 0,-1.42795 1.16491,-2.58907 2.59414,-2.58907 1.43175,0 2.59497,1.16112 2.59497,2.58907 0,1.42797 -1.16322,2.58908 -2.59497,2.58908 m 28.92357,-35.42919 c -2.91927,0 -5.29469,2.37078 -5.29469,5.28455 0,1.78601 0.89764,3.3609 2.26227,4.3185 l -2.47,6.25314 a 5.3200155,5.3200155 0 0 0 -1.07161,-0.10899 c -2.32138,0 -4.27712,1.50861 -4.98814,3.58975 l -5.52692,-1.25401 c -0.17136,-2.76008 -2.45227,-4.96111 -5.26216,-4.96111 -2.91755,0 -5.29173,2.37077 -5.29173,5.28454 0,1.36166 0.532,2.59286 1.3832,3.53063 l -2.41174,5.64513 c -0.0863,-0.005 -0.16596,-0.0254 -0.25205,-0.0254 -2.918,0 -5.29342,2.36952 -5.29342,5.28326 0,2.91251 2.37542,5.28329 5.29342,5.28329 2.91924,0 5.29468,-2.37078 5.29468,-5.28329 0,-1.8696 -0.98293,-3.50528 -2.45524,-4.44517 l 2.128,-4.98012 c 0.5109,0.16304 1.04205,0.27446 1.60488,0.27446 2.08283,0 3.87094,-1.216 4.73313,-2.9636 l 5.85497,1.32832 c 0.47879,2.42483 2.622,4.25939 5.18912,4.25939 2.91926,0 5.29468,-2.36951 5.29468,-5.28328 0,-1.57489 -0.70848,-2.97415 -1.80712,-3.944 l 2.59543,-6.56851 c 0.16461,0.0158 0.32258,0.0498 0.49104,0.0498 2.91755,0 5.29342,-2.37077 5.29342,-5.28286 0,-2.91376 -2.37544,-5.28454 -5.29342,-5.28454 m -14.62582,49.53568 c -13.14804,0 -22.97191,-3.94695 -22.97191,-7.47631 v -50.42489 c 4.4726,3.6345 13.94013,5.5552 23.00019,5.5552 9.01955,0 18.44695,-1.90465 22.94362,-5.50791 v 50.3776 c 0,3.52979 -9.82513,7.47631 -22.9719,7.47631 m 0.0284,-70.27404 c 13.52045,0 22.94362,4.0141 22.94362,7.61777 0,3.60155 -9.42317,7.61605 -22.94362,7.61605 -13.52171,0 -22.94362,-4.01407 -22.94362,-7.61605 0,-3.60367 9.42191,-7.61777 22.94362,-7.61777 m 25.6429,7.61777 c 0,-6.69773 -13.21138,-10.31196 -25.6429,-10.31196 -12.43152,0 -25.6429,3.61423 -25.6429,10.31196 0,0.0113 0.002,0.0227 0.002,0.0338 h -0.0594 v 55.14659 c 0,6.60569 13.22616,10.17011 25.67119,10.17011 12.44503,0 25.67118,-3.56442 25.67118,-10.17052 v -55.14661 h -0.002 c 0,-0.0113 0.002,-0.0227 0.002,-0.0338"
       id="path3-4"
       style="opacity:0.5;stroke-width:0.422223" /><path
       fill="currentColor"
       d="m 1158.9464,155.77585 a 7.476235,7.476235 0 0 1 7.4762,7.4762 c 0,2.7662 -1.4952,5.196 -3.7381,6.467 v 4.7474 h 3.7381 a 26.166822,26.166822 0 0 1 26.1669,26.1668 h 3.7381 a 3.7381175,3.7381175 0 0 1 3.7381,3.7381 v 11.2144 a 3.7381175,3.7381175 0 0 1 -3.7381,3.7381 h -3.7381 v 3.7381 a 7.476235,7.476235 0 0 1 -7.4763,7.4762 h -52.3336 a 7.476235,7.476235 0 0 1 -7.4763,-7.4762 v -3.7381 h -3.7381 a 3.7381175,3.7381175 0 0 1 -3.7381,-3.7381 v -11.2144 a 3.7381175,3.7381175 0 0 1 3.7381,-3.7381 h 3.7381 a 26.166822,26.166822 0 0 1 26.1669,-26.1668 h 3.7381 v -4.7474 c -2.2429,-1.271 -3.7381,-3.7008 -3.7381,-6.467 a 7.476235,7.476235 0 0 1 7.4762,-7.4762 m -16.8215,41.1193 a 9.3452937,9.3452937 0 0 0 -9.3453,9.3453 9.3452937,9.3452937 0 0 0 9.3453,9.3453 9.3452937,9.3452937 0 0 0 9.3453,-9.3453 9.3452937,9.3452937 0 0 0 -9.3453,-9.3453 m 33.643,0 a 9.3452937,9.3452937 0 0 0 -9.3453,9.3453 9.3452937,9.3452937 0 0 0 9.3453,9.3453 9.3452937,9.3452937 0 0 0 9.3453,-9.3453 9.3452937,9.3452937 0 0 0 -9.3453,-9.3453"
       id="path1-56"
       style="opacity:0.5;fill:currentColor;fill-opacity:1;stroke-width:3.73812" /><g
       fill="none"
       id="g2"
       transform="matrix(3.3925888,0,0,3.3925888,1019.6717,153.30209)"
       style="opacity:0.5;fill:currentColor;fill-opacity:1"><path
         d="m 12.594,23.258 -0.012,0.002 -0.071,0.035 -0.02,0.004 -0.014,-0.004 -0.071,-0.036 q -0.016,-0.004 -0.024,0.006 l -0.004,0.01 -0.017,0.428 0.005,0.02 0.01,0.013 0.104,0.074 0.015,0.004 0.012,-0.004 0.104,-0.074 0.012,-0.016 0.004,-0.017 -0.017,-0.427 Q 12.606,23.26 12.594,23.258 m 0.264,-0.113 -0.014,0.002 -0.184,0.093 -0.01,0.01 -0.003,0.011 0.018,0.43 0.005,0.012 0.008,0.008 0.201,0.092 q 0.019,0.005 0.029,-0.008 l 0.004,-0.014 -0.034,-0.614 q -0.005,-0.019 -0.02,-0.022 m -0.715,0.002 a 0.02,0.02 0 0 0 -0.027,0.006 l -0.006,0.014 -0.034,0.614 q 10e-4,0.018 0.017,0.024 l 0.015,-0.002 0.201,-0.093 0.01,-0.008 0.003,-0.011 0.018,-0.43 -0.003,-0.012 -0.01,-0.01 z"
         id="path1-29"
         style="fill:currentColor;fill-opacity:1" /><path
         fill="currentColor"
         d="m 9.112,3.161 a 4.498,4.498 0 0 1 7.65,3.658 4.5,4.5 0 0 1 3.662,7.656 l -5.303,5.304 0.707,0.707 A 1,1 0 1 1 14.414,21.9 l -0.707,-0.707 a 2,2 0 0 1 0,-2.83 l 5.304,-5.302 A 2.5003296,2.5003296 0 0 0 15.475,9.525 l -3.889,3.89 a 1,1 0 0 1 -1.173,0.178 l -0.004,-0.002 a 1,1 0 0 1 -0.242,-1.593 l 3.89,-3.89 A 2.498,2.498 0 0 0 10.527,4.575 L 4.514,10.588 A 1.0002026,1.0002026 0 0 1 3.1,9.173 Z m 2.474,2.475 A 1,1 0 0 1 13,7.05 l -3.89,3.89 a 2.5003297,2.5003297 0 0 0 3.537,3.535 l 3.888,-3.889 A 1.0002026,1.0002026 0 1 1 17.95,12 l -3.888,3.889 A 4.5003811,4.5003811 0 0 1 7.697,9.525 Z"
         id="path2"
         style="fill:currentColor;fill-opacity:1" /></g><rect
       style="fill:#000000;fill-opacity:0;fill-rule:evenodd;stroke:currentColor;stroke-width:1.80308;stroke-linejoin:round;stroke-dasharray:none;stroke-dashoffset:0;stroke-opacity:1"
       id="rect150-6"
       width="595.63654"
       height="270.3989"
       x="640.84552"
       y="13.508507"
       ry="52.424274" /></g><g
     id="bus"
     transform="translate(-639.94395,-12.606967)"><g
       stroke-opacity="0.4"
       fill-opacity="0.4"
       transform="translate(2450.1114,782.66147)"
       id="g120"
       style="opacity:0.5;fill:currentColor;fill-opacity:1"><text
         x="22.804047"
         y="48.888844"
         font-family="Excalifont, Xiaolai, 'Segoe UI Emoji'"
         font-size="55.4924px"
         fill="currentColor"
         text-anchor="middle"
         style="white-space:pre;fill:currentColor;fill-opacity:1"
         direction="ltr"
         dominant-baseline="alphabetic"
         id="text120">...</text></g><g
       mask="url(#mask-0JSMg4UIlDC8vBiqDU188)"
       stroke-linecap="round"
       id="g124"
       style="opacity:0.5;fill:currentColor;fill-opacity:1"><g
         stroke-opacity="0.4"
         fill-opacity="0.4"
         transform="translate(2056.837,809.43994)"
         id="g121"
         style="fill:currentColor;fill-opacity:1"><path
           d="M 0.22,0.76 C 64.53,1.63 322.81,4.45 387.03,5.54 M -1.12,0.12 C 63.03,1.07 322.4,5.63 386.7,6.5"
           stroke="currentColor"
           stroke-width="1"
           fill="none"
           id="path120"
           style="fill:currentColor;fill-opacity:1" /></g><g
         stroke-opacity="0.4"
         fill-opacity="0.4"
         transform="translate(2056.837,809.43994)"
         id="g122"
         style="fill:currentColor;fill-opacity:1"><path
           d="M 363.07,14.68 C 373.74,13.32 380.04,7.61 386.7,6.5 m -23.63,8.18 c 9.09,-1.95 15.92,-6.33 23.63,-8.18"
           stroke="currentColor"
           stroke-width="1"
           fill="none"
           id="path121"
           style="fill:currentColor;fill-opacity:1" /></g><g
         stroke-opacity="0.4"
         fill-opacity="0.4"
         transform="translate(2056.837,809.43994)"
         id="g123"
         style="fill:currentColor;fill-opacity:1"><path
           d="m 363.34,-2.42 c 10.61,5.46 16.8,6.56 23.36,8.92 m -23.36,-8.92 c 9.04,4.11 15.77,5.8 23.36,8.92"
           stroke="currentColor"
           stroke-width="1"
           fill="none"
           id="path122"
           style="fill:currentColor;fill-opacity:1" /></g></g><g
       stroke-opacity="0.4"
       fill-opacity="0.4"
       transform="translate(2114.7234,777.76397)"
       id="g126"
       style="opacity:0.5;fill:currentColor;fill-opacity:1"><text
         x="135.04453"
         y="24.667999"
         font-family="Excalifont, Xiaolai, 'Segoe UI Emoji'"
         font-size="28px"
         fill="currentColor"
         text-anchor="middle"
         style="white-space:pre;fill:currentColor;fill-opacity:1"
         direction="ltr"
         dominant-baseline="alphabetic"
         id="text125">Message consummed</text><text
         x="135.04453"
         y="59.667999"
         font-family="Excalifont, Xiaolai, 'Segoe UI Emoji'"
         font-size="28px"
         fill="currentColor"
         text-anchor="middle"
         style="white-space:pre;fill:currentColor;fill-opacity:1"
         direction="ltr"
         dominant-baseline="alphabetic"
         id="text126">by system X</text></g><g
       stroke-opacity="0.4"
       fill-opacity="0.4"
       transform="translate(1761.6156,727.77247)"
       id="g135"><text
         x="82.796349"
         y="24.667999"
         font-family="Virgil, Segoe UI Emoji"
         font-size="28px"
         fill="currentColor"
         text-anchor="middle"
         style="font-style:normal;font-variant:normal;font-weight:normal;font-stretch:normal;font-family:Excalifont, Xiaolai, 'Comic Sans MS', sans-serif;-inkscape-font-specification:'Excalifont, Xiaolai, Segoe UI Emoji';white-space:pre;opacity:0.5;fill:currentColor;fill-opacity:1"
         direction="ltr"
         dominant-baseline="alphabetic"
         id="text134">BUS System</text><text
         x="82.796349"
         y="59.667999"
         font-family="Virgil, 'Segoe UI Emoji'"
         font-size="28px"
         fill="currentColor"
         text-anchor="middle"
         style="white-space:pre"
         direction="ltr"
         dominant-baseline="alphabetic"
         id="text135" /></g><g
       stroke-opacity="0.4"
       fill-opacity="0.4"
       transform="translate(1896.7452,773.3063)"
       id="g136"
       style="opacity:0.5;fill:currentColor;fill-opacity:1"><text
         x="22.804047"
         y="48.888844"
         font-family="Excalifont, Xiaolai, 'Comic Sans MS', sans-serif"
         font-size="55.4924px"
         fill="currentColor"
         text-anchor="middle"
         style="white-space:pre;fill:currentColor;fill-opacity:1"
         direction="ltr"
         dominant-baseline="alphabetic"
         id="text136">...</text></g><path
       fill="currentColor"
       d="m 1836.4979,823.63126 c -2.6601,0 -5.0855,0.97799 -6.9632,2.621 l -5.0464,-2.93395 c 0.3521,-1.13446 0.5086,-2.34716 0.5086,-3.59898 0,-1.25181 -0.1565,-2.46451 -0.3912,-3.59897 l 4.8116,-2.85571 c 1.8778,1.72125 4.3814,2.66011 7.0806,2.66011 5.8288,0 10.5622,-4.65519 10.5622,-10.48397 0,-5.82877 -4.7334,-10.52309 -10.5622,-10.52309 -5.8287,0 -10.5622,4.73344 -10.5622,10.56221 0,0.66503 0.078,1.44742 0.1956,2.15156 l -4.8899,2.81659 c -1.6821,-1.76037 -3.9119,-3.0513 -6.4156,-3.71633 v -5.43758 a 10.581769,10.581769 0 0 0 7.3545,-10.05366 c 0,-5.82877 -4.7335,-10.52309 -10.5622,-10.52309 -5.8288,0 -10.484,4.69432 -10.484,10.52309 0,4.69431 2.9731,8.64536 7.1979,10.05366 v 5.4767 a 13.378798,13.378798 0 0 0 -10.0927,12.94848 c 0,6.25909 4.3031,11.50108 10.0927,12.94849 v 5.6723 a 10.52309,10.52309 0 0 0 -7.1979,10.05366 c 0,5.82877 4.6552,10.5622 10.484,10.5622 5.8287,0 10.5622,-4.73343 10.5622,-10.5622 0,-4.69432 -3.0905,-8.68449 -7.3545,-10.05366 v -5.63318 c 2.5037,-0.62591 4.6944,-1.91685 6.4156,-3.67721 l 4.929,2.8557 c -0.1564,0.74327 -0.2347,1.48654 -0.2347,2.26892 0,5.82878 4.7335,10.56221 10.5622,10.56221 5.8288,0 10.5622,-4.73343 10.5622,-10.56221 0,-5.82877 -4.7334,-10.52309 -10.5622,-10.52309 m 0,-23.35421 c 2.8949,0 5.2029,2.30803 5.2029,5.16374 0,2.85571 -2.308,5.24199 -5.2029,5.24199 -2.8948,0 -5.2028,-2.34716 -5.2028,-5.24199 0,-2.89482 2.308,-5.16374 5.2028,-5.16374 m -30.0827,-9.03656 c 0,-2.89483 2.308,-5.24199 5.2029,-5.24199 2.8948,0 5.1637,2.34716 5.1637,5.24199 0,2.89483 -2.2689,5.24198 -5.1637,5.24198 -2.8949,0 -5.2029,-2.34715 -5.2029,-5.24198 m 10.3666,57.15329 c 0,2.89482 -2.2689,5.24198 -5.1637,5.24198 -2.8949,0 -5.2029,-2.34716 -5.2029,-5.24198 0,-2.89483 2.308,-5.24199 5.2029,-5.24199 2.8948,0 5.1637,2.34716 5.1637,5.24199 m -5.1637,-21.16354 a 7.5128603,7.5128603 0 1 1 0,-15.02572 7.5128603,7.5128603 0 0 1 0,15.02572 m 24.8798,12.1661 c -2.8948,0 -5.2028,-2.34716 -5.2028,-5.24199 0,-2.89482 2.308,-5.20286 5.2028,-5.20286 2.8949,0 5.2029,2.34715 5.2029,5.20286 0,2.85571 -2.308,5.24199 -5.2029,5.24199"
       id="path1-36"
       style="opacity:0.5;stroke-width:3.91193" /><path
       fill="currentColor"
       d="m 1744.895,777.67334 h -81.4806 v 66.08113 h 34.9165 l 6.0195,5.6275 v -0.0908 l 13.736,12.70886 V 843.7545 h 26.8086 z m -14.0996,50.77188 h -14.7638 l -29.8061,-27.8673 v 27.8673 h -9.7728 v -35.40071 h 15.2804 l 29.3193,27.35017 v -27.35017 h 9.7436 z"
       id="path1-12"
       style="opacity:0.5;stroke-width:0.658802" /><rect
       style="opacity:0.5;fill:#000000;fill-opacity:0;fill-rule:evenodd;stroke:currentColor;stroke-width:1.22946;stroke-linejoin:round;stroke-dasharray:9.83564, 4.91784;stroke-dashoffset:0;stroke-opacity:1"
       id="rect150-4"
       width="443.25604"
       height="168.93906"
       x="1611.7922"
       y="720.91583"
       ry="32.75349" /></g></svg>
