<?xml version="1.0" encoding="UTF-8" standalone="no"?>
<svg
   version="1.1"
   viewBox="0 0 1276.9435261799185 1548.0515223112866"
   width="1276.9435261799185"
   height="1548.0515223112866"
   id="svg53"
   sodipodi:docname="DbConceptual.svg"
   xml:space="preserve"
   inkscape:version="1.4.4 (dcaf3e7d9e, 2026-05-05)"
   xmlns:inkscape="http://www.inkscape.org/namespaces/inkscape"
   xmlns:sodipodi="http://sodipodi.sourceforge.net/DTD/sodipodi-0.dtd"
   xmlns="http://www.w3.org/2000/svg"
   xmlns:svg="http://www.w3.org/2000/svg"><sodipodi:namedview
     id="namedview53"
     pagecolor="#ffffff"
     bordercolor="#666666"
     borderopacity="1.0"
     inkscape:showpageshadow="2"
     inkscape:pageopacity="0.0"
     inkscape:pagecheckerboard="true"
     inkscape:deskcolor="#d1d1d1"
     showgrid="false"
     inkscape:zoom="0.73576363"
     inkscape:cx="636.75341"
     inkscape:cy="610.9299"
     inkscape:window-width="1691"
     inkscape:window-height="1347"
     inkscape:window-x="0"
     inkscape:window-y="0"
     inkscape:window-maximized="1"
     inkscape:current-layer="svg53" /><defs
     id="defs2" /><g
     stroke-linecap="round"
     transform="translate(211.44582220610891 746.5929272918751) rotate(0 93.35359072135134 25.675448492581083)"
     id="g2"><path
       d="M0 0 C42.94 -1.8, 89.09 -2.18, 186.71 0 M0 0 C56.87 0.8, 111.36 0.2, 186.71 0 M186.71 0 C186.15 16.96, 186.85 29.22, 186.71 51.35 M186.71 0 C185.83 15.2, 186.85 29.3, 186.71 51.35 M186.71 51.35 C115.26 52.51, 40.5 52.03, 0 51.35 M186.71 51.35 C134.84 52.73, 84.5 52.67, 0 51.35 M0 51.35 C1.9 30.52, 1.65 8.96, 0 0 M0 51.35 C0.17 40.66, -1 28.48, 0 0"
       stroke="currentColor"
       stroke-width="2"
       fill="none"
       id="path2" /></g><g
     transform="translate(275.2660801027532 762.2683757844561) rotate(0 29.53333282470703 10)"
     id="g3"><text
       x="29.53333282470703"
       y="14.096"
       font-family="Excalifont, Xiaolai, Segoe UI Emoji"
       font-size="16px"
       fill="currentColor"
       text-anchor="middle"
       style="white-space: pre;"
       direction="ltr"
       dominant-baseline="alphabetic"
       id="text2">taskrun</text></g><g
     stroke-linecap="round"
     id="g6"><g
       transform="translate(324.4503760310748 813.9438242770372) rotate(0 91.20874813130759 37.5482380692339)"
       id="g4"><path
         d="M-0.76 0.51 C29.72 13.16, 151.14 63.3, 181.76 75.71 M1.04 -0.27 C32.02 12.04, 153.88 61.16, 184.13 73.91"
         stroke="currentColor"
         stroke-width="2"
         fill="none"
         id="path3" /></g><g
       transform="translate(324.4503760310748 813.9438242770372) rotate(0 91.20874813130759 37.5482380692339)"
       id="g5"><path
         d="M184.39 72.1 L167.32 75.3 L175.1 61.98 L185.97 72.3"
         stroke="none"
         stroke-width="0"
         fill="#fdf8f6"
         fill-rule="evenodd"
         id="path4" /><path
         d="M184.13 73.91 C181.71 73.14, 178.79 74.82, 169.14 74.61 M184.13 73.91 C180.13 74.74, 175.48 74.27, 169.14 74.61 M169.14 74.61 C171.4 70.18, 172.15 67.71, 173.96 62.88 M169.14 74.61 C169.96 71.56, 171.9 67.85, 173.96 62.88 M173.96 62.88 C176.01 65.9, 179.82 66.69, 184.13 73.91 M173.96 62.88 C176.38 65.91, 180.17 69.71, 184.13 73.91 M184.13 73.91 C184.13 73.91, 184.13 73.91, 184.13 73.91 M184.13 73.91 C184.13 73.91, 184.13 73.91, 184.13 73.91"
         stroke="currentColor"
         stroke-width="2"
         fill="none"
         id="path5" /></g></g><mask
     id="mask6" /><g
     stroke-linecap="round"
     transform="translate(533.0117102679785 1184.190569196428) rotate(0 130.61997767857144 52.36774553571428)"
     id="g7"><path
       d="M161.84 1.42 C177.51 2.29, 194.31 7.24, 207.86 11.09 C221.4 14.94, 234.44 18.96, 243.12 24.52 C251.8 30.08, 257.52 37.56, 259.92 44.46 C262.32 51.37, 261.58 59.58, 257.51 65.93 C253.44 72.28, 245.27 77.38, 235.52 82.56 C225.77 87.75, 213.09 93.56, 198.99 97.04 C184.89 100.52, 167.68 102.36, 150.93 103.45 C134.18 104.53, 114.83 104.98, 98.5 103.55 C82.18 102.12, 66.13 99.02, 52.98 94.86 C39.83 90.71, 28.17 84.51, 19.62 78.6 C11.07 72.68, 4.18 66, 1.68 59.37 C-0.82 52.73, 0.77 45.19, 4.64 38.8 C8.51 32.4, 15.19 26.13, 24.9 21.01 C34.62 15.89, 48.62 11.32, 62.91 8.07 C77.21 4.83, 91.32 2.17, 110.69 1.55 C130.06 0.92, 165.28 3.1, 179.13 4.31 C192.97 5.52, 194.46 8.11, 193.75 8.79 M107.32 0.9 C122.36 -1.5, 141.15 -1.73, 157 -0.3 C172.85 1.14, 188.5 5.65, 202.41 9.5 C216.33 13.35, 230.84 17.54, 240.47 22.83 C250.11 28.12, 257.21 34.68, 260.25 41.22 C263.28 47.77, 262.39 55.5, 258.67 62.1 C254.94 68.7, 247.3 75.21, 237.89 80.83 C228.49 86.44, 216.12 91.86, 202.22 95.79 C188.32 99.71, 170.82 102.85, 154.49 104.38 C138.16 105.91, 120.41 106.43, 104.22 104.99 C88.03 103.54, 71.22 99.54, 57.35 95.71 C43.48 91.88, 30.18 87.44, 21.01 81.99 C11.84 76.53, 5.58 69.67, 2.33 62.99 C-0.92 56.31, -1.99 48.39, 1.5 41.89 C4.98 35.39, 13.7 29.49, 23.24 23.99 C32.77 18.49, 44.77 12.79, 58.72 8.89 C72.66 4.99, 98.88 1.95, 106.91 0.59 C114.93 -0.78, 106.75 -0.1, 106.87 0.71"
       stroke="currentColor"
       stroke-width="2"
       fill="none"
       id="path6" /></g><g
     transform="translate(592.9527503221825 1224.0287267483873) rotate(0 70.81666564941403 12.5)"
     id="g8"><text
       x="70.81666564941406"
       y="17.619999999999997"
       font-family="Excalifont, Xiaolai, Segoe UI Emoji"
       font-size="20px"
       fill="currentColor"
       text-anchor="middle"
       style="white-space: pre;"
       direction="ltr"
       dominant-baseline="alphabetic"
       id="text7">store_cdevent</text></g><g
     mask="url(#mask-33FfvQrOFofXabISiCXoL)"
     stroke-linecap="round"
     id="g12"><g
       transform="translate(658.9773355162292 1177.7978426847428) rotate(0 -0.7807330291201424 -48.75905224021534)"
       id="g9"><path
         d="M0.15 -0.18 C0.04 -6.92, 0.02 -23.43, -0.1 -39.52 C-0.21 -55.61, -0.14 -87.09, -0.55 -96.73 M-1.22 -1.32 C-1.56 -7.96, -1.19 -21.93, -1.12 -38.15 C-1.04 -54.37, -0.48 -88.99, -0.76 -98.65"
         stroke="currentColor"
         stroke-width="2"
         fill="none"
         id="path8" /></g><g
       transform="translate(658.9773355162292 1177.7978426847428) rotate(0 -0.7807330291201424 -48.75905224021534)"
       id="g10"><path
         d="M7.89 -75.2 C4.4 -83.59, 1.15 -89.79, -0.76 -98.65 M7.89 -75.2 C4.84 -83.68, 2.73 -92.59, -0.76 -98.65"
         stroke="currentColor"
         stroke-width="2"
         fill="none"
         id="path9" /></g><g
       transform="translate(658.9773355162292 1177.7978426847428) rotate(0 -0.7807330291201424 -48.75905224021534)"
       id="g11"><path
         d="M-9.21 -75.12 C-6.74 -83.56, -4.03 -89.79, -0.76 -98.65 M-9.21 -75.12 C-6 -83.65, -1.85 -92.6, -0.76 -98.65"
         stroke="currentColor"
         stroke-width="2"
         fill="none"
         id="path10" /></g></g><mask
     id="mask-33FfvQrOFofXabISiCXoL"><rect
       x="0"
       y="0"
       fill="#fff"
       width="760.6142928507531"
       height="1375.3159471651734"
       id="rect12" /><rect
       x="627.5567471852548"
       y="1126.095145089285"
       fill="#000"
       width="62.91666793823242"
       height="25"
       opacity="1"
       id="rect13" /></mask><g
     transform="translate(627.5567471852548 1126.0951450892853) rotate(0 30.816902454244882 2.285591009363486)"
     id="g13"><text
       x="31.45833396911621"
       y="17.619999999999997"
       font-family="Excalifont, Xiaolai, Segoe UI Emoji"
       font-size="20px"
       fill="currentColor"
       text-anchor="middle"
       style="white-space: pre;"
       direction="ltr"
       dominant-baseline="alphabetic"
       id="text13">Insert</text></g><g
     stroke-linecap="round"
     transform="translate(10 492.3976004464281) rotate(0 628.4717630899593 431.8537946428571)"
     id="g14"><path
       d="M32 0 C295.13 1.11, 557.91 -0.38, 1224.94 0 M1224.94 0 C1248.05 -0.34, 1258.47 9.27, 1256.94 32 M1256.94 32 C1258.32 212.36, 1257.39 391.53, 1256.94 831.71 M1256.94 831.71 C1255.27 854.67, 1244.29 862.56, 1224.94 863.71 M1224.94 863.71 C901.32 867.07, 578.15 866.73, 32 863.71 M32 863.71 C9.34 865.53, 0.88 852.53, 0 831.71 M0 831.71 C-1.18 622.29, -1.86 412.21, 0 32 M0 32 C-1.83 11.35, 11.8 -0.91, 32 0"
       stroke="currentColor"
       stroke-width="2.5"
       fill="none"
       stroke-dasharray="8 10"
       id="path13" /></g><g
     transform="translate(45.06737407521837 538.5135880235729) rotate(0 91.87133751914051 18.403639383647985)"
     id="g15"><text
       x="0"
       y="25.9417700751902"
       font-family="Excalifont, Xiaolai, Segoe UI Emoji"
       font-size="29.445823013836776px"
       fill="currentColor"
       text-anchor="start"
       style="white-space: pre;"
       direction="ltr"
       dominant-baseline="alphabetic"
       id="text14">cdviz schema</text></g><g
     transform="translate(496.6911187501221 10) rotate(0 141.22805786132812 22.5)"
     id="g16"><text
       x="0"
       y="31.716"
       font-family="Excalifont, Xiaolai, Segoe UI Emoji"
       font-size="36px"
       fill="currentColor"
       text-anchor="start"
       style="white-space: pre;"
       direction="ltr"
       dominant-baseline="alphabetic"
       id="text15">CDviz Database</text></g><g
     transform="translate(489.8415093751213 72.62918526785722) rotate(0 145.2198486328125 12.5)"
     id="g17"><text
       x="0"
       y="17.619999999999997"
       font-family="Excalifont, Xiaolai, Segoe UI Emoji"
       font-size="20px"
       fill="currentColor"
       text-anchor="start"
       style="white-space: pre;"
       direction="ltr"
       dominant-baseline="alphabetic"
       id="text16">(evidence store for cdevents)</text></g><g
     transform="translate(730.4826714569349 171.99785489043097) rotate(0 76.49999999999994 76.49999999999994)"
     id="g19"><path
       fill="currentColor"
       d="M 120.23235,96.617883 V 35.105837 H 27.964289 v 61.512046 z m 0,-71.764055 a 10.252008,10.252008 0 0 1 10.25201,10.252009 V 96.617883 A 10.252008,10.252008 0 0 1 120.23235,106.86989 H 84.350328 v 10.25201 h 10.252008 v 10.25201 H 53.594307 V 117.1219 H 63.846312 V 106.86989 H 27.964289 A 10.252008,10.252008 0 0 1 17.71228,96.617883 V 35.105837 c 0,-5.68986 4.562149,-10.252009 10.252009,-10.252009 z M 38.216295,45.357847 H 84.350328 V 70.987865 H 38.216295 Z m 51.260037,0 H 109.98034 V 55.609856 H 89.476332 Z M 109.98034,60.735855 V 86.365873 H 89.476332 V 60.735855 Z M 38.216295,76.113864 H 58.720309 V 86.365873 H 38.216295 Z m 25.630017,0 H 84.350328 V 86.365873 H 63.846312 Z"
       id="path1"
       style="stroke-width:5.126" /></g><g
     stroke-linecap="round"
     transform="translate(520.7696950019385 860.2258394916519) rotate(0 138.35359072135134 94.1754484925811)"
     id="g20"><path
       d="M0 0 C73.33 -0.99, 149.98 0.44, 276.71 0 M0 0 C66 -0.89, 133.45 -0.85, 276.71 0 M276.71 0 C278.94 75.11, 279.47 150.04, 276.71 188.35 M276.71 0 C277.05 48.47, 277.38 97.64, 276.71 188.35 M276.71 188.35 C208.7 190.77, 141.57 190.11, 0 188.35 M276.71 188.35 C172.83 187.83, 69.8 188.54, 0 188.35 M0 188.35 C-0.1 148.8, -0.78 103.54, 0 0 M0 188.35 C-0.38 114.37, 0.66 41.75, 0 0"
       stroke="currentColor"
       stroke-width="2"
       fill="none"
       id="path19" /></g><g
     transform="translate(604.1399521356434 865.2258394916519) rotate(0 54.983333587646484 20)"
     id="g21"><text
       x="54.983333587646484"
       y="14.096"
       font-family="Excalifont, Xiaolai, Segoe UI Emoji"
       font-size="16px"
       fill="currentColor"
       text-anchor="middle"
       style="white-space: pre;"
       direction="ltr"
       dominant-baseline="alphabetic"
       id="text20">cdevents_lake</text><text
       x="54.983333587646484"
       y="34.096000000000004"
       font-family="Excalifont, Xiaolai, Segoe UI Emoji"
       font-size="16px"
       fill="currentColor"
       text-anchor="middle"
       style="white-space: pre;"
       direction="ltr"
       dominant-baseline="alphabetic"
       id="text21" /></g><g
     transform="translate(561.6399559503407 908.401287984233) rotate(0 103.10832977294922 50)"
     id="g25"><text
       x="0"
       y="17.619999999999997"
       font-family="Excalifont, Xiaolai, Segoe UI Emoji"
       font-size="20px"
       fill="currentColor"
       text-anchor="start"
       style="white-space: pre;"
       direction="ltr"
       dominant-baseline="alphabetic"
       id="text22">timestamp: DateTime</text><text
       x="0"
       y="42.62"
       font-family="Excalifont, Xiaolai, Segoe UI Emoji"
       font-size="20px"
       fill="currentColor"
       text-anchor="start"
       style="white-space: pre;"
       direction="ltr"
       dominant-baseline="alphabetic"
       id="text23">payload: JSON</text><text
       x="0"
       y="67.62"
       font-family="Excalifont, Xiaolai, Segoe UI Emoji"
       font-size="20px"
       fill="currentColor"
       text-anchor="start"
       style="white-space: pre;"
       direction="ltr"
       dominant-baseline="alphabetic"
       id="text24">subject: String</text><text
       x="0"
       y="92.62"
       font-family="Excalifont, Xiaolai, Segoe UI Emoji"
       font-size="20px"
       fill="currentColor"
       text-anchor="start"
       style="white-space: pre;"
       direction="ltr"
       dominant-baseline="alphabetic"
       id="text25">predicate: String</text></g><g
     stroke-linecap="round"
     transform="translate(854.2817025780321 750.3760738187054) rotate(0 93.35359072135134 25.675448492581083)"
     id="g26"><path
       d="M0 0 C55.08 1.38, 112.02 1.75, 186.71 0 M0 0 C58.57 0.17, 117.46 -0.51, 186.71 0 M186.71 0 C186.06 11.97, 185.6 25.99, 186.71 51.35 M186.71 0 C186.42 20.31, 186.21 40.82, 186.71 51.35 M186.71 51.35 C122.5 50.72, 54.65 48.39, 0 51.35 M186.71 51.35 C114.92 51.32, 41.67 51.29, 0 51.35 M0 51.35 C0.18 41.88, 1.24 27.68, 0 0 M0 51.35 C0.74 34.13, -0.88 18.16, 0 0"
       stroke="currentColor"
       stroke-width="2"
       fill="none"
       id="path25" /></g><g
     transform="translate(941.0602934901183 766.0515223112866) rotate(0 6.574999809265137 10)"
     id="g27"><text
       x="6.574999809265137"
       y="14.096"
       font-family="Excalifont, Xiaolai, Segoe UI Emoji"
       font-size="16px"
       fill="currentColor"
       text-anchor="middle"
       style="white-space: pre;"
       direction="ltr"
       dominant-baseline="alphabetic"
       id="text26">...</text></g><g
     stroke-linecap="round"
     id="g30"><g
       transform="translate(956.3890598728269 813.3278316920317) rotate(0 -68.50933956144723 50.362152548459235)"
       id="g28"><path
         d="M-0.59 1.19 C-23.16 17.94, -113.57 84.91, -136.39 101.63 M1.3 0.77 C-21.29 17.7, -113.7 83.51, -137 99.98"
         stroke="currentColor"
         stroke-width="2"
         fill="none"
         id="path27" /></g><g
       transform="translate(956.3890598728269 813.3278316920317) rotate(0 -68.50933956144723 50.362152548459235)"
       id="g29"><path
         d="M-138.72 99.28 L-130.03 88 L-120.84 98.57 L-135.67 101.7"
         stroke="none"
         stroke-width="0"
         fill="#fdf8f6"
         fill-rule="evenodd"
         id="path28" /><path
         d="M-137 99.98 C-134 97.93, -132.73 93.65, -129.59 86.94 M-137 99.98 C-134.08 95.13, -131.86 90.7, -129.59 86.94 M-129.59 86.94 C-126.47 91.38, -124.61 94.37, -122.25 97.28 M-129.59 86.94 C-127.44 88.87, -126.59 91.61, -122.25 97.28 M-122.25 97.28 C-126.67 96.87, -131.62 97.68, -137 99.98 M-122.25 97.28 C-125.13 98.18, -128.28 97.98, -137 99.98 M-137 99.98 C-137 99.98, -137 99.98, -137 99.98 M-137 99.98 C-137 99.98, -137 99.98, -137 99.98"
         stroke="currentColor"
         stroke-width="2"
         fill="none"
         id="path29" /></g></g><mask
     id="mask30" /><g
     stroke-linecap="round"
     id="g32"><g
       transform="translate(474.88408750012127 303.8440290178572) rotate(0 78.37590903770013 49.053746646714686)"
       id="g31"><path
         d="M0 0 C0 19.11, 0 38.21, 0 82.11 M0 82.11 C0 92.77, 5.33 98.11, 16 98.11 M16 98.11 C57.6 98.11, 99.19 98.11, 156.75 98.11"
         stroke="currentColor"
         stroke-width="1.5"
         fill="none"
         stroke-dasharray="1.5 7"
         id="path30" /></g></g><mask
     id="mask32" /><g
     stroke-linecap="round"
     id="g36"><g
       transform="translate(642.5352932993834 414.05055002153955) rotate(0 0.05000000000001137 220.58764473505613)"
       id="g33"><path
         d="M0 0 C0.03 139.06, 0.06 278.13, 0.1 441.18"
         stroke="currentColor"
         stroke-width="1.5"
         fill="none"
         stroke-dasharray="1.5 7"
         id="path32" /></g><g
       transform="translate(642.5352932993834 414.05055002153955) rotate(0 0.05000000000001137 220.58764473505613)"
       id="g34"><path
         d="M-8.46 417.68 C-5.76 425.09, -3.06 432.49, 0.1 441.18"
         stroke="currentColor"
         stroke-width="1.5"
         fill="none"
         stroke-dasharray="1.5 5"
         id="path33" /></g><g
       transform="translate(642.5352932993834 414.05055002153955) rotate(0 0.05000000000001137 220.58764473505613)"
       id="g35"><path
         d="M8.65 417.68 C5.95 425.09, 3.26 432.49, 0.1 441.18"
         stroke="currentColor"
         stroke-width="1.5"
         fill="none"
         stroke-dasharray="1.5 5"
         id="path34" /></g></g><mask
     id="mask36" /><g
     stroke-linecap="round"
     id="g40"><g
       transform="translate(642.5352932993834 414.05055002153955) rotate(0 -168.91794018596158 163.77118863516776)"
       id="g37"><path
         d="M0 0 C0 54.88, 0 109.75, 0 147.77 M0 147.77 C0 158.44, -5.33 163.77, -16 163.77 M-16 163.77 C-99.45 163.77, -182.91 163.77, -321.84 163.77 M-321.84 163.77 C-332.5 163.77, -337.84 169.11, -337.84 179.77 M-337.84 179.77 C-337.84 211.29, -337.84 242.81, -337.84 327.54"
         stroke="currentColor"
         stroke-width="1.5"
         fill="none"
         stroke-dasharray="1.5 7"
         id="path36" /></g><g
       transform="translate(642.5352932993834 414.05055002153955) rotate(0 -168.91794018596158 163.77118863516776)"
       id="g38"><path
         d="M-346.39 304.05 C-343.21 312.77, -340.04 321.5, -337.84 327.54"
         stroke="currentColor"
         stroke-width="1.5"
         fill="none"
         stroke-dasharray="1.5 5"
         id="path37" /></g><g
       transform="translate(642.5352932993834 414.05055002153955) rotate(0 -168.91794018596158 163.77118863516776)"
       id="g39"><path
         d="M-329.29 304.05 C-332.46 312.77, -335.64 321.5, -337.84 327.54"
         stroke="currentColor"
         stroke-width="1.5"
         fill="none"
         stroke-dasharray="1.5 5"
         id="path38" /></g></g><mask
     id="mask40" /><g
     stroke-linecap="round"
     transform="translate(636.6352932993834 395.0515223112866) rotate(0 6 7)"
     id="g41"><path
       d="M12 7 C12 7.41, 11.97 7.82, 11.91 8.22 C11.85 8.61, 11.76 9.01, 11.64 9.39 C11.52 9.77, 11.37 10.15, 11.2 10.5 C11.02 10.85, 10.82 11.19, 10.6 11.5 C10.37 11.81, 10.12 12.1, 9.86 12.36 C9.59 12.62, 9.3 12.86, 9 13.06 C8.7 13.26, 8.38 13.44, 8.05 13.58 C7.73 13.72, 7.38 13.82, 7.04 13.89 C6.7 13.96, 6.35 14, 6 14 C5.65 14, 5.3 13.96, 4.96 13.89 C4.62 13.82, 4.27 13.72, 3.95 13.58 C3.62 13.44, 3.3 13.26, 3 13.06 C2.7 12.86, 2.41 12.62, 2.14 12.36 C1.88 12.1, 1.63 11.81, 1.4 11.5 C1.18 11.19, 0.98 10.85, 0.8 10.5 C0.63 10.15, 0.48 9.77, 0.36 9.39 C0.24 9.01, 0.15 8.61, 0.09 8.22 C0.03 7.82, 0 7.41, 0 7 C0 6.59, 0.03 6.18, 0.09 5.78 C0.15 5.39, 0.24 4.99, 0.36 4.61 C0.48 4.23, 0.63 3.85, 0.8 3.5 C0.98 3.15, 1.18 2.81, 1.4 2.5 C1.63 2.19, 1.88 1.9, 2.14 1.64 C2.41 1.38, 2.7 1.14, 3 0.94 C3.3 0.74, 3.62 0.56, 3.95 0.42 C4.27 0.28, 4.62 0.18, 4.96 0.11 C5.3 0.04, 5.65 0, 6 0 C6.35 0, 6.7 0.04, 7.04 0.11 C7.38 0.18, 7.73 0.28, 8.05 0.42 C8.38 0.56, 8.7 0.74, 9 0.94 C9.3 1.14, 9.59 1.38, 9.86 1.64 C10.12 1.9, 10.37 2.19, 10.6 2.5 C10.82 2.81, 11.02 3.15, 11.2 3.5 C11.37 3.85, 11.52 4.23, 11.64 4.61 C11.76 4.99, 11.85 5.39, 11.91 5.78 C11.97 6.18, 11.98 6.8, 12 7 C12.02 7.2, 12.02 6.8, 12 7"
       stroke="currentColor"
       stroke-width="1.5"
       fill="none"
       stroke-dasharray="1.5 7"
       id="path40" /></g><g
     stroke-linecap="round"
     id="g43"><g
       transform="translate(806.8826714569349 329.9978548904308) rotate(0 -78.07845281786257 33.026833710427894)"
       id="g42"><path
         d="M0 0 C0 15.34, 0 30.68, 0 50.05 M0 50.05 C0 60.72, -5.33 66.05, -16 66.05 M-16 66.05 C-49.11 66.05, -82.22 66.05, -156.16 66.05"
         stroke="currentColor"
         stroke-width="1.5"
         fill="none"
         stroke-dasharray="1.5 7"
         id="path41" /></g></g><mask
     id="mask43" /><g
     stroke-linecap="round"
     id="g47"><g
       transform="translate(642.5352932993834 414.05055002153955) rotate(0 144.34102990701922 165.66276189858297)"
       id="g44"><path
         d="M0 0 C0 48.74, 0 97.49, 0 149.66 M0 149.66 C0 160.33, 5.33 165.66, 16 165.66 M16 165.66 C69.22 165.66, 122.45 165.66, 272.68 165.66 M272.68 165.66 C283.35 165.66, 288.68 171, 288.68 181.66 M288.68 181.66 C288.68 235.99, 288.68 290.32, 288.68 331.33"
         stroke="currentColor"
         stroke-width="1.5"
         fill="none"
         stroke-dasharray="1.5 7"
         id="path43" /></g><g
       transform="translate(642.5352932993834 414.05055002153955) rotate(0 144.34102990701922 165.66276189858297)"
       id="g45"><path
         d="M280.13 307.83 C282.92 315.48, 285.7 323.14, 288.68 331.33"
         stroke="currentColor"
         stroke-width="1.5"
         fill="none"
         stroke-dasharray="1.5 5"
         id="path44" /></g><g
       transform="translate(642.5352932993834 414.05055002153955) rotate(0 144.34102990701922 165.66276189858297)"
       id="g46"><path
         d="M297.23 307.83 C294.45 315.48, 291.66 323.14, 288.68 331.33"
         stroke="currentColor"
         stroke-width="1.5"
         fill="none"
         stroke-dasharray="1.5 5"
         id="path45" /></g></g><mask
     id="mask47" /><g
     stroke-linecap="round"
     transform="translate(519.6352932993834 1456.0515223112866) rotate(0 144.5 41)"
     id="g48"><path
       d="M20.5 0 C92.43 0, 164.36 0, 268.5 0 M268.5 0 C282.17 0, 289 6.83, 289 20.5 M289 20.5 C289 32.71, 289 44.91, 289 61.5 M289 61.5 C289 75.17, 282.17 82, 268.5 82 M268.5 82 C206.32 82, 144.15 82, 20.5 82 M20.5 82 C6.83 82, 0 75.17, 0 61.5 M0 61.5 C0 52.16, 0 42.82, 0 20.5 M0 20.5 C0 6.83, 6.83 0, 20.5 0"
       stroke="currentColor"
       stroke-width="1.5"
       fill="none"
       stroke-dasharray="1.5 7"
       id="path47" /></g><g
     transform="translate(605.8936284129088 1479.5515223112866) rotate(0 58.24166488647461 17.5)"
     id="g49"><text
       x="58.24166488647461"
       y="24.668"
       font-family="Excalifont, Xiaolai, Segoe UI Emoji"
       font-size="28px"
       fill="currentColor"
       text-anchor="middle"
       style="white-space: pre;"
       direction="ltr"
       dominant-baseline="alphabetic"
       id="text48">collector</text></g><g
     stroke-linecap="round"
     id="g53"><g
       transform="translate(664.0352932993834 1451.0515223112866) rotate(0 -0.25180267641673026 -78.5627386950602)"
       id="g50"><path
         d="M0 0 C-0.17 -54.3, -0.35 -108.59, -0.5 -157.13"
         stroke="currentColor"
         stroke-width="1.5"
         fill="none"
         stroke-dasharray="1.5 7"
         id="path49" /></g><g
       transform="translate(664.0352932993834 1451.0515223112866) rotate(0 -0.25180267641673026 -78.5627386950602)"
       id="g51"><path
         d="M8.12 -133.66 C5.14 -141.77, 2.16 -149.88, -0.5 -157.13"
         stroke="currentColor"
         stroke-width="1.5"
         fill="none"
         stroke-dasharray="1.5 5"
         id="path50" /></g><g
       transform="translate(664.0352932993834 1451.0515223112866) rotate(0 -0.25180267641673026 -78.5627386950602)"
       id="g52"><path
         d="M-8.98 -133.61 C-6.05 -141.73, -3.12 -149.86, -0.5 -157.13"
         stroke="currentColor"
         stroke-width="1.5"
         fill="none"
         stroke-dasharray="1.5 5"
         id="path51" /></g></g><mask
     id="mask53" /><g
     fill="none"
     id="mcp"
     transform="matrix(3.949435,0,0,3.949435,594.52803,199.95894)"
     style="fill-opacity:1"><path
       d="m 12.594,23.258 -0.012,0.002 -0.071,0.035 -0.02,0.004 -0.014,-0.004 -0.071,-0.036 q -0.016,-0.004 -0.024,0.006 l -0.004,0.01 -0.017,0.428 0.005,0.02 0.01,0.013 0.104,0.074 0.015,0.004 0.012,-0.004 0.104,-0.074 0.012,-0.016 0.004,-0.017 -0.017,-0.427 Q 12.606,23.26 12.594,23.258 m 0.264,-0.113 -0.014,0.002 -0.184,0.093 -0.01,0.01 -0.003,0.011 0.018,0.43 0.005,0.012 0.008,0.008 0.201,0.092 q 0.019,0.005 0.029,-0.008 l 0.004,-0.014 -0.034,-0.614 q -0.005,-0.019 -0.02,-0.022 m -0.715,0.002 a 0.02,0.02 0 0 0 -0.027,0.006 l -0.006,0.014 -0.034,0.614 q 10e-4,0.018 0.017,0.024 l 0.015,-0.002 0.201,-0.093 0.01,-0.008 0.003,-0.011 0.018,-0.43 -0.003,-0.012 -0.01,-0.01 z"
       id="path1-29"
       style="fill:currentColor;fill-opacity:1" /><path
       fill="currentColor"
       d="m 9.112,3.161 a 4.498,4.498 0 0 1 7.65,3.658 4.5,4.5 0 0 1 3.662,7.656 l -5.303,5.304 0.707,0.707 A 1,1 0 1 1 14.414,21.9 l -0.707,-0.707 a 2,2 0 0 1 0,-2.83 l 5.304,-5.302 A 2.5003296,2.5003296 0 0 0 15.475,9.525 l -3.889,3.89 a 1,1 0 0 1 -1.173,0.178 l -0.004,-0.002 a 1,1 0 0 1 -0.242,-1.593 l 3.89,-3.89 A 2.498,2.498 0 0 0 10.527,4.575 L 4.514,10.588 A 1.0002026,1.0002026 0 0 1 3.1,9.173 Z m 2.474,2.475 A 1,1 0 0 1 13,7.05 l -3.89,3.89 a 2.5003297,2.5003297 0 0 0 3.537,3.535 l 3.888,-3.889 A 1.0002026,1.0002026 0 1 1 17.95,12 l -3.888,3.889 A 4.5003811,4.5003811 0 0 1 7.697,9.525 Z"
       id="path2-3"
       style="fill:currentColor;fill-opacity:1" /></g><path
     fill="currentColor"
     fill-rule="evenodd"
     d="m 456.86612,216.82361 a 18.104851,18.104851 0 1 0 0,36.2097 18.104851,18.104851 0 0 0 0,-36.2097 m -27.15724,18.10482 a 27.157242,27.157242 0 1 1 49.2904,15.73314 l 21.80273,21.8027 a 4.526207,4.526207 0 0 1 -6.40006,6.40009 L 472.60374,257.0661 a 27.157242,27.157242 0 0 1 -42.89486,-22.13767"
     clip-rule="evenodd"
     id="search"
     style="stroke-width:4.52621" /></svg>
