<?xml version="1.0" encoding="UTF-8" standalone="no"?>
<svg
   version="1.1"
   viewBox="0 0 2195.5493 656.24205"
   width="2195.5493"
   height="656.24207"
   id="svg45"
   sodipodi:docname="InsideSource.svg"
   inkscape:version="1.4.4 (dcaf3e7d9e, 2026-05-05)"
   xmlns:inkscape="http://www.inkscape.org/namespaces/inkscape"
   xmlns:sodipodi="http://sodipodi.sourceforge.net/DTD/sodipodi-0.dtd"
   xmlns="http://www.w3.org/2000/svg"
   xmlns:svg="http://www.w3.org/2000/svg">
  <sodipodi:namedview
     id="namedview45"
     pagecolor="#ffffff"
     bordercolor="#666666"
     borderopacity="1.0"
     inkscape:showpageshadow="2"
     inkscape:pageopacity="0.0"
     inkscape:pagecheckerboard="true"
     inkscape:deskcolor="#d1d1d1"
     inkscape:zoom="0.68543329"
     inkscape:cx="555.12331"
     inkscape:cy="0.72946559"
     inkscape:window-width="1691"
     inkscape:window-height="1347"
     inkscape:window-x="0"
     inkscape:window-y="0"
     inkscape:window-maximized="1"
     inkscape:current-layer="svg45" />
  <defs
     id="defs1" />
  <g
     stroke-linecap="round"
     transform="translate(295.01258,348.51693)"
     id="g1">
    <path
       d="M 23.62,0 C 91.53,1.77 156.76,0.66 237.6,0 M 23.62,0 C 72.66,-1.84 123.76,-1.34 237.6,0 m 0,0 c 17.26,1.87 22.46,9.33 23.62,23.62 M 237.6,0 c 14.61,1.93 22.82,8.81 23.62,23.62 m 0,0 c -0.38,10.3 0.41,18.83 0,47.23 m 0,-47.23 c -1.18,12.92 -0.88,24.52 0,47.23 m 0,0 c 0.69,16.05 -8.52,22.74 -23.62,23.62 m 23.62,-23.62 c 0.43,14.69 -8.09,22.53 -23.62,23.62 m 0,0 c -45.54,-0.87 -91.53,-1.42 -213.98,0 m 213.98,0 c -44.8,-1.77 -88.07,-0.64 -213.98,0 m 0,0 C 6.22,94.93 1.88,87.43 0,70.85 M 23.62,94.47 C 8.5,92.97 1.07,88.66 0,70.85 m 0,0 C 0.29,51.34 -0.3,37.52 0,23.62 M 0,70.85 C -1.13,55.04 -0.03,39.48 0,23.62 m 0,0 C 1.34,9.5 9.23,-1.88 23.62,0 M 0,23.62 C -0.23,6.84 9.64,1.6 23.62,0"
       stroke="currentColor"
       stroke-width="2"
       fill="none"
       id="path1" />
  </g>
  <g
     transform="translate(376.94201,383.25326)"
     id="g2">
    <text
       x="48.679939"
       y="17.620001"
       font-family="Excalifont, Xiaolai, 'Segoe UI Emoji'"
       font-size="20px"
       fill="currentColor"
       text-anchor="middle"
       style="white-space:pre"
       direction="ltr"
       dominant-baseline="alphabetic"
       id="text1">Extractor</text>
  </g>
  <g
     stroke-linecap="round"
     transform="translate(637.0282,346.96419)"
     id="g3">
    <path
       d="M 23.62,0 C 68.85,-2.21 114.19,0.83 237.6,0 M 23.62,0 C 79.46,-0.33 134.47,-1.68 237.6,0 m 0,0 c 17.44,1.23 23.8,9.23 23.62,23.62 M 237.6,0 c 13.81,-2.19 24.64,9.14 23.62,23.62 m 0,0 c 1.69,10.98 -1.79,18.7 0,47.23 m 0,-47.23 c -0.53,13.44 -0.64,26.15 0,47.23 m 0,0 c 1.01,15.54 -8.78,23.29 -23.62,23.62 m 23.62,-23.62 c 0.58,15.87 -8.39,24.34 -23.62,23.62 m 0,0 c -56.83,1.86 -115.94,1.23 -213.98,0 m 213.98,0 c -47.32,1.01 -94.94,1.14 -213.98,0 m 0,0 C 6.32,92.69 0.7,85.55 0,70.85 M 23.62,94.47 C 9.59,96.58 0.45,87.13 0,70.85 m 0,0 C 0.29,55.26 -0.38,37.38 0,23.62 M 0,70.85 C 0.15,56.83 0.23,44.09 0,23.62 m 0,0 C 0.2,6.9 7.94,1.29 23.62,0 M 0,23.62 C -1.82,7.45 7.71,-2.27 23.62,0"
       stroke="currentColor"
       stroke-width="2"
       fill="none"
       id="path2" />
  </g>
  <g
     transform="translate(700.21765,381.70052)"
     id="g4">
    <text
       x="67.41993"
       y="17.620001"
       font-family="Excalifont, Xiaolai, 'Segoe UI Emoji'"
       font-size="20px"
       fill="currentColor"
       text-anchor="middle"
       style="white-space:pre"
       direction="ltr"
       dominant-baseline="alphabetic"
       id="text3">Transformer 1</text>
  </g>
  <g
     stroke-linecap="round"
     transform="translate(992.34456,345.88216)"
     id="g5">
    <path
       d="M 23.62,0 C 91.51,0.45 160.97,1.29 237.6,0 M 23.62,0 c 77.59,0.55 153.6,1.34 213.98,0 m 0,0 c 14.51,1.9 23.73,7.74 23.62,23.62 M 237.6,0 c 14.09,1.83 25.56,9.44 23.62,23.62 m 0,0 c -0.99,12.46 -1.83,25.89 0,47.23 m 0,-47.23 c 0.02,16.26 -0.31,33.42 0,47.23 m 0,0 c -1.61,14.28 -9.66,21.76 -23.62,23.62 m 23.62,-23.62 c 0.08,13.87 -10.01,25.38 -23.62,23.62 m 0,0 c -43.57,-1.71 -90.16,-0.27 -213.98,0 m 213.98,0 C 154.11,93.8 69.71,93.81 23.62,94.47 m 0,0 C 9.29,95.32 0.83,87.68 0,70.85 M 23.62,94.47 C 9.12,96.55 -0.92,87.87 0,70.85 m 0,0 C -0.76,56.65 -0.74,41.04 0,23.62 m 0,47.23 c -0.76,-13.96 -0.08,-27 0,-47.23 m 0,0 C 0.04,9.73 6.32,1.05 23.62,0 M 0,23.62 C 1.28,8.85 8.06,-1.3 23.62,0"
       stroke="currentColor"
       stroke-width="2"
       fill="none"
       id="path4" />
  </g>
  <g
     transform="translate(1054.5441,380.61849)"
     id="g6">
    <text
       x="68.409927"
       y="17.620001"
       font-family="Excalifont, Xiaolai, 'Segoe UI Emoji'"
       font-size="20px"
       fill="currentColor"
       text-anchor="middle"
       style="white-space:pre"
       direction="ltr"
       dominant-baseline="alphabetic"
       id="text5">Transformer n</text>
  </g>
  <g
     stroke-linecap="round"
     transform="translate(1311.8525,343.97982)"
     id="g7">
    <path
       d="M 23.62,0 C 68.43,1.01 112.07,-0.68 237.6,0 M 23.62,0 c 50.6,-0.12 100.76,-0.26 213.98,0 m 0,0 c 16.58,-1.58 21.78,7.46 23.62,23.62 M 237.6,0 c 14.62,-0.94 22.31,8.46 23.62,23.62 m 0,0 c -0.64,12.63 -1.35,28.3 0,47.23 m 0,-47.23 c -1.17,11.84 -0.47,22.52 0,47.23 m 0,0 c -1.65,16.75 -9.08,23.01 -23.62,23.62 m 23.62,-23.62 c -0.02,13.9 -9.34,22.01 -23.62,23.62 m 0,0 c -61.08,0.26 -120.68,2.73 -213.98,0 m 213.98,0 c -44.57,0.07 -89.32,1.44 -213.98,0 m 0,0 C 7.74,94.73 -1.03,84.88 0,70.85 M 23.62,94.47 C 8.05,94.33 2.1,85.05 0,70.85 m 0,0 C 0.6,58.82 -1.55,47.65 0,23.62 M 0,70.85 C -0.53,60.52 0.74,49.56 0,23.62 m 0,0 C 0.06,7.2 8.26,-1.99 23.62,0 M 0,23.62 C -1.13,9.28 8.1,-0.74 23.62,0"
       stroke="currentColor"
       stroke-width="2"
       fill="none"
       id="path6" />
  </g>
  <g
     transform="translate(1409.7319,378.71615)"
     id="g8">
    <text
       x="32.729965"
       y="17.620001"
       font-family="Excalifont, Xiaolai, 'Segoe UI Emoji'"
       font-size="20px"
       fill="currentColor"
       text-anchor="middle"
       style="white-space:pre"
       direction="ltr"
       dominant-baseline="alphabetic"
       id="text7">Loader</text>
  </g>
  <g
     transform="translate(626.69226,457.15755)"
     stroke="none"
     id="g9">
    <path
       fill="currentColor"
       d="m 1.34,-4.87 q 0,0 2.22,0.56 2.23,0.55 4.86,1.85 2.62,1.3 4.8,2.87 2.18,1.59 5.46,3.76 3.29,2.18 5.85,4.04 2.56,1.85 4.97,3.14 2.41,1.29 5.47,2.61 3.06,1.32 5.2,1.38 2.14,0.07 5.34,0.39 3.19,0.32 5.81,0.52 2.62,0.21 5.16,0.29 2.54,0.08 6.52,0.36 3.98,0.28 8.01,0.41 4.03,0.14 6.42,0.07 2.39,-0.07 5.64,-0.18 3.26,-0.12 6.89,-0.09 3.62,0.04 5.9,0.07 2.28,0.03 4.53,0.05 2.25,0.02 5.35,0.16 3.11,0.15 8.11,0.54 5.01,0.4 9.15,1 4.15,0.59 7.61,1.53 3.46,0.94 6.17,1.23 2.71,0.29 7.63,1.42 4.92,1.13 8.7,1.59 3.78,0.46 7.16,0.59 3.39,0.13 6.61,0.15 3.22,0.01 7.64,0.22 4.41,0.2 6.91,0.05 2.5,-0.15 4.73,-0.3 2.23,-0.14 5.72,-0.41 3.5,-0.26 6.24,-0.52 2.75,-0.25 6.66,-0.18 3.9,0.08 8.68,0.4 4.78,0.32 9.44,0.57 4.65,0.24 9.03,0.42 4.37,0.19 10.9,1.55 6.53,1.36 11.92,2.36 5.4,1 10.77,1.89 5.37,0.9 9.55,1.29 4.19,0.39 9.09,0.58 4.89,0.18 7.9,0.05 3.01,-0.13 5.52,-0.44 2.51,-0.31 7.27,-0.44 4.75,-0.14 9.18,0.07 4.42,0.21 9.96,0.37 5.54,0.15 11.71,0.27 6.17,0.11 18.79,0.19 12.62,0.09 23.35,0.15 10.73,0.06 20.11,0.1 9.39,0.05 18.03,0.08 8.64,0.03 18.16,0.06 9.52,0.02 16.49,0.04 6.97,0.02 12.45,0.03 5.47,0.01 8.81,-0.16 3.35,-0.16 6.87,-0.26 3.53,-0.1 7.35,-0.5 3.81,-0.39 6.84,-0.68 3.03,-0.29 5.73,-0.48 2.71,-0.2 6.23,-1.15 3.52,-0.94 5.67,-1.37 2.14,-0.42 4.34,-0.94 2.2,-0.51 4.78,-0.81 2.58,-0.3 5.17,-0.41 2.6,-0.11 4.85,-0.18 2.26,-0.07 5.52,-0.62 3.27,-0.54 6.54,-1.88 3.28,-1.35 6.59,-2.61 3.32,-1.27 7.29,-2.58 3.97,-1.31 6.89,-2.72 2.92,-1.41 5.37,-2.41 2.44,-0.99 6.51,-1.95 4.06,-0.97 6.67,-1.87 2.6,-0.91 6.73,-2.15 4.14,-1.24 6.86,-1.99 2.73,-0.74 5.27,-1.52 2.54,-0.77 5.56,-1.88 3.01,-1.1 4.95,-2 1.93,-0.89 4.55,-2.9 2.62,-2 4.85,-3.36 2.24,-1.36 4.61,-2.66 2.36,-1.29 5.07,-3.1 2.71,-1.81 4.71,-2.91 2,-1.11 3.5,-2.4 1.5,-1.29 1.99,-2.24 0.49,-0.94 1.25,-1.68 0.76,-0.75 1.72,-1.2 0.96,-0.46 2.02,-0.59 1.05,-0.13 2.09,0.09 1.04,0.21 1.96,0.75 0.92,0.53 1.62,1.34 0.7,0.8 1.1,1.78 0.41,0.98 0.48,2.04 0.07,1.07 -0.2,2.09 -0.27,1.03 -0.86,1.92 -0.58,0.89 -1.42,1.54 -0.84,0.66 -1.84,1.01 -1.01,0.35 -2.07,0.36 -1.06,0.02 -2.07,-0.31 -1.02,-0.33 -1.87,-0.96 -0.86,-0.63 -1.46,-1.51 -0.61,-0.87 -0.91,-1.89 -0.3,-1.02 -0.25,-2.08 0.04,-1.07 0.42,-2.06 0.38,-0.99 1.06,-1.81 0.68,-0.82 1.59,-1.38 0.9,-0.56 1.94,-0.8 1.03,-0.24 2.09,-0.14 1.06,0.1 2.03,0.54 0.97,0.43 1.75,1.15 0.78,0.72 1.29,1.66 0.51,0.93 0.7,1.98 0.18,1.05 0.02,2.1 -0.16,1.05 -0.16,1.05 0,0 -1.94,2.77 -1.95,2.77 -4.04,4.53 -2.08,1.77 -5.4,3.62 -3.32,1.85 -5.21,3.06 -1.9,1.22 -4.11,2.64 -2.2,1.42 -5.18,3.6 -2.98,2.17 -6.58,4.45 -3.61,2.28 -6.37,3.32 -2.76,1.03 -5.62,2.11 -2.85,1.08 -6.45,1.99 -3.61,0.91 -6.95,1.88 -3.34,0.96 -5.67,1.83 -2.33,0.87 -5.17,1.44 -2.85,0.57 -5.28,1.04 -2.44,0.48 -5.15,1.47 -2.71,0.98 -4.91,1.82 -2.21,0.85 -5.2,1.67 -3,0.83 -7.27,2.29 -4.26,1.46 -6.86,2.27 -2.59,0.8 -7.13,2.06 -4.54,1.26 -6.81,1.57 -2.28,0.31 -4.43,0.32 -2.16,0 -6.39,0.2 -4.24,0.21 -6.64,0.7 -2.4,0.5 -6.63,0.89 -4.24,0.4 -6.35,1.12 -2.11,0.72 -5.08,0.53 -2.97,-0.2 -6,-0.48 -3.03,-0.29 -6.84,-0.69 -3.82,-0.39 -7.35,-0.49 -3.52,-0.1 -6.87,-0.27 -3.34,-0.17 -8.81,-0.15 -5.48,0.01 -12.45,0.03 -6.97,0.01 -16.49,0.04 -9.52,0.02 -18.16,0.05 -8.64,0.04 -18.03,0.08 -9.38,0.05 -20.11,0.11 -10.73,0.06 -23.35,0.14 -12.62,0.09 -18.79,0.2 -6.17,0.11 -11.71,0.27 -5.54,0.15 -9.96,0.36 -4.43,0.21 -9.23,0.06 -4.8,-0.15 -7.34,-0.54 -2.53,-0.39 -5.55,-0.64 -3.03,-0.26 -8.08,-0.37 -5.05,-0.12 -9.45,-0.43 -4.4,-0.31 -9.84,-1.07 -5.43,-0.76 -10.94,-1.58 -5.51,-0.82 -11.42,-1.85 -5.9,-1.03 -10.27,-0.85 -4.36,0.18 -9.01,0.43 -4.66,0.24 -9.44,0.56 -4.78,0.32 -8.68,0.4 -3.91,0.08 -6.66,-0.18 -2.75,-0.25 -6.25,-0.53 -3.5,-0.27 -5.74,-0.42 -2.24,-0.16 -4.75,-0.34 -2.5,-0.17 -6.97,-0.02 -4.47,0.15 -7.78,0.03 -3.32,-0.11 -6.88,-0.29 -3.56,-0.18 -7.7,-0.45 -4.14,-0.27 -8.89,-0.86 -4.75,-0.58 -8.13,-1.02 -3.38,-0.44 -6.06,-1.2 -2.68,-0.77 -6.4,-0.89 -3.71,-0.13 -8.72,0.27 -5,0.39 -8.11,0.54 -3.1,0.14 -5.35,0.16 -2.25,0.02 -4.53,0.05 -2.28,0.03 -5.91,0.07 -3.63,0.03 -6.94,-0.1 -3.32,-0.13 -5.8,-0.27 -2.47,-0.13 -4.72,-0.2 -2.25,-0.07 -4.8,-0.23 -2.55,-0.16 -5.73,-0.54 -3.19,-0.39 -5.85,-0.42 -2.66,-0.03 -7.26,-0.39 -4.59,-0.37 -7.77,-0.75 -3.17,-0.39 -5.71,-1.08 -2.55,-0.69 -5.38,-2.22 -2.82,-1.53 -5.84,-3.03 -3.01,-1.5 -7.38,-4.4 Q 12.4,13.09 10.64,11.77 8.87,10.44 5.92,8.31 2.98,6.18 0.81,5.52 -1.34,4.87 -1.91,4.64 -2.47,4.4 -2.96,4.04 -3.45,3.68 -3.84,3.22 -4.24,2.75 -4.5,2.2 -4.77,1.65 -4.9,1.06 q -0.13,-0.6 -0.11,-1.2 0.01,-0.61 0.18,-1.19 0.16,-0.59 0.46,-1.12 0.3,-0.53 0.71,-0.98 0.42,-0.44 0.93,-0.77 0.51,-0.34 1.09,-0.54 0.57,-0.2 1.18,-0.25 0.6,-0.06 1.2,0.03 0.6,0.09 0.6,0.09 z"
       id="path8" />
  </g>
  <g
     transform="translate(873.00476,518.51693)"
     id="g10">
    <text
       x="0"
       y="17.620001"
       font-family="Excalifont, Xiaolai, 'Segoe UI Emoji'"
       font-size="20px"
       fill="currentColor"
       text-anchor="start"
       style="white-space:pre"
       direction="ltr"
       dominant-baseline="alphabetic"
       id="text9">a chain of 0..n transformers</text>
  </g>
  <g
     stroke-linecap="round"
     id="g14"
     transform="translate(-53.528738,-222.18589)">
    <g
       transform="translate(1315.7054,619.21844)"
       id="g11">
      <path
         d="M 0.31,-0.05 C 7.32,-0.16 35.08,-0.32 42.22,-0.26 M -0.2,-0.55 c 7.17,-0.06 36.19,0.92 43.4,0.93"
         stroke="currentColor"
         stroke-width="2"
         fill="none"
         id="path10" />
    </g>
    <g
       transform="translate(1315.7054,619.21844)"
       id="g12">
      <path
         d="M 23,7.3 C 29.46,4.1 35.9,3.56 43.2,0.38 M 23,7.3 C 30.42,4.58 38.79,1.7 43.2,0.38"
         stroke="currentColor"
         stroke-width="2"
         fill="none"
         id="path11" />
    </g>
    <g
       transform="translate(1315.7054,619.21844)"
       id="g13">
      <path
         d="m 23.28,-7.31 c 6.42,1.55 12.77,5.77 19.92,7.69 M 23.28,-7.31 c 7.32,2.86 15.58,5.57 19.92,7.69"
         stroke="currentColor"
         stroke-width="2"
         fill="none"
         id="path12" />
    </g>
  </g>
  <mask
     id="mask14" />
  <g
     stroke-linecap="round"
     id="g18"
     transform="translate(-53.528738,-222.18589)">
    <g
       transform="translate(961.4085,613.26532)"
       id="g15">
      <path
         d="M 0.62,0.73 C 12.7,0.87 60.54,1.91 72.86,1.84"
         stroke="currentColor"
         stroke-width="2.5"
         fill="none"
         stroke-dasharray="1.5, 8"
         id="path14" />
    </g>
    <g
       transform="translate(961.4085,613.26532)"
       id="g16">
      <path
         d="M 49.29,10.16 C 58.28,5.44 66.76,5.55 72.86,1.84"
         stroke="currentColor"
         stroke-width="2.5"
         fill="none"
         stroke-dasharray="1.5, 6"
         id="path15" />
    </g>
    <g
       transform="translate(961.4085,613.26532)"
       id="g17">
      <path
         d="m 49.46,-6.94 c 9.08,0.97 17.5,6.77 23.4,8.78"
         stroke="currentColor"
         stroke-width="2.5"
         fill="none"
         stroke-dasharray="1.5, 6"
         id="path16" />
    </g>
  </g>
  <mask
     id="mask18" />
  <g
     stroke-linecap="round"
     id="g22"
     transform="translate(-53.528738,-222.18589)">
    <g
       transform="translate(616.64679,620.55829)"
       id="g19">
      <path
         d="M 0.68,0.5 C 12.15,0.28 56.97,-2.03 68.19,-2.2 M -0.42,-0.28 C 10.99,-0.3 56.16,-0.74 67.46,-1.09"
         stroke="currentColor"
         stroke-width="2"
         fill="none"
         id="path18" />
    </g>
    <g
       transform="translate(616.64679,620.55829)"
       id="g20">
      <path
         d="M 44.13,7.9 C 50.79,6.24 54.33,3.73 67.46,-1.09 M 44.13,7.9 c 9.7,-2.8 16.72,-7.37 23.33,-8.99"
         stroke="currentColor"
         stroke-width="2"
         fill="none"
         id="path19" />
    </g>
    <g
       transform="translate(616.64679,620.55829)"
       id="g21">
      <path
         d="m 43.81,-9.2 c 6.62,2.56 10.24,4.27 23.65,8.11 M 43.81,-9.2 c 9.74,3.55 16.89,5.33 23.65,8.11"
         stroke="currentColor"
         stroke-width="2"
         fill="none"
         id="path20" />
    </g>
  </g>
  <mask
     id="mask22" />
  <g
     stroke-linecap="round"
     transform="translate(9.0348997,518.25298)"
     id="g23">
    <path
       d="m 81.14,-0.1 c 9.86,0.25 21.63,5.09 30.59,10.69 8.96,5.6 17.49,14.27 23.17,22.9 5.67,8.63 10.06,19.19 10.89,28.87 0.84,9.69 -2.01,19.93 -5.88,29.25 -3.86,9.33 -10,19.6 -17.31,26.7 -7.31,7.11 -16.73,13.03 -26.55,15.94 -9.82,2.92 -21.73,3.03 -32.36,1.57 C 53.05,134.35 41.25,130.98 32.23,125.46 23.21,119.95 14.82,111.19 9.56,102.73 4.3,94.26 1.61,84.48 0.65,74.67 -0.31,64.87 0.35,53.3 3.81,43.91 7.27,34.52 13.84,25.18 21.41,18.32 28.97,11.47 38.09,5.51 49.18,2.78 60.26,0.06 80.58,1.62 87.92,1.98 95.26,2.34 93.6,3.76 93.2,4.95"
       stroke="currentColor"
       stroke-width="2.5"
       fill="none"
       stroke-dasharray="1.5, 8"
       id="path22" />
  </g>
  <g
     transform="translate(56.804902,574.27743)"
     id="g24">
    <text
       x="24.849976"
       y="17.620001"
       font-family="Excalifont, Xiaolai, 'Segoe UI Emoji'"
       font-size="20px"
       fill="currentColor"
       text-anchor="middle"
       style="white-space:pre"
       direction="ltr"
       dominant-baseline="alphabetic"
       id="text23">Data</text>
  </g>
  <g
     stroke-linecap="round"
     transform="translate(1.0187167,209.73456)"
     id="g25">
    <path
       d="m 51.63,3.07 c 9.34,-3.5 21.91,-2.66 32.2,-1.24 10.29,1.41 20.98,4.3 29.55,9.71 8.56,5.42 16.45,14 21.85,22.79 5.4,8.78 9.62,20.12 10.52,29.91 0.91,9.79 -1.21,19.81 -5.06,28.82 -3.86,9.01 -10.27,18.53 -18.06,25.22 -7.78,6.69 -18.42,11.83 -28.63,14.9 -10.2,3.07 -22.21,4.9 -32.6,3.5 C 51.01,135.29 40.27,130.65 31.65,124.81 23.03,118.96 14.88,110.14 9.67,101.63 4.47,93.12 1.18,83.64 0.42,73.73 -0.34,63.82 1.18,51.42 5.13,42.16 9.08,32.91 15.81,24.85 24.12,18.2 32.43,11.56 49.37,4.7 54.99,2.28 c 5.61,-2.42 2.75,0.47 2.84,1.4"
       stroke="currentColor"
       stroke-width="2.5"
       fill="none"
       stroke-dasharray="1.5, 8"
       id="path24" />
  </g>
  <g
     transform="translate(30.628658,265.75901)"
     id="g26">
    <text
       x="43.159958"
       y="17.620001"
       font-family="Excalifont, Xiaolai, 'Segoe UI Emoji'"
       font-size="20px"
       fill="currentColor"
       text-anchor="middle"
       style="white-space:pre"
       direction="ltr"
       dominant-baseline="alphabetic"
       id="text25">Producer</text>
  </g>
  <g
     mask="url(#mask-icpx0u8fji3_l2MSf_JWS)"
     stroke-linecap="round"
     id="g30"
     transform="translate(-53.528738,-222.18589)">
    <g
       transform="translate(209.75192,520.77967)"
       id="g27">
      <path
         d="M 0.03,0.12 C 10.46,7.23 40.35,25 62.05,42.22 83.74,59.44 118.9,93 130.22,103.44"
         stroke="currentColor"
         stroke-width="2.5"
         fill="none"
         stroke-dasharray="1.5, 8"
         id="path26" />
    </g>
    <g
       transform="translate(209.75192,520.77967)"
       id="g28">
      <path
         d="m 107.21,93.67 c 6.1,1.25 12.94,3.99 23.01,9.77"
         stroke="currentColor"
         stroke-width="2.5"
         fill="none"
         stroke-dasharray="1.5, 6"
         id="path27" />
    </g>
    <g
       transform="translate(209.75192,520.77967)"
       id="g29">
      <path
         d="m 118.88,81.16 c 3.05,4.47 6.89,10.43 11.34,22.28"
         stroke="currentColor"
         stroke-width="2.5"
         fill="none"
         stroke-dasharray="1.5, 6"
         id="path28" />
    </g>
  </g>
  <mask
     id="mask-icpx0u8fji3_l2MSf_JWS">
    <rect
       x="0"
       y="0"
       fill="#ffffff"
       width="440.59521"
       height="725.10962"
       id="rect30" />
    <rect
       x="248.99084"
       y="549.82501"
       fill="#000000"
       width="47.119965"
       height="25"
       opacity="1"
       id="rect31" />
  </mask>
  <g
     transform="translate(195.4621,327.63914)"
     id="g31">
    <text
       x="23.559982"
       y="17.620001"
       font-family="Excalifont, Xiaolai, 'Segoe UI Emoji'"
       font-size="20px"
       fill="currentColor"
       text-anchor="middle"
       style="white-space:pre"
       direction="ltr"
       dominant-baseline="alphabetic"
       id="text31">Push</text>
  </g>
  <g
     mask="url(#mask-2guDJKxM-PdDYjeuicuIr)"
     stroke-linecap="round"
     id="g35"
     transform="translate(-53.528738,-222.18589)">
    <g
       transform="translate(340.76828,648.66058)"
       id="g32">
      <path
         d="M -1.11,-1.03 C -22.63,19.68 -107.91,102.73 -129.2,123.39"
         stroke="currentColor"
         stroke-width="2.5"
         fill="none"
         stroke-dasharray="1.5, 8"
         id="path31" />
    </g>
    <g
       transform="translate(340.76828,648.66058)"
       id="g33">
      <path
         d="m -118.32,100.89 c -5.11,7.92 -7.39,15.24 -10.88,22.5"
         stroke="currentColor"
         stroke-width="2.5"
         fill="none"
         stroke-dasharray="1.5, 6"
         id="path32" />
    </g>
    <g
       transform="translate(340.76828,648.66058)"
       id="g34">
      <path
         d="m -106.4,113.15 c -8.58,4.16 -14.4,7.83 -22.8,10.24"
         stroke="currentColor"
         stroke-width="2.5"
         fill="none"
         stroke-dasharray="1.5, 6"
         id="path33" />
    </g>
  </g>
  <mask
     id="mask-2guDJKxM-PdDYjeuicuIr">
    <rect
       x="0"
       y="0"
       fill="#ffffff"
       width="570.75946"
       height="872.50018"
       id="rect35" />
    <rect
       x="214.77274"
       y="698.08038"
       fill="#000000"
       width="121.99991"
       height="25"
       opacity="1"
       id="rect36" />
  </mask>
  <g
     transform="translate(161.244,475.89448)"
     id="g36">
    <text
       x="60.999954"
       y="17.620001"
       font-family="Excalifont, Xiaolai, 'Segoe UI Emoji'"
       font-size="20px"
       fill="currentColor"
       text-anchor="middle"
       style="white-space:pre"
       direction="ltr"
       dominant-baseline="alphabetic"
       id="text36">Pull / Polling</text>
  </g>
  <g
     stroke-linecap="round"
     transform="translate(256.24472,200.34003)"
     id="g37">
    <path
       d="m 32,0 c 398.03,3.71 795.28,5.05 1367.05,0 m 0,0 c 19.8,0.39 32.97,9.12 32,32 m 0,0 c -3.3,68.19 -1.71,135.96 0,312.28 m 0,0 c -0.47,20.91 -9.32,31.91 -32,32 m 0,0 C 887.22,374.58 374.34,373.69 32,376.28 m 0,0 c -21.89,0.94 -32.12,-8.67 -32,-32 m 0,0 C -1.18,258.68 -1.31,172.56 0,32 m 0,0 C -0.37,12.03 12.03,-1.76 32,0"
       stroke="currentColor"
       stroke-width="2.5"
       fill="none"
       stroke-dasharray="1.5, 8"
       id="path36" />
  </g>
  <g
     stroke-linecap="round"
     id="g41"
     transform="translate(-53.528738,-222.18589)">
    <g
       transform="translate(1633.6016,621.99579)"
       id="g38">
      <path
         d="M -0.09,-0.05 C 35.34,-0.51 177.43,-2.68 213.03,-3.58 M -1.6,-1.12 c 35.26,-0.7 178.02,-3.44 213.82,-4.01"
         stroke="currentColor"
         stroke-width="2"
         fill="none"
         id="path37" />
    </g>
    <g
       transform="translate(1633.6016,621.99579)"
       id="g39">
      <path
         d="m 188.88,3.84 c 7.79,-2.56 17.52,-4.72 23.34,-8.97 m -23.34,8.97 c 6.03,-2.3 11.56,-4.54 23.34,-8.97"
         stroke="currentColor"
         stroke-width="2"
         fill="none"
         id="path38" />
    </g>
    <g
       transform="translate(1633.6016,621.99579)"
       id="g40">
      <path
         d="m 188.58,-13.26 c 7.77,3.17 17.6,6.72 23.64,8.13 m -23.64,-8.13 c 6.2,1.75 11.81,3.57 23.64,8.13"
         stroke="currentColor"
         stroke-width="2"
         fill="none"
         id="path39" />
    </g>
  </g>
  <mask
     id="mask41" />
  <g
     transform="translate(890.55834,231.82999)"
     id="g42">
    <text
       x="0"
       y="24.667999"
       font-family="Excalifont, Xiaolai, 'Segoe UI Emoji'"
       font-size="28px"
       fill="currentColor"
       text-anchor="start"
       style="white-space:pre"
       direction="ltr"
       dominant-baseline="alphabetic"
       id="text41">Source</text>
  </g>
  <g
     stroke-linecap="round"
     transform="translate(1804.0015,372.85677)"
     id="g43">
    <path
       d="m 11.89,0 c 144.19,-2.72 288.8,-1.61 365.66,0 m 0,0 c 8.56,1.78 13.25,2.45 11.89,11.89 m 0,0 c 1.57,7.39 0.63,14.79 0,23.78 m 0,0 c 0.1,8.95 -4.21,9.9 -11.89,11.89 m 0,0 c -80.93,1.73 -162.67,1.79 -365.66,0 m 0,0 C 5.59,47.31 -1.88,42.43 0,35.67 m 0,0 C 0.8,31.37 -0.67,23.8 0,11.89 m 0,0 C 1.7,3.15 2.82,0.63 11.89,0"
       stroke="currentColor"
       stroke-width="2.5"
       fill="none"
       stroke-dasharray="1.5, 8"
       id="path42" />
  </g>
  <g
     transform="translate(1957.5875,379.13467)"
     id="g44">
    <text
       x="41.132172"
       y="24.667999"
       font-family="Excalifont, Xiaolai, 'Segoe UI Emoji'"
       font-size="28px"
       fill="currentColor"
       text-anchor="middle"
       style="white-space:pre"
       direction="ltr"
       dominant-baseline="alphabetic"
       id="text43">Queue</text>
  </g>
  <g
     transform="translate(776.69812,-3.4560072)"
     id="g45">
    <text
       x="0"
       y="31.716"
       font-family="Excalifont, Xiaolai, 'Segoe UI Emoji'"
       font-size="36px"
       fill="currentColor"
       text-anchor="start"
       style="white-space:pre"
       direction="ltr"
       dominant-baseline="alphabetic"
       id="text44">Inside a Source</text>
  </g>
</svg>
